# Blender 5.1.2
# www.blender.org
mtllib ball_banana_outer.mtl
o Ball
v 0.000000 0.000000 1.000000
v 0.000000 0.555570 0.831470
v 0.000000 0.831470 0.555570
v 0.000000 0.980785 0.195090
v 0.000000 1.000000 0.000000
v 0.000000 0.980785 -0.195090
v 0.000000 0.831470 -0.555570
v 0.000000 0.000000 -1.000000
v 0.038060 0.191342 0.980785
v 0.074658 0.375330 0.923880
v 0.108386 0.544895 0.831470
v 0.137950 0.693520 0.707107
v 0.162212 0.815493 0.555570
v 0.180240 0.906127 0.382683
v 0.191342 0.961940 0.195090
v 0.195090 0.980785 0.000000
v 0.191342 0.961940 -0.195090
v 0.180240 0.906127 -0.382683
v 0.162212 0.815493 -0.555570
v 0.137950 0.693520 -0.707107
v 0.108386 0.544895 -0.831470
v 0.074658 0.375330 -0.923880
v 0.038060 0.191342 -0.980785
v 0.074658 0.180240 0.980785
v 0.146447 0.353553 0.923880
v 0.212608 0.513280 0.831470
v 0.270598 0.653281 0.707107
v 0.318190 0.768178 0.555570
v 0.353553 0.853553 0.382683
v 0.375330 0.906127 0.195090
v 0.382683 0.923879 0.000000
v 0.375330 0.906127 -0.195090
v 0.353553 0.853553 -0.382683
v 0.318190 0.768178 -0.555570
v 0.270598 0.653281 -0.707107
v 0.212608 0.513280 -0.831470
v 0.146447 0.353553 -0.923880
v 0.074658 0.180240 -0.980785
v 0.108386 0.162212 0.980785
v 0.212608 0.318190 0.923880
v 0.308658 0.461940 0.831470
v 0.392847 0.587938 0.707107
v 0.461940 0.691342 0.555570
v 0.513280 0.768178 0.382683
v 0.544895 0.815493 0.195090
v 0.555570 0.831469 0.000000
v 0.544895 0.815493 -0.195090
v 0.513280 0.768178 -0.382683
v 0.461940 0.691342 -0.555570
v 0.392847 0.587938 -0.707107
v 0.308658 0.461940 -0.831470
v 0.212608 0.318190 -0.923880
v 0.108386 0.162212 -0.980785
v 0.137950 0.137950 0.980785
v 0.270598 0.270598 0.923880
v 0.392847 0.392847 0.831470
v 0.500000 0.500000 0.707107
v 0.587938 0.587938 0.555570
v 0.653281 0.653281 0.382683
v 0.693520 0.693520 0.195090
v 0.707107 0.707107 0.000000
v 0.693520 0.693520 -0.195090
v 0.653281 0.653281 -0.382683
v 0.587938 0.587938 -0.555570
v 0.500000 0.500000 -0.707107
v 0.392847 0.392847 -0.831470
v 0.270598 0.270598 -0.923880
v 0.137950 0.137950 -0.980785
v 0.162212 0.108386 0.980785
v 0.318190 0.212608 0.923880
v 0.461940 0.308658 0.831470
v 0.587938 0.392847 0.707107
v 0.691342 0.461940 0.555570
v 0.768178 0.513280 0.382683
v 0.815493 0.544895 0.195090
v 0.831470 0.555570 0.000000
v 0.815493 0.544895 -0.195090
v 0.768178 0.513280 -0.382683
v 0.691342 0.461940 -0.555570
v 0.587938 0.392847 -0.707107
v 0.461940 0.308658 -0.831470
v 0.318190 0.212608 -0.923880
v 0.162212 0.108386 -0.980785
v 0.180240 0.074658 0.980785
v 0.353553 0.146447 0.923880
v 0.513280 0.212607 0.831470
v 0.653281 0.270598 0.707107
v 0.768178 0.318190 0.555570
v 0.853553 0.353553 0.382683
v 0.906127 0.375330 0.195090
v 0.923879 0.382683 0.000000
v 0.906127 0.375330 -0.195090
v 0.853553 0.353553 -0.382683
v 0.768178 0.318190 -0.555570
v 0.653281 0.270598 -0.707107
v 0.513280 0.212607 -0.831470
v 0.353553 0.146447 -0.923880
v 0.180240 0.074658 -0.980785
v 0.191342 0.038060 0.980785
v 0.375330 0.074658 0.923880
v 0.544895 0.108386 0.831470
v 0.693520 0.137950 0.707107
v 0.815493 0.162212 0.555570
v 0.906127 0.180240 0.382683
v 0.961940 0.191342 0.195090
v 0.980785 0.195090 0.000000
v 0.961940 0.191342 -0.195090
v 0.906127 0.180240 -0.382683
v 0.815493 0.162212 -0.555570
v 0.693520 0.137950 -0.707107
v 0.544895 0.108386 -0.831470
v 0.375330 0.074658 -0.923880
v 0.191342 0.038060 -0.980785
v 0.195090 -0.000000 0.980785
v 0.382683 -0.000000 0.923880
v 0.555570 -0.000000 0.831470
v 0.707107 0.000000 0.707107
v 0.831469 -0.000000 0.555570
v 0.923879 0.000000 0.382683
v 0.980785 -0.000000 0.195090
v 1.000000 -0.000000 0.000000
v 0.980785 -0.000000 -0.195090
v 0.923879 0.000000 -0.382683
v 0.831469 -0.000000 -0.555570
v 0.707107 0.000000 -0.707107
v 0.555570 -0.000000 -0.831470
v 0.382683 -0.000000 -0.923880
v 0.195090 -0.000000 -0.980785
v 0.191342 -0.038060 0.980785
v 0.375330 -0.074658 0.923880
v 0.544895 -0.108386 0.831470
v 0.693520 -0.137950 0.707107
v 0.815493 -0.162212 0.555570
v 0.906127 -0.180240 0.382683
v 0.961940 -0.191342 0.195090
v 0.980785 -0.195090 0.000000
v 0.961940 -0.191342 -0.195090
v 0.906127 -0.180240 -0.382683
v 0.815493 -0.162212 -0.555570
v 0.693520 -0.137950 -0.707107
v 0.544895 -0.108386 -0.831470
v 0.375330 -0.074658 -0.923880
v 0.191342 -0.038060 -0.980785
v 0.180240 -0.074658 0.980785
v 0.353553 -0.146447 0.923880
v 0.513280 -0.212608 0.831470
v 0.653281 -0.270598 0.707107
v 0.768178 -0.318190 0.555570
v 0.853553 -0.353553 0.382683
v 0.906127 -0.375330 0.195090
v 0.923879 -0.382683 0.000000
v 0.906127 -0.375330 -0.195090
v 0.853553 -0.353553 -0.382683
v 0.768178 -0.318190 -0.555570
v 0.653281 -0.270598 -0.707107
v 0.513280 -0.212608 -0.831470
v 0.353553 -0.146447 -0.923880
v 0.180240 -0.074658 -0.980785
v 0.162212 -0.108386 0.980785
v 0.318190 -0.212608 0.923880
v 0.461940 -0.308658 0.831470
v 0.587938 -0.392847 0.707107
v 0.691341 -0.461940 0.555570
v 0.768178 -0.513280 0.382683
v 0.815493 -0.544895 0.195090
v 0.831469 -0.555570 0.000000
v 0.815493 -0.544895 -0.195090
v 0.768178 -0.513280 -0.382683
v 0.691341 -0.461940 -0.555570
v 0.587938 -0.392847 -0.707107
v 0.461940 -0.308658 -0.831470
v 0.318190 -0.212608 -0.923880
v 0.162212 -0.108386 -0.980785
v 0.137950 -0.137950 0.980785
v 0.270598 -0.270598 0.923880
v 0.392847 -0.392847 0.831470
v 0.500000 -0.500000 0.707107
v 0.587938 -0.587938 0.555570
v 0.653281 -0.653281 0.382683
v 0.693520 -0.693520 0.195090
v 0.707106 -0.707107 0.000000
v 0.693520 -0.693520 -0.195090
v 0.653281 -0.653281 -0.382683
v 0.587938 -0.587938 -0.555570
v 0.500000 -0.500000 -0.707107
v 0.392847 -0.392847 -0.831470
v 0.270598 -0.270598 -0.923880
v 0.137950 -0.137950 -0.980785
v 0.108386 -0.162212 0.980785
v 0.212607 -0.318190 0.923880
v 0.308658 -0.461940 0.831470
v 0.392847 -0.587938 0.707107
v 0.461940 -0.691342 0.555570
v 0.513280 -0.768178 0.382683
v 0.544895 -0.815493 0.195090
v 0.555570 -0.831469 0.000000
v 0.544895 -0.815493 -0.195090
v 0.513280 -0.768178 -0.382683
v 0.461940 -0.691342 -0.555570
v 0.392847 -0.587938 -0.707107
v 0.308658 -0.461940 -0.831470
v 0.212607 -0.318190 -0.923880
v 0.108386 -0.162212 -0.980785
v 0.074658 -0.180240 0.980785
v 0.146447 -0.353553 0.923880
v 0.212607 -0.513280 0.831470
v 0.270598 -0.653281 0.707107
v 0.318189 -0.768178 0.555570
v 0.353553 -0.853553 0.382683
v 0.375330 -0.906127 0.195090
v 0.382683 -0.923879 0.000000
v 0.375330 -0.906127 -0.195090
v 0.353553 -0.853553 -0.382683
v 0.318189 -0.768178 -0.555570
v 0.270598 -0.653281 -0.707107
v 0.212607 -0.513280 -0.831470
v 0.146447 -0.353553 -0.923880
v 0.074658 -0.180240 -0.980785
v 0.038060 -0.191342 0.980785
v 0.074658 -0.375330 0.923880
v 0.108386 -0.544895 0.831470
v 0.137950 -0.693520 0.707107
v 0.162212 -0.815493 0.555570
v 0.180240 -0.906127 0.382683
v 0.191342 -0.961939 0.195090
v 0.195090 -0.980785 0.000000
v 0.191342 -0.961939 -0.195090
v 0.180240 -0.906127 -0.382683
v 0.162212 -0.815493 -0.555570
v 0.137950 -0.693520 -0.707107
v 0.108386 -0.544895 -0.831470
v 0.074658 -0.375330 -0.923880
v 0.038060 -0.191342 -0.980785
v -0.000000 -0.195090 0.980785
v -0.000000 -0.382683 0.923880
v -0.000000 -0.555570 0.831470
v -0.000000 -0.707107 0.707107
v -0.000000 -0.831469 0.555570
v 0.000000 -0.923879 0.382683
v -0.000000 -0.980785 0.195090
v -0.000000 -0.999999 0.000000
v -0.000000 -0.980785 -0.195090
v 0.000000 -0.923879 -0.382683
v -0.000000 -0.831469 -0.555570
v -0.000000 -0.707107 -0.707107
v -0.000000 -0.555570 -0.831470
v -0.000000 -0.382683 -0.923880
v -0.000000 -0.195090 -0.980785
v -0.038060 -0.191342 0.980785
v -0.074658 -0.375330 0.923880
v -0.108386 -0.544895 0.831470
v -0.137950 -0.693520 0.707107
v -0.162212 -0.815493 0.555570
v -0.180240 -0.906127 0.382683
v -0.191342 -0.961939 0.195090
v -0.195091 -0.980785 0.000000
v -0.191342 -0.961939 -0.195090
v -0.180240 -0.906127 -0.382683
v -0.162212 -0.815493 -0.555570
v -0.137950 -0.693520 -0.707107
v -0.108386 -0.544895 -0.831470
v -0.074658 -0.375330 -0.923880
v -0.038060 -0.191342 -0.980785
v -0.074658 -0.180240 0.980785
v -0.146447 -0.353553 0.923880
v -0.212608 -0.513280 0.831470
v -0.270598 -0.653281 0.707107
v -0.318190 -0.768177 0.555570
v -0.353553 -0.853553 0.382683
v -0.375330 -0.906127 0.195090
v -0.382683 -0.923879 0.000000
v -0.375330 -0.906127 -0.195090
v -0.353553 -0.853553 -0.382683
v -0.318190 -0.768177 -0.555570
v -0.270598 -0.653281 -0.707107
v -0.212608 -0.513280 -0.831470
v -0.146447 -0.353553 -0.923880
v -0.074658 -0.180240 -0.980785
v -0.108386 -0.162212 0.980785
v -0.212608 -0.318190 0.923880
v -0.308658 -0.461939 0.831470
v -0.392847 -0.587938 0.707107
v -0.461940 -0.691341 0.555570
v -0.513280 -0.768178 0.382683
v -0.544895 -0.815493 0.195090
v -0.555570 -0.831469 0.000000
v -0.544895 -0.815493 -0.195090
v -0.513280 -0.768178 -0.382683
v -0.461940 -0.691341 -0.555570
v -0.392847 -0.587938 -0.707107
v -0.308658 -0.461939 -0.831470
v -0.212608 -0.318190 -0.923880
v -0.108386 -0.162212 -0.980785
v -0.137950 -0.137950 0.980785
v -0.270598 -0.270598 0.923880
v -0.392847 -0.392847 0.831470
v -0.500000 -0.500000 0.707107
v -0.587938 -0.587937 0.555570
v -0.653281 -0.653281 0.382683
v -0.693520 -0.693520 0.195090
v -0.707106 -0.707106 0.000000
v -0.693520 -0.693520 -0.195090
v -0.653281 -0.653281 -0.382683
v -0.587938 -0.587937 -0.555570
v -0.500000 -0.500000 -0.707107
v -0.392847 -0.392847 -0.831470
v -0.270598 -0.270598 -0.923880
v -0.137950 -0.137950 -0.980785
v -0.162212 -0.108386 0.980785
v -0.318190 -0.212607 0.923880
v -0.461940 -0.308658 0.831470
v -0.587938 -0.392847 0.707107
v -0.691341 -0.461939 0.555570
v -0.768177 -0.513280 0.382683
v -0.815493 -0.544895 0.195090
v -0.831469 -0.555569 0.000000
v -0.815493 -0.544895 -0.195090
v -0.768177 -0.513280 -0.382683
v -0.691341 -0.461939 -0.555570
v -0.587938 -0.392847 -0.707107
v -0.461940 -0.308658 -0.831470
v -0.318190 -0.212607 -0.923880
v -0.162212 -0.108386 -0.980785
v -0.180240 -0.074658 0.980785
v -0.353553 -0.146447 0.923880
v -0.513280 -0.212607 0.831470
v -0.653281 -0.270598 0.707107
v -0.768177 -0.318189 0.555570
v -0.853553 -0.353553 0.382683
v -0.906127 -0.375330 0.195090
v -0.923879 -0.382683 0.000000
v -0.906127 -0.375330 -0.195090
v -0.853553 -0.353553 -0.382683
v -0.768177 -0.318189 -0.555570
v -0.653281 -0.270598 -0.707107
v -0.513280 -0.212607 -0.831470
v -0.353553 -0.146447 -0.923880
v -0.180240 -0.074658 -0.980785
v -0.191342 -0.038060 0.980785
v -0.375330 -0.074658 0.923880
v -0.544895 -0.108386 0.831470
v -0.693520 -0.137950 0.707107
v -0.815493 -0.162211 0.555570
v -0.906127 -0.180240 0.382683
v -0.961939 -0.191341 0.195090
v -0.980784 -0.195090 0.000000
v -0.961939 -0.191341 -0.195090
v -0.906127 -0.180240 -0.382683
v -0.815493 -0.162211 -0.555570
v -0.693520 -0.137950 -0.707107
v -0.544895 -0.108386 -0.831470
v -0.375330 -0.074658 -0.923880
v -0.191342 -0.038060 -0.980785
v -0.195090 0.000000 0.980785
v -0.382683 0.000000 0.923880
v -0.555570 0.000000 0.831470
v -0.707107 0.000000 0.707107
v -0.831469 0.000000 0.555570
v -0.923879 0.000000 0.382683
v -0.980785 0.000000 0.195090
v -0.999999 0.000000 0.000000
v -0.980785 0.000000 -0.195090
v -0.923879 0.000000 -0.382683
v -0.831469 0.000000 -0.555570
v -0.707107 0.000000 -0.707107
v -0.555570 0.000000 -0.831470
v -0.382683 0.000000 -0.923880
v -0.195090 0.000000 -0.980785
v -0.191342 0.038060 0.980785
v -0.375330 0.074658 0.923880
v -0.544895 0.108386 0.831470
v -0.693520 0.137950 0.707107
v -0.815493 0.162212 0.555570
v -0.906127 0.180240 0.382683
v -0.961939 0.191342 0.195090
v -0.980784 0.195091 0.000000
v -0.961939 0.191342 -0.195090
v -0.906127 0.180240 -0.382683
v -0.815493 0.162212 -0.555570
v -0.693520 0.137950 -0.707107
v -0.544895 0.108386 -0.831470
v -0.375330 0.074658 -0.923880
v -0.191342 0.038060 -0.980785
v -0.180240 0.074658 0.980785
v -0.353553 0.146447 0.923880
v -0.513279 0.212607 0.831470
v -0.653281 0.270598 0.707107
v -0.768177 0.318190 0.555570
v -0.853553 0.353553 0.382683
v -0.906127 0.375330 0.195090
v -0.923878 0.382683 0.000000
v -0.906127 0.375330 -0.195090
v -0.853553 0.353553 -0.382683
v -0.768177 0.318190 -0.555570
v -0.653281 0.270598 -0.707107
v -0.513279 0.212607 -0.831470
v -0.353553 0.146447 -0.923880
v -0.180240 0.074658 -0.980785
v -0.162212 0.108386 0.980785
v -0.318189 0.212607 0.923880
v -0.461939 0.308658 0.831470
v -0.587938 0.392847 0.707107
v -0.691341 0.461940 0.555570
v -0.768177 0.513280 0.382683
v -0.815493 0.544895 0.195090
v -0.831468 0.555570 0.000000
v -0.815493 0.544895 -0.195090
v -0.768177 0.513280 -0.382683
v -0.691341 0.461940 -0.555570
v -0.587938 0.392847 -0.707107
v -0.461939 0.308658 -0.831470
v -0.318189 0.212607 -0.923880
v -0.162212 0.108386 -0.980785
v -0.137950 0.137950 0.980785
v -0.270598 0.270598 0.923880
v -0.392847 0.392847 0.831470
v -0.500000 0.500000 0.707107
v -0.587937 0.587938 0.555570
v -0.653281 0.653281 0.382683
v -0.693519 0.693520 0.195090
v -0.707106 0.707106 0.000000
v -0.693519 0.693520 -0.195090
v -0.653281 0.653281 -0.382683
v -0.587937 0.587938 -0.555570
v -0.500000 0.500000 -0.707107
v -0.392847 0.392847 -0.831470
v -0.270598 0.270598 -0.923880
v -0.137950 0.137950 -0.980785
v -0.108386 0.162212 0.980785
v -0.212607 0.318190 0.923880
v -0.308658 0.461939 0.831470
v -0.392847 0.587938 0.707107
v -0.461939 0.691341 0.555570
v -0.513280 0.768177 0.382683
v -0.544895 0.815493 0.195090
v -0.555569 0.831469 0.000000
v -0.544895 0.815493 -0.195090
v -0.513280 0.768177 -0.382683
v -0.461939 0.691341 -0.555570
v -0.392847 0.587938 -0.707107
v -0.308658 0.461939 -0.831470
v -0.212607 0.318190 -0.923880
v -0.108386 0.162212 -0.980785
v -0.074658 0.180240 0.980785
v -0.146446 0.353553 0.923880
v -0.212607 0.513279 0.831470
v -0.270598 0.653281 0.707107
v -0.318189 0.768177 0.555570
v -0.353553 0.853553 0.382683
v -0.375330 0.906127 0.195090
v -0.382683 0.923879 0.000000
v -0.375330 0.906127 -0.195090
v -0.353553 0.853553 -0.382683
v -0.318189 0.768177 -0.555570
v -0.270598 0.653281 -0.707107
v -0.212607 0.513279 -0.831470
v -0.146446 0.353553 -0.923880
v -0.074658 0.180240 -0.980785
v -0.038060 0.191342 0.980785
v -0.074658 0.375330 0.923880
v -0.108386 0.544895 0.831470
v -0.137950 0.693520 0.707107
v -0.162211 0.815493 0.555570
v -0.180240 0.906127 0.382683
v -0.191341 0.961939 0.195090
v -0.195090 0.980784 0.000000
v -0.191341 0.961939 -0.195090
v -0.180240 0.906127 -0.382683
v -0.162211 0.815493 -0.555570
v -0.137950 0.693520 -0.707107
v -0.108386 0.544895 -0.831470
v -0.074658 0.375330 -0.923880
v -0.038060 0.191342 -0.980785
v 0.000000 0.195090 0.980785
v 0.000000 0.382683 0.923880
v 0.000000 0.707107 0.707107
v 0.000000 0.923879 0.382683
v 0.000000 0.923879 -0.382683
v 0.000000 0.707107 -0.707107
v 0.000000 0.555570 -0.831470
v 0.000000 0.382683 -0.923880
v 0.000000 0.195090 -0.980785
vn -0.0000 -0.0000 1.0000
vn -0.0000 0.5598 0.8286
vn -0.0000 0.8333 0.5528
vn -0.0000 0.9810 0.1939
vn -0.0000 1.0000 -0.0000
vn -0.0000 0.9810 -0.1939
vn -0.0000 0.8333 -0.5528
vn -0.0000 -0.0000 -1.0000
vn 0.0392 0.1971 0.9796
vn 0.0757 0.3804 0.9217
vn 0.1092 0.5490 0.8286
vn 0.1385 0.6965 0.7041
vn 0.1626 0.8173 0.5528
vn 0.1804 0.9070 0.3805
vn 0.1914 0.9622 0.1939
vn 0.1951 0.9808 -0.0000
vn 0.1914 0.9622 -0.1939
vn 0.1804 0.9070 -0.3805
vn 0.1626 0.8173 -0.5528
vn 0.1385 0.6965 -0.7041
vn 0.1092 0.5490 -0.8286
vn 0.0757 0.3804 -0.9217
vn 0.0392 0.1971 -0.9796
vn 0.0769 0.1857 0.9796
vn 0.1484 0.3584 0.9217
vn 0.2142 0.5172 0.8286
vn 0.2718 0.6561 0.7041
vn 0.3189 0.7699 0.5528
vn 0.3539 0.8544 0.3805
vn 0.3754 0.9063 0.1939
vn 0.3827 0.9239 -0.0000
vn 0.3754 0.9063 -0.1939
vn 0.3539 0.8544 -0.3805
vn 0.3189 0.7699 -0.5528
vn 0.2718 0.6561 -0.7041
vn 0.2142 0.5172 -0.8286
vn 0.1484 0.3584 -0.9217
vn 0.0769 0.1857 -0.9796
vn 0.1117 0.1671 0.9796
vn 0.2155 0.3225 0.9217
vn 0.3110 0.4654 0.8286
vn 0.3945 0.5905 0.7041
vn 0.4630 0.6929 0.5528
vn 0.5138 0.7689 0.3805
vn 0.5450 0.8157 0.1939
vn 0.5556 0.8315 -0.0000
vn 0.5450 0.8157 -0.1939
vn 0.5138 0.7689 -0.3805
vn 0.4630 0.6929 -0.5528
vn 0.3945 0.5905 -0.7041
vn 0.3110 0.4654 -0.8286
vn 0.2155 0.3225 -0.9217
vn 0.1117 0.1671 -0.9796
vn 0.1421 0.1421 0.9796
vn 0.2743 0.2743 0.9217
vn 0.3958 0.3958 0.8286
vn 0.5021 0.5021 0.7041
vn 0.5893 0.5893 0.5528
vn 0.6539 0.6539 0.3805
vn 0.6937 0.6937 0.1939
vn 0.7071 0.7071 -0.0000
vn 0.6937 0.6937 -0.1939
vn 0.6539 0.6539 -0.3805
vn 0.5893 0.5893 -0.5528
vn 0.5021 0.5021 -0.7041
vn 0.3958 0.3958 -0.8286
vn 0.2743 0.2743 -0.9217
vn 0.1421 0.1421 -0.9796
vn 0.1671 0.1117 0.9796
vn 0.3225 0.2155 0.9217
vn 0.4654 0.3110 0.8286
vn 0.5905 0.3945 0.7041
vn 0.6929 0.4630 0.5528
vn 0.7689 0.5138 0.3805
vn 0.8157 0.5450 0.1939
vn 0.8315 0.5556 -0.0000
vn 0.8157 0.5450 -0.1939
vn 0.7689 0.5138 -0.3805
vn 0.6929 0.4630 -0.5528
vn 0.5905 0.3945 -0.7041
vn 0.4654 0.3110 -0.8286
vn 0.3225 0.2155 -0.9217
vn 0.1671 0.1117 -0.9796
vn 0.1857 0.0769 0.9796
vn 0.3584 0.1484 0.9217
vn 0.5172 0.2142 0.8286
vn 0.6561 0.2718 0.7041
vn 0.7699 0.3189 0.5528
vn 0.8544 0.3539 0.3805
vn 0.9063 0.3754 0.1939
vn 0.9239 0.3827 -0.0000
vn 0.9063 0.3754 -0.1939
vn 0.8544 0.3539 -0.3805
vn 0.7699 0.3189 -0.5528
vn 0.6561 0.2718 -0.7041
vn 0.5172 0.2142 -0.8286
vn 0.3584 0.1484 -0.9217
vn 0.1857 0.0769 -0.9796
vn 0.1971 0.0392 0.9796
vn 0.3804 0.0757 0.9217
vn 0.5490 0.1092 0.8286
vn 0.6965 0.1385 0.7041
vn 0.8173 0.1626 0.5528
vn 0.9070 0.1804 0.3805
vn 0.9622 0.1914 0.1939
vn 0.9808 0.1951 -0.0000
vn 0.9622 0.1914 -0.1939
vn 0.9070 0.1804 -0.3805
vn 0.8173 0.1626 -0.5528
vn 0.6965 0.1385 -0.7041
vn 0.5490 0.1092 -0.8286
vn 0.3804 0.0757 -0.9217
vn 0.1971 0.0392 -0.9796
vn 0.2010 -0.0000 0.9796
vn 0.3879 -0.0000 0.9217
vn 0.5598 -0.0000 0.8286
vn 0.7101 -0.0000 0.7041
vn 0.8333 -0.0000 0.5528
vn 0.9248 -0.0000 0.3805
vn 0.9810 -0.0000 0.1939
vn 1.0000 -0.0000 -0.0000
vn 0.9810 -0.0000 -0.1939
vn 0.9248 -0.0000 -0.3805
vn 0.8333 -0.0000 -0.5528
vn 0.7101 -0.0000 -0.7041
vn 0.5598 -0.0000 -0.8286
vn 0.3879 -0.0000 -0.9217
vn 0.2010 -0.0000 -0.9796
vn 0.1971 -0.0392 0.9796
vn 0.3804 -0.0757 0.9217
vn 0.5490 -0.1092 0.8286
vn 0.6965 -0.1385 0.7041
vn 0.8173 -0.1626 0.5528
vn 0.9070 -0.1804 0.3805
vn 0.9622 -0.1914 0.1939
vn 0.9808 -0.1951 -0.0000
vn 0.9622 -0.1914 -0.1939
vn 0.9070 -0.1804 -0.3805
vn 0.8173 -0.1626 -0.5528
vn 0.6965 -0.1385 -0.7041
vn 0.5490 -0.1092 -0.8286
vn 0.3804 -0.0757 -0.9217
vn 0.1971 -0.0392 -0.9796
vn 0.1857 -0.0769 0.9796
vn 0.3584 -0.1484 0.9217
vn 0.5172 -0.2142 0.8286
vn 0.6561 -0.2718 0.7041
vn 0.7699 -0.3189 0.5528
vn 0.8544 -0.3539 0.3805
vn 0.9063 -0.3754 0.1939
vn 0.9239 -0.3827 -0.0000
vn 0.9063 -0.3754 -0.1939
vn 0.8544 -0.3539 -0.3805
vn 0.7699 -0.3189 -0.5528
vn 0.6561 -0.2718 -0.7041
vn 0.5172 -0.2142 -0.8286
vn 0.3584 -0.1484 -0.9217
vn 0.1857 -0.0769 -0.9796
vn 0.1671 -0.1117 0.9796
vn 0.3225 -0.2155 0.9217
vn 0.4654 -0.3110 0.8286
vn 0.5905 -0.3945 0.7041
vn 0.6929 -0.4630 0.5528
vn 0.7689 -0.5138 0.3805
vn 0.8157 -0.5450 0.1939
vn 0.8315 -0.5556 -0.0000
vn 0.8157 -0.5450 -0.1939
vn 0.7689 -0.5138 -0.3805
vn 0.6929 -0.4630 -0.5528
vn 0.5905 -0.3945 -0.7041
vn 0.4654 -0.3110 -0.8286
vn 0.3225 -0.2155 -0.9217
vn 0.1671 -0.1117 -0.9796
vn 0.1421 -0.1421 0.9796
vn 0.2743 -0.2743 0.9217
vn 0.3958 -0.3958 0.8286
vn 0.5021 -0.5021 0.7041
vn 0.5893 -0.5893 0.5528
vn 0.6539 -0.6539 0.3805
vn 0.6937 -0.6937 0.1939
vn 0.7071 -0.7071 -0.0000
vn 0.6937 -0.6937 -0.1939
vn 0.6539 -0.6539 -0.3805
vn 0.5893 -0.5893 -0.5528
vn 0.5021 -0.5021 -0.7041
vn 0.3958 -0.3958 -0.8286
vn 0.2743 -0.2743 -0.9217
vn 0.1421 -0.1421 -0.9796
vn 0.1117 -0.1671 0.9796
vn 0.2155 -0.3225 0.9217
vn 0.3110 -0.4654 0.8286
vn 0.3945 -0.5905 0.7041
vn 0.4630 -0.6929 0.5528
vn 0.5138 -0.7689 0.3805
vn 0.5450 -0.8157 0.1939
vn 0.5556 -0.8315 -0.0000
vn 0.5450 -0.8157 -0.1939
vn 0.5138 -0.7689 -0.3805
vn 0.4630 -0.6929 -0.5528
vn 0.3945 -0.5905 -0.7041
vn 0.3110 -0.4654 -0.8286
vn 0.2155 -0.3225 -0.9217
vn 0.1117 -0.1671 -0.9796
vn 0.0769 -0.1857 0.9796
vn 0.1484 -0.3584 0.9217
vn 0.2142 -0.5172 0.8286
vn 0.2718 -0.6561 0.7041
vn 0.3189 -0.7699 0.5528
vn 0.3539 -0.8544 0.3805
vn 0.3754 -0.9063 0.1939
vn 0.3827 -0.9239 -0.0000
vn 0.3754 -0.9063 -0.1939
vn 0.3539 -0.8544 -0.3805
vn 0.3189 -0.7699 -0.5528
vn 0.2718 -0.6561 -0.7041
vn 0.2142 -0.5172 -0.8286
vn 0.1484 -0.3584 -0.9217
vn 0.0769 -0.1857 -0.9796
vn 0.0392 -0.1971 0.9796
vn 0.0757 -0.3804 0.9217
vn 0.1092 -0.5490 0.8286
vn 0.1385 -0.6965 0.7041
vn 0.1626 -0.8173 0.5528
vn 0.1804 -0.9070 0.3805
vn 0.1914 -0.9622 0.1939
vn 0.1951 -0.9808 -0.0000
vn 0.1914 -0.9622 -0.1939
vn 0.1804 -0.9070 -0.3805
vn 0.1626 -0.8173 -0.5528
vn 0.1385 -0.6965 -0.7041
vn 0.1092 -0.5490 -0.8286
vn 0.0757 -0.3804 -0.9217
vn 0.0392 -0.1971 -0.9796
vn -0.0000 -0.2010 0.9796
vn -0.0000 -0.3879 0.9217
vn -0.0000 -0.5598 0.8286
vn -0.0000 -0.7101 0.7041
vn -0.0000 -0.8333 0.5528
vn -0.0000 -0.9248 0.3805
vn -0.0000 -0.9810 0.1939
vn -0.0000 -1.0000 -0.0000
vn -0.0000 -0.9810 -0.1939
vn -0.0000 -0.9248 -0.3805
vn -0.0000 -0.8333 -0.5528
vn -0.0000 -0.7101 -0.7041
vn -0.0000 -0.5598 -0.8286
vn -0.0000 -0.3879 -0.9217
vn -0.0000 -0.2010 -0.9796
vn -0.0392 -0.1971 0.9796
vn -0.0757 -0.3804 0.9217
vn -0.1092 -0.5490 0.8286
vn -0.1385 -0.6965 0.7041
vn -0.1626 -0.8173 0.5528
vn -0.1804 -0.9070 0.3805
vn -0.1914 -0.9622 0.1939
vn -0.1951 -0.9808 -0.0000
vn -0.1914 -0.9622 -0.1939
vn -0.1804 -0.9070 -0.3805
vn -0.1626 -0.8173 -0.5528
vn -0.1385 -0.6965 -0.7041
vn -0.1092 -0.5490 -0.8286
vn -0.0757 -0.3804 -0.9217
vn -0.0392 -0.1971 -0.9796
vn -0.0769 -0.1857 0.9796
vn -0.1484 -0.3584 0.9217
vn -0.2142 -0.5172 0.8286
vn -0.2718 -0.6561 0.7041
vn -0.3189 -0.7699 0.5528
vn -0.3539 -0.8544 0.3805
vn -0.3754 -0.9063 0.1939
vn -0.3827 -0.9239 -0.0000
vn -0.3754 -0.9063 -0.1939
vn -0.3539 -0.8544 -0.3805
vn -0.3189 -0.7699 -0.5528
vn -0.2718 -0.6561 -0.7041
vn -0.2142 -0.5172 -0.8286
vn -0.1484 -0.3584 -0.9217
vn -0.0769 -0.1857 -0.9796
vn -0.1117 -0.1671 0.9796
vn -0.2155 -0.3225 0.9217
vn -0.3110 -0.4654 0.8286
vn -0.3945 -0.5905 0.7041
vn -0.4630 -0.6929 0.5528
vn -0.5138 -0.7689 0.3805
vn -0.5450 -0.8157 0.1939
vn -0.5556 -0.8315 -0.0000
vn -0.5450 -0.8157 -0.1939
vn -0.5138 -0.7689 -0.3805
vn -0.4630 -0.6929 -0.5528
vn -0.3945 -0.5905 -0.7041
vn -0.3110 -0.4654 -0.8286
vn -0.2155 -0.3225 -0.9217
vn -0.1117 -0.1671 -0.9796
vn -0.1421 -0.1421 0.9796
vn -0.2743 -0.2743 0.9217
vn -0.3958 -0.3958 0.8286
vn -0.5021 -0.5021 0.7041
vn -0.5893 -0.5893 0.5528
vn -0.6539 -0.6539 0.3805
vn -0.6937 -0.6937 0.1939
vn -0.7071 -0.7071 -0.0000
vn -0.6937 -0.6937 -0.1939
vn -0.6539 -0.6539 -0.3805
vn -0.5893 -0.5893 -0.5528
vn -0.5021 -0.5021 -0.7041
vn -0.3958 -0.3958 -0.8286
vn -0.2743 -0.2743 -0.9217
vn -0.1421 -0.1421 -0.9796
vn -0.1671 -0.1117 0.9796
vn -0.3225 -0.2155 0.9217
vn -0.4654 -0.3110 0.8286
vn -0.5905 -0.3945 0.7041
vn -0.6929 -0.4630 0.5528
vn -0.7689 -0.5138 0.3805
vn -0.8157 -0.5450 0.1939
vn -0.8315 -0.5556 -0.0000
vn -0.8157 -0.5450 -0.1939
vn -0.7689 -0.5138 -0.3805
vn -0.6929 -0.4630 -0.5528
vn -0.5905 -0.3945 -0.7041
vn -0.4654 -0.3110 -0.8286
vn -0.3225 -0.2155 -0.9217
vn -0.1671 -0.1117 -0.9796
vn -0.1857 -0.0769 0.9796
vn -0.3584 -0.1484 0.9217
vn -0.5172 -0.2142 0.8286
vn -0.6561 -0.2718 0.7041
vn -0.7699 -0.3189 0.5528
vn -0.8544 -0.3539 0.3805
vn -0.9063 -0.3754 0.1939
vn -0.9239 -0.3827 -0.0000
vn -0.9063 -0.3754 -0.1939
vn -0.8544 -0.3539 -0.3805
vn -0.7699 -0.3189 -0.5528
vn -0.6561 -0.2718 -0.7041
vn -0.5172 -0.2142 -0.8286
vn -0.3584 -0.1484 -0.9217
vn -0.1857 -0.0769 -0.9796
vn -0.1971 -0.0392 0.9796
vn -0.3804 -0.0757 0.9217
vn -0.5490 -0.1092 0.8286
vn -0.6965 -0.1385 0.7041
vn -0.8173 -0.1626 0.5528
vn -0.9070 -0.1804 0.3805
vn -0.9622 -0.1914 0.1939
vn -0.9808 -0.1951 -0.0000
vn -0.9622 -0.1914 -0.1939
vn -0.9070 -0.1804 -0.3805
vn -0.8173 -0.1626 -0.5528
vn -0.6965 -0.1385 -0.7041
vn -0.5490 -0.1092 -0.8286
vn -0.3804 -0.0757 -0.9217
vn -0.1971 -0.0392 -0.9796
vn -0.2010 -0.0000 0.9796
vn -0.3879 -0.0000 0.9217
vn -0.5598 -0.0000 0.8286
vn -0.7101 -0.0000 0.7041
vn -0.8333 -0.0000 0.5528
vn -0.9248 -0.0000 0.3805
vn -0.9810 -0.0000 0.1939
vn -1.0000 -0.0000 -0.0000
vn -0.9810 -0.0000 -0.1939
vn -0.9248 -0.0000 -0.3805
vn -0.8333 -0.0000 -0.5528
vn -0.7101 -0.0000 -0.7041
vn -0.5598 -0.0000 -0.8286
vn -0.3879 -0.0000 -0.9217
vn -0.2010 -0.0000 -0.9796
vn -0.1971 0.0392 0.9796
vn -0.3804 0.0757 0.9217
vn -0.5490 0.1092 0.8286
vn -0.6965 0.1385 0.7041
vn -0.8173 0.1626 0.5528
vn -0.9070 0.1804 0.3805
vn -0.9622 0.1914 0.1939
vn -0.9808 0.1951 -0.0000
vn -0.9622 0.1914 -0.1939
vn -0.9070 0.1804 -0.3805
vn -0.8173 0.1626 -0.5528
vn -0.6965 0.1385 -0.7041
vn -0.5490 0.1092 -0.8286
vn -0.3804 0.0757 -0.9217
vn -0.1971 0.0392 -0.9796
vn -0.1857 0.0769 0.9796
vn -0.3584 0.1484 0.9217
vn -0.5172 0.2142 0.8286
vn -0.6561 0.2718 0.7041
vn -0.7699 0.3189 0.5528
vn -0.8544 0.3539 0.3805
vn -0.9063 0.3754 0.1939
vn -0.9239 0.3827 -0.0000
vn -0.9063 0.3754 -0.1939
vn -0.8544 0.3539 -0.3805
vn -0.7699 0.3189 -0.5528
vn -0.6561 0.2718 -0.7041
vn -0.5172 0.2142 -0.8286
vn -0.3584 0.1484 -0.9217
vn -0.1857 0.0769 -0.9796
vn -0.1671 0.1117 0.9796
vn -0.3225 0.2155 0.9217
vn -0.4654 0.3110 0.8286
vn -0.5905 0.3945 0.7041
vn -0.6929 0.4630 0.5528
vn -0.7689 0.5138 0.3805
vn -0.8157 0.5450 0.1939
vn -0.8315 0.5556 -0.0000
vn -0.8157 0.5450 -0.1939
vn -0.7689 0.5138 -0.3805
vn -0.6929 0.4630 -0.5528
vn -0.5905 0.3945 -0.7041
vn -0.4654 0.3110 -0.8286
vn -0.3225 0.2155 -0.9217
vn -0.1671 0.1117 -0.9796
vn -0.1421 0.1421 0.9796
vn -0.2743 0.2743 0.9217
vn -0.3958 0.3958 0.8286
vn -0.5021 0.5021 0.7041
vn -0.5893 0.5893 0.5528
vn -0.6539 0.6539 0.3805
vn -0.6937 0.6937 0.1939
vn -0.7071 0.7071 -0.0000
vn -0.6937 0.6937 -0.1939
vn -0.6539 0.6539 -0.3805
vn -0.5893 0.5893 -0.5528
vn -0.5021 0.5021 -0.7041
vn -0.3958 0.3958 -0.8286
vn -0.2743 0.2743 -0.9217
vn -0.1421 0.1421 -0.9796
vn -0.1117 0.1671 0.9796
vn -0.2155 0.3225 0.9217
vn -0.3110 0.4654 0.8286
vn -0.3945 0.5905 0.7041
vn -0.4630 0.6929 0.5528
vn -0.5138 0.7689 0.3805
vn -0.5450 0.8157 0.1939
vn -0.5556 0.8315 -0.0000
vn -0.5450 0.8157 -0.1939
vn -0.5138 0.7689 -0.3805
vn -0.4630 0.6929 -0.5528
vn -0.3945 0.5905 -0.7041
vn -0.3110 0.4654 -0.8286
vn -0.2155 0.3225 -0.9217
vn -0.1117 0.1671 -0.9796
vn -0.0769 0.1857 0.9796
vn -0.1484 0.3584 0.9217
vn -0.2142 0.5172 0.8286
vn -0.2718 0.6561 0.7041
vn -0.3189 0.7699 0.5528
vn -0.3539 0.8544 0.3805
vn -0.3754 0.9063 0.1939
vn -0.3827 0.9239 -0.0000
vn -0.3754 0.9063 -0.1939
vn -0.3539 0.8544 -0.3805
vn -0.3189 0.7699 -0.5528
vn -0.2718 0.6561 -0.7041
vn -0.2142 0.5172 -0.8286
vn -0.1484 0.3584 -0.9217
vn -0.0769 0.1857 -0.9796
vn -0.0392 0.1971 0.9796
vn -0.0757 0.3804 0.9217
vn -0.1092 0.5490 0.8286
vn -0.1385 0.6965 0.7041
vn -0.1626 0.8173 0.5528
vn -0.1804 0.9070 0.3805
vn -0.1914 0.9622 0.1939
vn -0.1951 0.9808 -0.0000
vn -0.1914 0.9622 -0.1939
vn -0.1804 0.9070 -0.3805
vn -0.1626 0.8173 -0.5528
vn -0.1385 0.6965 -0.7041
vn -0.1092 0.5490 -0.8286
vn -0.0757 0.3804 -0.9217
vn -0.0392 0.1971 -0.9796
vn -0.0000 0.2010 0.9796
vn -0.0000 0.3879 0.9217
vn -0.0000 0.7101 0.7041
vn -0.0000 0.9248 0.3805
vn -0.0000 0.9248 -0.3805
vn -0.0000 0.7101 -0.7041
vn -0.0000 0.5598 -0.8286
vn -0.0000 0.3879 -0.9217
vn -0.0000 0.2010 -0.9796
vt 0.517390 0.559852
vt 0.478379 0.578672
vt 0.475060 0.570976
vt 0.461073 0.197280
vt 0.460705 0.152834
vt 0.504308 0.152834
vt 0.503838 0.197280
vt 0.098483 0.597225
vt 0.103239 0.555161
vt 0.111524 0.556015
vt 0.114737 0.598900
vt 0.463939 0.240914
vt 0.504222 0.240914
vt 0.096606 0.636249
vt 0.120203 0.638681
vt 0.469192 0.282060
vt 0.505446 0.282060
vt 0.097680 0.670734
vt 0.127712 0.673829
vt 0.476631 0.319136
vt 0.507463 0.319136
vt 0.474248 0.031474
vt 0.483066 0.000201
vt 0.513898 0.000201
vt 0.510503 0.031474
vt 0.485969 0.350719
vt 0.510194 0.350719
vt 0.467422 0.068307
vt 0.507705 0.068307
vt 0.440867 0.594346
vt 0.406296 0.606272
vt 0.396846 0.584357
vt 0.434358 0.579250
vt 0.462848 0.109286
vt 0.505614 0.109286
vt 0.110689 0.511675
vt 0.431039 0.563225
vt 0.473369 0.562806
vt 0.549199 0.110165
vt 0.548747 0.153731
vt 0.119824 0.555170
vt 0.547423 0.198159
vt 0.131018 0.597242
vt 0.545279 0.241742
vt 0.143839 0.636273
vt 0.542396 0.282805
vt 0.157796 0.670765
vt 0.538886 0.319771
vt 0.545322 0.000835
vt 0.547453 0.032220
vt 0.534883 0.351217
vt 0.548762 0.069136
vt 0.392028 0.561092
vt 0.166608 0.629119
vt 0.186774 0.661660
vt 0.578621 0.284268
vt 0.569693 0.321014
vt 0.576128 0.002079
vt 0.583678 0.033682
vt 0.357835 0.556489
vt 0.357835 0.526298
vt 0.392028 0.537371
vt 0.589013 0.070761
vt 0.431039 0.546885
vt 0.591929 0.111890
vt 0.473369 0.554477
vt 0.592314 0.155490
vt 0.127820 0.552658
vt 0.590154 0.199884
vt 0.146701 0.592314
vt 0.585530 0.243367
vt 0.632163 0.114395
vt 0.633336 0.158044
vt 0.135203 0.548576
vt 0.475060 0.546307
vt 0.630387 0.202389
vt 0.161184 0.584306
vt 0.623429 0.245727
vt 0.187633 0.617494
vt 0.612729 0.286391
vt 0.213535 0.646864
vt 0.598699 0.322820
vt 0.206427 0.688685
vt 0.237894 0.671286
vt 0.363966 0.496687
vt 0.396846 0.514106
vt 0.617786 0.035805
vt 0.626912 0.073120
vt 0.434358 0.530860
vt 0.643410 0.289094
vt 0.624791 0.325118
vt 0.237049 0.626945
vt 0.265543 0.647864
vt 0.375994 0.468794
vt 0.406296 0.492190
vt 0.648467 0.038508
vt 0.661003 0.076123
vt 0.440867 0.515765
vt 0.668353 0.117583
vt 0.478379 0.538611
vt 0.670235 0.161294
vt 0.141690 0.543080
vt 0.666577 0.205577
vt 0.173909 0.573526
vt 0.657519 0.248729
vt 0.206108 0.601844
vt 0.483196 0.531685
vt 0.701594 0.165116
vt 0.697334 0.209325
vt 0.147033 0.536382
vt 0.184389 0.560388
vt 0.686491 0.252260
vt 0.221322 0.582771
vt 0.669484 0.292272
vt 0.256413 0.602669
vt 0.351126 0.446476
vt 0.371658 0.416958
vt 0.393455 0.443691
vt 0.288312 0.619319
vt 0.420015 0.472467
vt 0.290495 0.663798
vt 0.315795 0.632080
vt 0.450317 0.502179
vt 0.689974 0.079654
vt 0.699109 0.121331
vt 0.415679 0.422343
vt 0.437476 0.455694
vt 0.305326 0.586747
vt 0.334700 0.595888
vt 0.462345 0.490625
vt 0.814980 0.315454
vt 0.771937 0.305049
vt 0.775172 0.276043
vt 0.818415 0.284661
vt 0.489328 0.525795
vt 0.859230 0.319264
vt 0.862733 0.287868
vt 0.151025 0.528740
vt 0.902988 0.316333
vt 0.906423 0.285540
vt 0.192220 0.545397
vt 0.944570 0.306774
vt 0.947805 0.277768
vt 0.232690 0.561007
vt 0.355461 0.393293
vt 0.384499 0.365400
vt 0.397791 0.391854
vt 0.270882 0.574969
vt 0.153513 0.520446
vt 0.197100 0.529129
vt 0.909242 0.249319
vt 0.950461 0.243649
vt 0.239776 0.537389
vt 0.985291 0.264849
vt 0.987681 0.234143
vt 0.279900 0.544909
vt 0.428520 0.372131
vt 0.441812 0.405569
vt 0.315931 0.551400
vt 0.458009 0.442515
vt 0.734666 0.262345
vt 0.737056 0.231639
vt 0.777828 0.241924
vt 0.476488 0.481548
vt 0.821234 0.248440
vt 0.496538 0.521168
vt 0.865607 0.250937
vt 0.738832 0.197511
vt 0.779801 0.204003
vt 0.480823 0.433437
vt 0.492202 0.475295
vt 0.823329 0.208183
vt 0.504549 0.517980
vt 0.867743 0.209892
vt 0.154402 0.511821
vt 0.911336 0.209062
vt 0.198844 0.512209
vt 0.952434 0.205727
vt 0.242307 0.512825
vt 0.989456 0.200015
vt 0.283122 0.513645
vt 0.462664 0.358546
vt 0.470849 0.394016
vt 0.319719 0.514638
vt 0.912626 0.166317
vt 0.953649 0.165462
vt 0.197383 0.495287
vt 0.240187 0.488259
vt 0.990550 0.163777
vt 0.280423 0.482378
vt 0.498911 0.351620
vt 0.501675 0.388126
vt 0.701997 0.188957
vt 0.702927 0.158139
vt 0.739926 0.161273
vt 0.505043 0.428809
vt 0.781016 0.163737
vt 0.508885 0.472107
vt 0.824619 0.165437
vt 0.513054 0.516355
vt 0.869058 0.166308
vt 0.153657 0.503194
vt 0.529737 0.428809
vt 0.525895 0.472107
vt 0.781426 0.122674
vt 0.825054 0.121845
vt 0.521726 0.516355
vt 0.869502 0.121862
vt 0.151308 0.494898
vt 0.913062 0.122725
vt 0.192774 0.479014
vt 0.954059 0.124399
vt 0.233495 0.464634
vt 0.990919 0.126821
vt 0.271906 0.452310
vt 0.535869 0.351620
vt 0.533105 0.388126
vt 0.703241 0.126711
vt 0.740295 0.124317
vt 0.185194 0.464015
vt 0.222491 0.442859
vt 0.953649 0.084117
vt 0.990550 0.090569
vt 0.257900 0.424595
vt 0.572116 0.358546
vt 0.563930 0.394016
vt 0.702927 0.095880
vt 0.739926 0.088064
vt 0.553957 0.433437
vt 0.781016 0.082392
vt 0.542577 0.475295
vt 0.824619 0.079082
vt 0.530230 0.517980
vt 0.869058 0.078262
vt 0.147443 0.487252
vt 0.912626 0.079962
vt 0.779801 0.044439
vt 0.823329 0.038792
vt 0.558292 0.481548
vt 0.538242 0.521168
vt 0.867743 0.037182
vt 0.142213 0.480549
vt 0.911336 0.039671
vt 0.174934 0.450867
vt 0.952434 0.046164
vt 0.207595 0.423770
vt 0.989456 0.056412
vt 0.238942 0.400300
vt 0.606260 0.372131
vt 0.592968 0.405569
vt 0.701997 0.066833
vt 0.738832 0.053908
vt 0.576771 0.442515
vt 0.950461 0.011999
vt 0.987681 0.025664
vt 0.189382 0.408102
vt 0.215761 0.380357
vt 0.636989 0.391854
vt 0.619100 0.422343
vt 0.267769 0.381358
vt 0.240511 0.357908
vt 0.597303 0.455694
vt 0.737056 0.023159
vt 0.777828 0.010274
vt 0.572435 0.490625
vt 0.821234 0.002522
vt 0.545452 0.525795
vt 0.865607 0.000201
vt 0.135817 0.475047
vt 0.909242 0.003401
vt 0.162389 0.440074
vt 0.584463 0.502179
vt 0.551583 0.531685
vt 0.684056 0.545682
vt 0.686820 0.501335
vt 0.723067 0.503792
vt 0.721014 0.548187
vt 0.128502 0.470957
vt 0.686820 0.589347
vt 0.723067 0.591804
vt 0.148040 0.432052
vt 0.695005 0.630650
vt 0.729150 0.632964
vt 0.168551 0.396455
vt 0.708298 0.668004
vt 0.739027 0.670087
vt 0.189248 0.365534
vt 0.663122 0.416958
vt 0.641324 0.443691
vt 0.708298 0.417367
vt 0.726186 0.380974
vt 0.752319 0.382746
vt 0.739027 0.419450
vt 0.614765 0.472467
vt 0.695005 0.458008
vt 0.729150 0.460322
vt 0.683654 0.446476
vt 0.658786 0.468794
vt 0.781356 0.383966
vt 0.773171 0.420885
vt 0.628484 0.492190
vt 0.767088 0.461917
vt 0.593913 0.515765
vt 0.763343 0.505484
vt 0.556401 0.538611
vt 0.762078 0.549913
vt 0.120549 0.468437
vt 0.763343 0.593496
vt 0.132439 0.427108
vt 0.767088 0.634558
vt 0.145902 0.389278
vt 0.773171 0.671522
vt 0.160421 0.356400
vt 0.112263 0.467583
vt 0.559719 0.546307
vt 0.805673 0.550793
vt 0.806100 0.594359
vt 0.116186 0.425433
vt 0.807364 0.635371
vt 0.122306 0.386847
vt 0.809418 0.672253
vt 0.130389 0.353305
vt 0.781356 0.702966
vt 0.812182 0.703588
vt 0.812182 0.384588
vt 0.809418 0.421616
vt 0.670813 0.496687
vt 0.637934 0.514106
vt 0.807364 0.462729
vt 0.600422 0.530860
vt 0.806100 0.506347
vt 0.843611 0.384588
vt 0.846375 0.421616
vt 0.676945 0.526298
vt 0.642752 0.537371
vt 0.848429 0.462729
vt 0.603741 0.546885
vt 0.849694 0.506347
vt 0.561411 0.554477
vt 0.850121 0.550793
vt 0.103963 0.468428
vt 0.849694 0.594359
vt 0.099904 0.427092
vt 0.848429 0.635371
vt 0.098670 0.389254
vt 0.846375 0.672253
vt 0.815550 0.353067
vt 0.840244 0.353067
vt 0.843611 0.703588
vt 0.893715 0.549913
vt 0.892450 0.593496
vt 0.095968 0.470940
vt 0.084221 0.432019
vt 0.888705 0.634558
vt 0.075901 0.396408
vt 0.882622 0.671522
vt 0.864463 0.352578
vt 0.874437 0.383966
vt 0.874437 0.702966
vt 0.882622 0.420885
vt 0.676945 0.556489
vt 0.642752 0.561092
vt 0.888705 0.461917
vt 0.603741 0.563225
vt 0.892450 0.505484
vt 0.561411 0.562806
vt 0.670813 0.586100
vt 0.637934 0.584357
vt 0.916767 0.419450
vt 0.926644 0.460322
vt 0.600422 0.579250
vt 0.932726 0.503792
vt 0.559719 0.570976
vt 0.934780 0.548187
vt 0.088585 0.475023
vt 0.932726 0.591804
vt 0.069738 0.440027
vt 0.926644 0.632964
vt 0.054875 0.408033
vt 0.916767 0.670087
vt 0.887278 0.351620
vt 0.903474 0.382746
vt 0.903474 0.701746
vt 0.082097 0.480518
vt 0.057013 0.450807
vt 0.968973 0.589347
vt 0.960788 0.630650
vt 0.036401 0.423683
vt 0.947496 0.668004
vt 0.044566 0.380271
vt 0.021052 0.400189
vt 0.929607 0.699975
vt 0.929607 0.380974
vt 0.947496 0.417367
vt 0.658786 0.613993
vt 0.628484 0.606272
vt 0.960788 0.458008
vt 0.593913 0.594346
vt 0.968973 0.501335
vt 0.556401 0.578672
vt 0.971737 0.545682
vt 0.973628 0.414716
vt 0.989825 0.455062
vt 0.614765 0.625996
vt 0.584463 0.607931
vt 0.999799 0.498207
vt 0.551583 0.585598
vt 0.000201 0.193410
vt 0.003126 0.149093
vt 0.033982 0.151912
vt 0.031661 0.196285
vt 0.076755 0.487216
vt 0.004006 0.237100
vt 0.034861 0.239919
vt 0.046533 0.463945
vt 0.999799 0.586219
vt 0.989825 0.627704
vt 0.021187 0.442757
vt 0.973628 0.665353
vt 0.001689 0.424465
vt 0.683654 0.617212
vt 0.663122 0.646730
vt 0.641325 0.639096
vt 0.951831 0.378720
vt 0.043459 0.281138
vt 0.071131 0.242014
vt 0.077624 0.283112
vt 0.038703 0.478936
vt 0.009818 0.464521
vt 0.057123 0.318358
vt 0.087872 0.320134
vt 0.072143 0.031164
vt 0.093632 0.000201
vt 0.114177 0.001388
vt 0.098292 0.032674
vt 0.075330 0.350148
vt 0.101479 0.351658
vt 0.054619 0.067734
vt 0.085367 0.069510
vt 0.619100 0.660445
vt 0.597303 0.642769
vt 0.041734 0.108505
vt 0.075899 0.110479
vt 0.572435 0.619485
vt 0.070252 0.154006
vt 0.545452 0.591488
vt 0.068642 0.198420
vt 0.072763 0.494858
vt 0.576771 0.655948
vt 0.558292 0.628563
vt 0.113852 0.111694
vt 0.110542 0.155296
vt 0.538242 0.596115
vt 0.109722 0.199736
vt 0.070274 0.503152
vt 0.111422 0.243304
vt 0.033822 0.495204
vt 0.115577 0.284327
vt 0.002732 0.488138
vt 0.122028 0.321228
vt 0.137000 0.002118
vt 0.127340 0.033604
vt 0.130527 0.352588
vt 0.119524 0.070603
vt 0.592968 0.677218
vt 0.155859 0.284737
vt 0.158281 0.321597
vt 0.161223 0.002365
vt 0.158171 0.033918
vt 0.161358 0.352903
vt 0.155777 0.070972
vt 0.563930 0.688772
vt 0.553957 0.665025
vt 0.154134 0.112104
vt 0.542577 0.634816
vt 0.153305 0.155732
vt 0.530230 0.599303
vt 0.153322 0.200180
vt 0.069386 0.511778
vt 0.154185 0.243739
vt 0.032078 0.512124
vt 0.000201 0.512702
vt 0.525895 0.638003
vt 0.521726 0.600928
vt 0.196897 0.155296
vt 0.197768 0.199736
vt 0.070130 0.520404
vt 0.197776 0.243304
vt 0.033539 0.529046
vt 0.196922 0.284327
vt 0.002322 0.537269
vt 0.195237 0.321228
vt 0.185916 0.002118
vt 0.189599 0.033604
vt 0.192786 0.352588
vt 0.192732 0.070603
vt 0.533105 0.694662
vt 0.529737 0.669653
vt 0.195197 0.111694
vt 0.210130 0.001388
vt 0.220417 0.032674
vt 0.231475 0.320134
vt 0.223604 0.351658
vt 0.228970 0.069510
vt 0.501675 0.694662
vt 0.505043 0.669653
vt 0.235462 0.110479
vt 0.508885 0.638003
vt 0.239643 0.154006
vt 0.513054 0.600928
vt 0.241351 0.198420
vt 0.072480 0.528700
vt 0.240522 0.242014
vt 0.038148 0.545319
vt 0.237187 0.283112
vt 0.009013 0.560893
vt 0.279900 0.151912
vt 0.282397 0.196285
vt 0.076344 0.536346
vt 0.504549 0.599303
vt 0.280779 0.239919
vt 0.045728 0.560318
vt 0.275108 0.281138
vt 0.020018 0.582668
vt 0.265603 0.318358
vt 0.232933 0.000201
vt 0.249440 0.031164
vt 0.252627 0.350148
vt 0.263098 0.067734
vt 0.470849 0.688772
vt 0.480823 0.665025
vt 0.273383 0.108505
vt 0.492202 0.634816
vt 0.296309 0.315968
vt 0.278741 0.348116
vt 0.275554 0.029132
vt 0.293805 0.065344
vt 0.441812 0.677218
vt 0.458009 0.655948
vt 0.307503 0.105850
vt 0.476488 0.628563
vt 0.316121 0.149093
vt 0.496538 0.596115
vt 0.319327 0.193410
vt 0.081575 0.543049
vt 0.317000 0.237100
vt 0.055988 0.573466
vt 0.309228 0.278483
vt 0.034913 0.601757
vt 0.000201 0.602539
vt 0.019159 0.626834
vt 0.087970 0.548551
vt 0.489328 0.591488
vt 0.353599 0.202389
vt 0.351126 0.158044
vt 0.382613 0.155490
vt 0.384482 0.199884
vt 0.068534 0.584259
vt 0.362701 0.245727
vt 0.391791 0.243367
vt 0.053126 0.617426
vt 0.378080 0.286391
vt 0.404261 0.284268
vt 0.042340 0.646777
vt 0.399146 0.322820
vt 0.421411 0.321014
vt 0.297754 0.026655
vt 0.319910 0.062432
vt 0.415679 0.660445
vt 0.437477 0.642769
vt 0.336509 0.102614
vt 0.462345 0.619485
vt 0.346913 0.145658
vt 0.350723 0.189908
vt 0.409318 0.033682
vt 0.427847 0.002079
vt 0.454010 0.000835
vt 0.440082 0.032220
vt 0.393455 0.639096
vt 0.420015 0.625996
vt 0.395274 0.070761
vt 0.429458 0.069136
vt 0.450317 0.607931
vt 0.386257 0.111890
vt 0.422547 0.110165
vt 0.483196 0.585598
vt 0.419614 0.153731
vt 0.095285 0.552641
vt 0.420771 0.198159
vt 0.082883 0.592282
vt 0.425975 0.241742
vt 0.073958 0.629072
vt 0.435026 0.282805
vt 0.068853 0.661600
vt 0.447575 0.319771
vt 0.463140 0.351217
s 1
usemtl Top
f 475/8/475 474/9/474 9/10/9 10/11/10
f 2/14/2 475/8/475 10/11/10 11/15/11
f 476/18/476 2/14/2 11/15/11 12/19/12
f 3/22/3 476/23/476 12/24/12 13/25/13
f 477/28/477 3/22/3 13/25/13 14/29/14
f 4/34/4 477/28/477 14/29/14 15/35/15
f 5/5/5 4/34/4 15/35/15 16/6/16
f 474/9/474 1/36/1 9/10/9
f 16/6/16 15/35/15 30/39/30 31/40/31
f 9/10/9 1/36/1 24/41/24
f 10/11/10 9/10/9 24/41/24 25/43/25
f 11/15/11 10/11/10 25/43/25 26/45/26
f 12/19/12 11/15/11 26/45/26 27/47/27
f 13/25/13 12/24/12 27/49/27 28/50/28
f 14/29/14 13/25/13 28/50/28 29/52/29
f 15/35/15 14/29/14 29/52/29 30/39/30
f 27/47/27 26/45/26 41/54/41 42/55/42
f 28/50/28 27/49/27 42/58/42 43/59/43
f 29/52/29 28/50/28 43/59/43 44/63/44
f 30/39/30 29/52/29 44/63/44 45/65/45
f 31/40/31 30/39/30 45/65/45 46/67/46
f 24/41/24 1/36/1 39/68/39
f 25/43/25 24/41/24 39/68/39 40/70/40
f 26/45/26 25/43/25 40/70/40 41/54/41
f 46/67/46 45/65/45 60/72/60 61/73/61
f 39/68/39 1/36/1 54/74/54
f 40/70/40 39/68/39 54/74/54 55/77/55
f 41/54/41 40/70/40 55/77/55 56/79/56
f 42/55/42 41/54/41 56/79/56 57/81/57
f 43/83/43 42/55/42 57/81/57 58/84/58
f 44/63/44 43/59/43 58/87/58 59/88/59
f 45/65/45 44/63/44 59/88/59 60/72/60
f 58/84/58 57/81/57 72/92/72 73/93/73
f 59/88/59 58/87/58 73/96/73 74/97/74
f 60/72/60 59/88/59 74/97/74 75/99/75
f 61/73/61 60/72/60 75/99/75 76/101/76
f 54/74/54 1/36/1 69/102/69
f 55/77/55 54/74/54 69/102/69 70/104/70
f 56/79/56 55/77/55 70/104/70 71/106/71
f 57/81/57 56/79/56 71/106/71 72/92/72
f 70/104/70 69/102/69 84/110/84 85/111/85
f 71/106/71 70/104/70 85/111/85 86/113/86
f 72/92/72 71/106/71 86/113/86 87/115/87
f 73/93/73 72/92/72 87/115/87 88/119/88
f 74/121/74 73/93/73 88/119/88 89/122/89
f 75/99/75 74/97/74 89/124/89 90/125/90
f 76/101/76 75/99/75 90/125/90 91/108/91
f 69/102/69 1/36/1 84/110/84
f 89/122/89 88/119/88 103/128/103 104/129/104
f 90/131/90 89/132/89 104/133/104 105/134/105
f 91/136/91 90/131/90 105/134/105 106/137/106
f 84/110/84 1/36/1 99/138/99
f 85/111/85 84/110/84 99/138/99 100/141/100
f 86/113/86 85/111/85 100/141/100 101/144/101
f 87/115/87 86/113/86 101/144/101 102/148/102
f 88/119/88 87/115/87 102/148/102 103/128/103
f 100/141/100 99/138/99 114/149/114 115/150/115
f 101/144/101 100/141/100 115/150/115 116/153/116
f 102/148/102 101/144/101 116/153/116 117/156/117
f 103/128/103 102/148/102 117/156/117 118/159/118
f 104/133/104 103/161/103 118/162/118 119/163/119
f 105/134/105 104/133/104 119/163/119 120/165/120
f 106/137/106 105/134/105 120/165/120 121/167/121
f 99/138/99 1/36/1 114/149/114
f 119/163/119 118/162/118 133/168/133 134/169/134
f 120/165/120 119/163/119 134/169/134 135/172/135
f 121/167/121 120/165/120 135/172/135 136/174/136
f 114/149/114 1/36/1 129/175/129
f 115/150/115 114/149/114 129/175/129 130/177/130
f 116/153/116 115/150/115 130/177/130 131/179/131
f 117/156/117 116/153/116 131/179/131 132/181/132
f 118/159/118 117/156/117 132/181/132 133/184/133
f 131/179/131 130/177/130 145/187/145 146/188/146
f 132/181/132 131/179/131 146/188/146 147/190/147
f 133/168/133 132/193/132 147/194/147 148/195/148
f 134/169/134 133/168/133 148/195/148 149/197/149
f 135/172/135 134/169/134 149/197/149 150/199/150
f 136/174/136 135/172/135 150/199/150 151/201/151
f 129/175/129 1/36/1 144/202/144
f 130/177/130 129/175/129 144/202/144 145/187/145
f 150/199/150 149/197/149 164/205/164 165/206/165
f 151/201/151 150/199/150 165/206/165 166/208/166
f 144/202/144 1/36/1 159/209/159
f 145/187/145 144/202/144 159/209/159 160/211/160
f 146/188/146 145/187/145 160/211/160 161/213/161
f 147/190/147 146/188/146 161/213/161 162/215/162
f 148/195/148 147/194/147 162/218/162 163/219/163
f 149/197/149 148/195/148 163/219/163 164/205/164
f 161/213/161 160/211/160 175/220/175 176/221/176
f 162/215/162 161/213/161 176/221/176 177/224/177
f 163/219/163 162/218/162 177/227/177 178/228/178
f 164/205/164 163/219/163 178/228/178 179/230/179
f 165/206/165 164/205/164 179/230/179 180/232/180
f 166/208/166 165/206/165 180/232/180 181/234/181
f 159/209/159 1/36/1 174/235/174
f 160/211/160 159/209/159 174/235/174 175/220/175
f 180/232/180 179/230/179 194/237/194 195/238/195
f 181/234/181 180/232/180 195/238/195 196/241/196
f 174/235/174 1/36/1 189/242/189
f 175/220/175 174/235/174 189/242/189 190/244/190
f 176/221/176 175/220/175 190/244/190 191/246/191
f 177/224/177 176/221/176 191/246/191 192/248/192
f 178/228/178 177/227/177 192/251/192 193/252/193
f 179/230/179 178/228/178 193/252/193 194/237/194
f 192/248/192 191/246/191 206/256/206 207/257/207
f 193/260/193 192/248/192 207/257/207 208/261/208
f 194/237/194 193/252/193 208/263/208 209/264/209
f 195/238/195 194/237/194 209/264/209 210/266/210
f 196/241/196 195/238/195 210/266/210 211/268/211
f 189/242/189 1/36/1 204/269/204
f 190/244/190 189/242/189 204/269/204 205/271/205
f 191/246/191 190/244/190 205/271/205 206/256/206
f 211/274/211 210/275/210 225/276/225 226/277/226
f 204/269/204 1/36/1 219/278/219
f 205/271/205 204/269/204 219/278/219 220/281/220
f 206/256/206 205/271/205 220/281/220 221/284/221
f 207/257/207 206/256/206 221/284/221 222/287/222
f 208/290/208 207/291/207 222/292/222 223/293/223
f 209/295/209 208/290/208 223/293/223 224/296/224
f 210/275/210 209/295/209 224/296/224 225/276/225
f 223/293/223 222/292/222 237/299/237 238/300/238
f 224/296/224 223/293/223 238/300/238 239/302/239
f 225/276/225 224/296/224 239/302/239 240/304/240
f 226/277/226 225/276/225 240/304/240 241/306/241
f 219/278/219 1/36/1 234/307/234
f 220/281/220 219/278/219 234/307/234 235/309/235
f 221/284/221 220/281/220 235/309/235 236/311/236
f 222/287/222 221/284/221 236/311/236 237/313/237
f 234/307/234 1/36/1 249/314/249
f 235/309/235 234/307/234 249/314/249 250/318/250
f 236/311/236 235/309/235 250/318/250 251/320/251
f 237/313/237 236/311/236 251/320/251 252/322/252
f 238/300/238 237/299/237 252/325/252 253/326/253
f 239/302/239 238/300/238 253/326/253 254/329/254
f 240/304/240 239/302/239 254/329/254 255/331/255
f 241/306/241 240/304/240 255/331/255 256/316/256
f 253/326/253 252/325/252 267/332/267 268/333/268
f 254/329/254 253/326/253 268/333/268 269/336/269
f 255/331/255 254/329/254 269/336/269 270/338/270
f 256/316/256 255/331/255 270/338/270 271/340/271
f 249/314/249 1/36/1 264/341/264
f 250/318/250 249/314/249 264/341/264 265/343/265
f 251/320/251 250/318/250 265/343/265 266/345/266
f 252/325/252 251/347/251 266/348/266 267/332/267
f 265/343/265 264/341/264 279/352/279 280/353/280
f 266/345/266 265/343/265 280/353/280 281/355/281
f 267/332/267 266/348/266 281/357/281 282/358/282
f 268/333/268 267/332/267 282/358/282 283/360/283
f 269/336/269 268/333/268 283/360/283 284/363/284
f 270/338/270 269/336/269 284/363/284 285/365/285
f 271/340/271 270/338/270 285/365/285 286/350/286
f 264/341/264 1/36/1 279/352/279
f 284/363/284 283/360/283 298/369/298 299/370/299
f 285/365/285 284/363/284 299/370/299 300/372/300
f 286/350/286 285/365/285 300/372/300 301/374/301
f 279/352/279 1/36/1 294/375/294
f 280/353/280 279/352/279 294/375/294 295/377/295
f 281/355/281 280/353/280 295/377/295 296/379/296
f 282/358/282 281/357/281 296/381/296 297/382/297
f 283/360/283 282/358/282 297/382/297 298/369/298
f 295/377/295 294/375/294 309/384/309 310/385/310
f 296/379/296 295/377/295 310/385/310 311/388/311
f 297/390/297 296/379/296 311/388/311 312/391/312
f 298/369/298 297/382/297 312/393/312 313/394/313
f 299/370/299 298/369/298 313/394/313 314/397/314
f 300/372/300 299/370/299 314/397/314 315/399/315
f 301/374/301 300/372/300 315/399/315 316/401/316
f 294/375/294 1/36/1 309/384/309
f 314/397/314 313/394/313 328/402/328 329/403/329
f 315/399/315 314/397/314 329/403/329 330/406/330
f 316/408/316 315/409/315 330/410/330 331/411/331
f 309/384/309 1/36/1 324/412/324
f 310/385/310 309/384/309 324/412/324 325/415/325
f 311/388/311 310/385/310 325/415/325 326/418/326
f 312/391/312 311/388/311 326/418/326 327/420/327
f 313/394/313 312/393/312 327/424/327 328/402/328
f 326/418/326 325/415/325 340/428/340 341/429/341
f 327/432/327 326/433/326 341/434/341 342/435/342
f 328/438/328 327/432/327 342/435/342 343/439/343
f 329/442/329 328/438/328 343/439/343 344/443/344
f 330/410/330 329/442/329 344/443/344 345/445/345
f 331/411/331 330/410/330 345/445/345 346/447/346
f 324/412/324 1/36/1 339/448/339
f 325/415/325 324/412/324 339/448/339 340/428/340
f 345/445/345 344/443/344 359/451/359 360/452/360
f 346/447/346 345/445/345 360/452/360 361/454/361
f 339/448/339 1/36/1 354/455/354
f 340/428/340 339/448/339 354/455/354 355/457/355
f 341/429/341 340/428/340 355/457/355 356/459/356
f 342/435/342 341/434/341 356/461/356 357/462/357
f 343/439/343 342/435/342 357/462/357 358/464/358
f 344/443/344 343/439/343 358/464/358 359/451/359
f 357/462/357 356/461/356 371/468/371 372/469/372
f 358/464/358 357/462/357 372/469/372 373/471/373
f 359/451/359 358/464/358 373/471/373 374/474/374
f 360/452/360 359/451/359 374/474/374 375/476/375
f 361/454/361 360/452/360 375/476/375 376/478/376
f 354/455/354 1/36/1 369/479/369
f 355/457/355 354/455/354 369/479/369 370/481/370
f 356/459/356 355/457/355 370/481/370 371/482/371
f 376/478/376 375/476/375 390/485/390 391/486/391
f 369/479/369 1/36/1 384/487/384
f 370/481/370 369/479/369 384/487/384 385/489/385
f 371/482/371 370/481/370 385/489/385 386/491/386
f 372/469/372 371/468/371 386/493/386 387/494/387
f 373/471/373 372/469/372 387/494/387 388/496/388
f 374/474/374 373/471/373 388/496/388 389/499/389
f 375/476/375 374/474/374 389/499/389 390/485/390
f 387/494/387 386/493/386 401/500/401 402/501/402
f 388/496/388 387/494/387 402/501/402 403/504/403
f 389/499/389 388/496/388 403/504/403 404/507/404
f 390/485/390 389/499/389 404/507/404 405/509/405
f 391/486/391 390/485/390 405/509/405 406/511/406
f 384/487/384 1/36/1 399/512/399
f 385/489/385 384/487/384 399/512/399 400/514/400
f 386/491/386 385/489/385 400/514/400 401/516/401
f 406/511/406 405/509/405 420/517/420 421/518/421
f 399/512/399 1/36/1 414/519/414
f 400/514/400 399/512/399 414/519/414 415/522/415
f 401/516/401 400/514/400 415/522/415 416/524/416
f 402/501/402 401/500/401 416/526/416 417/527/417
f 403/504/403 402/501/402 417/527/417 418/529/418
f 404/507/404 403/504/403 418/529/418 419/532/419
f 405/509/405 404/507/404 419/532/419 420/517/420
f 418/529/418 417/527/417 432/536/432 433/537/433
f 419/532/419 418/529/418 433/537/433 434/540/434
f 420/517/420 419/532/419 434/540/434 435/542/435
f 421/518/421 420/517/420 435/542/435 436/544/436
f 414/519/414 1/36/1 429/545/429
f 415/522/415 414/519/414 429/545/429 430/547/430
f 416/524/416 415/522/415 430/547/430 431/549/431
f 417/550/417 416/524/416 431/549/431 432/551/432
f 429/545/429 1/36/1 444/552/444
f 430/547/430 429/545/429 444/552/444 445/558/445
f 431/549/431 430/547/430 445/558/445 446/561/446
f 432/551/432 431/549/431 446/561/446 447/564/447
f 433/537/433 432/536/432 447/567/447 448/568/448
f 434/540/434 433/537/433 448/568/448 449/571/449
f 435/542/435 434/540/434 449/571/449 450/573/450
f 436/544/436 435/542/435 450/573/450 451/574/451
f 448/575/448 447/576/447 462/577/462 463/578/463
f 449/581/449 448/575/448 463/578/463 464/582/464
f 450/584/450 449/581/449 464/582/464 465/585/465
f 451/556/451 450/584/450 465/585/465 466/587/466
f 444/552/444 1/36/1 459/588/459
f 445/558/445 444/552/444 459/588/459 460/590/460
f 446/561/446 445/558/445 460/590/460 461/592/461
f 447/564/447 446/561/446 461/592/461 462/594/462
f 460/590/460 459/588/459 474/9/474 475/8/475
f 461/592/461 460/590/460 475/8/475 2/14/2
f 462/594/462 461/592/461 2/14/2 476/18/476
f 463/578/463 462/577/462 476/23/476 3/22/3
f 464/582/464 463/578/463 3/22/3 477/28/477
f 465/585/465 464/582/464 477/28/477 4/34/4
f 466/587/466 465/585/465 4/34/4 5/5/5
f 459/588/459 1/36/1 474/9/474
usemtl Bottom
f 8/1/8 482/2/482 23/3/23
f 6/4/6 5/5/5 16/6/16 17/7/17
f 478/12/478 6/4/6 17/7/17 18/13/18
f 7/16/7 478/12/478 18/13/18 19/17/19
f 479/20/479 7/16/7 19/17/19 20/21/20
f 480/26/480 479/20/479 20/21/20 21/27/21
f 481/30/481 480/31/480 21/32/21 22/33/22
f 482/2/482 481/30/481 22/33/22 23/3/23
f 23/3/23 22/33/22 37/37/37 38/38/38
f 8/1/8 23/3/23 38/38/38
f 17/7/17 16/6/16 31/40/31 32/42/32
f 18/13/18 17/7/17 32/42/32 33/44/33
f 19/17/19 18/13/18 33/44/33 34/46/34
f 20/21/20 19/17/19 34/46/34 35/48/35
f 21/27/21 20/21/20 35/48/35 36/51/36
f 22/33/22 21/32/21 36/53/36 37/37/37
f 35/48/35 34/46/34 49/56/49 50/57/50
f 36/53/36 35/60/35 50/61/50 51/62/51
f 37/37/37 36/53/36 51/62/51 52/64/52
f 38/38/38 37/37/37 52/64/52 53/66/53
f 8/1/8 38/38/38 53/66/53
f 32/42/32 31/40/31 46/67/46 47/69/47
f 33/44/33 32/42/32 47/69/47 48/71/48
f 34/46/34 33/44/33 48/71/48 49/56/49
f 8/1/8 53/66/53 68/75/68
f 47/69/47 46/67/46 61/73/61 62/76/62
f 48/71/48 47/69/47 62/76/62 63/78/63
f 49/56/49 48/71/48 63/78/63 64/80/64
f 50/57/50 49/56/49 64/80/64 65/82/65
f 51/62/51 50/61/50 65/85/65 66/86/66
f 52/64/52 51/62/51 66/86/66 67/89/67
f 53/66/53 52/64/52 67/89/67 68/75/68
f 65/82/65 64/80/64 79/90/79 80/91/80
f 66/86/66 65/85/65 80/94/80 81/95/81
f 67/89/67 66/86/66 81/95/81 82/98/82
f 68/75/68 67/89/67 82/98/82 83/100/83
f 8/1/8 68/75/68 83/100/83
f 62/76/62 61/73/61 76/101/76 77/103/77
f 63/78/63 62/76/62 77/103/77 78/105/78
f 64/80/64 63/78/63 78/105/78 79/90/79
f 8/1/8 83/100/83 98/107/98
f 77/103/77 76/101/76 91/108/91 92/109/92
f 78/105/78 77/103/77 92/109/92 93/112/93
f 79/90/79 78/105/78 93/112/93 94/114/94
f 80/94/80 79/116/79 94/117/94 95/118/95
f 81/95/81 80/94/80 95/118/95 96/120/96
f 82/98/82 81/95/81 96/120/96 97/123/97
f 83/100/83 82/98/82 97/123/97 98/107/98
f 96/120/96 95/118/95 110/126/110 111/127/111
f 97/123/97 96/120/96 111/127/111 112/130/112
f 98/107/98 97/123/97 112/130/112 113/135/113
f 8/1/8 98/107/98 113/135/113
f 92/139/92 91/136/91 106/137/106 107/140/107
f 93/142/93 92/139/92 107/140/107 108/143/108
f 94/117/94 93/145/93 108/146/108 109/147/109
f 95/118/95 94/117/94 109/147/109 110/126/110
f 108/143/108 107/140/107 122/151/122 123/152/123
f 109/154/109 108/143/108 123/152/123 124/155/124
f 110/126/110 109/147/109 124/157/124 125/158/125
f 111/127/111 110/126/110 125/158/125 126/160/126
f 112/130/112 111/127/111 126/160/126 127/164/127
f 113/135/113 112/130/112 127/164/127 128/166/128
f 8/1/8 113/135/113 128/166/128
f 107/140/107 106/137/106 121/167/121 122/151/122
f 127/164/127 126/160/126 141/170/141 142/171/142
f 128/166/128 127/164/127 142/171/142 143/173/143
f 8/1/8 128/166/128 143/173/143
f 122/151/122 121/167/121 136/174/136 137/176/137
f 123/152/123 122/151/122 137/176/137 138/178/138
f 124/155/124 123/152/123 138/178/138 139/180/139
f 125/158/125 124/157/124 139/182/139 140/183/140
f 126/160/126 125/158/125 140/183/140 141/170/141
f 138/178/138 137/176/137 152/185/152 153/186/153
f 139/180/139 138/178/138 153/186/153 154/189/154
f 140/183/140 139/182/139 154/191/154 155/192/155
f 141/170/141 140/183/140 155/192/155 156/196/156
f 142/171/142 141/170/141 156/196/156 157/198/157
f 143/173/143 142/171/142 157/198/157 158/200/158
f 8/1/8 143/173/143 158/200/158
f 137/176/137 136/174/136 151/201/151 152/185/152
f 157/198/157 156/196/156 171/203/171 172/204/172
f 158/200/158 157/198/157 172/204/172 173/207/173
f 8/1/8 158/200/158 173/207/173
f 152/185/152 151/201/151 166/208/166 167/210/167
f 153/186/153 152/185/152 167/210/167 168/212/168
f 154/189/154 153/186/153 168/212/168 169/214/169
f 155/192/155 154/191/154 169/216/169 170/217/170
f 156/196/156 155/192/155 170/217/170 171/203/171
f 169/214/169 168/212/168 183/222/183 184/223/184
f 170/217/170 169/216/169 184/225/184 185/226/185
f 171/203/171 170/217/170 185/226/185 186/229/186
f 172/204/172 171/203/171 186/229/186 187/231/187
f 173/207/173 172/204/172 187/231/187 188/233/188
f 8/1/8 173/207/173 188/233/188
f 167/210/167 166/208/166 181/234/181 182/236/182
f 168/212/168 167/210/167 182/236/182 183/222/183
f 188/233/188 187/231/187 202/239/202 203/240/203
f 8/1/8 188/233/188 203/240/203
f 182/236/182 181/234/181 196/241/196 197/243/197
f 183/222/183 182/236/182 197/243/197 198/245/198
f 184/223/184 183/222/183 198/245/198 199/247/199
f 185/226/185 184/225/184 199/249/199 200/250/200
f 186/229/186 185/226/185 200/250/200 201/253/201
f 187/231/187 186/229/186 201/253/201 202/239/202
f 199/247/199 198/245/198 213/254/213 214/255/214
f 200/250/200 199/249/199 214/258/214 215/259/215
f 201/253/201 200/250/200 215/259/215 216/262/216
f 202/239/202 201/253/201 216/262/216 217/265/217
f 203/240/203 202/239/202 217/265/217 218/267/218
f 8/1/8 203/240/203 218/267/218
f 197/243/197 196/241/196 211/268/211 212/270/212
f 198/245/198 197/243/197 212/270/212 213/254/213
f 218/267/218 217/265/217 232/272/232 233/273/233
f 8/1/8 218/267/218 233/273/233
f 212/279/212 211/274/211 226/277/226 227/280/227
f 213/282/213 212/279/212 227/280/227 228/283/228
f 214/285/214 213/282/213 228/283/228 229/286/229
f 215/259/215 214/258/214 229/288/229 230/289/230
f 216/262/216 215/259/215 230/289/230 231/294/231
f 217/265/217 216/262/216 231/294/231 232/272/232
f 230/289/230 229/288/229 244/297/244 245/298/245
f 231/294/231 230/289/230 245/298/245 246/301/246
f 232/272/232 231/294/231 246/301/246 247/303/247
f 233/273/233 232/272/232 247/303/247 248/305/248
f 8/1/8 233/273/233 248/305/248
f 227/280/227 226/277/226 241/306/241 242/308/242
f 228/283/228 227/280/227 242/308/242 243/310/243
f 229/286/229 228/283/228 243/310/243 244/312/244
f 8/1/8 248/305/248 263/315/263
f 242/308/242 241/306/241 256/316/256 257/317/257
f 243/310/243 242/308/242 257/317/257 258/319/258
f 244/312/244 243/310/243 258/319/258 259/321/259
f 245/323/245 244/312/244 259/321/259 260/324/260
f 246/301/246 245/298/245 260/327/260 261/328/261
f 247/303/247 246/301/246 261/328/261 262/330/262
f 248/305/248 247/303/247 262/330/262 263/315/263
f 261/328/261 260/327/260 275/334/275 276/335/276
f 262/330/262 261/328/261 276/335/276 277/337/277
f 263/315/263 262/330/262 277/337/277 278/339/278
f 8/1/8 263/315/263 278/339/278
f 257/317/257 256/316/256 271/340/271 272/342/272
f 258/319/258 257/317/257 272/342/272 273/344/273
f 259/321/259 258/319/258 273/344/273 274/346/274
f 260/324/260 259/321/259 274/346/274 275/349/275
f 272/342/272 271/340/271 286/350/286 287/351/287
f 273/344/273 272/342/272 287/351/287 288/354/288
f 274/346/274 273/344/273 288/354/288 289/356/289
f 275/349/275 274/346/274 289/356/289 290/359/290
f 276/335/276 275/334/275 290/361/290 291/362/291
f 277/337/277 276/335/276 291/362/291 292/364/292
f 278/339/278 277/337/277 292/364/292 293/366/293
f 8/1/8 278/339/278 293/366/293
f 291/362/291 290/361/290 305/367/305 306/368/306
f 292/364/292 291/362/291 306/368/306 307/371/307
f 293/366/293 292/364/292 307/371/307 308/373/308
f 8/1/8 293/366/293 308/373/308
f 287/351/287 286/350/286 301/374/301 302/376/302
f 288/354/288 287/351/287 302/376/302 303/378/303
f 289/356/289 288/354/288 303/378/303 304/380/304
f 290/359/290 289/356/289 304/380/304 305/383/305
f 303/378/303 302/376/302 317/386/317 318/387/318
f 304/380/304 303/378/303 318/387/318 319/389/319
f 305/383/305 304/380/304 319/389/319 320/392/320
f 306/368/306 305/367/305 320/395/320 321/396/321
f 307/371/307 306/368/306 321/396/321 322/398/322
f 308/373/308 307/371/307 322/398/322 323/400/323
f 8/1/8 308/373/308 323/400/323
f 302/376/302 301/374/301 316/401/316 317/386/317
f 322/398/322 321/396/321 336/404/336 337/405/337
f 323/400/323 322/398/322 337/405/337 338/407/338
f 8/1/8 323/400/323 338/407/338
f 317/413/317 316/408/316 331/411/331 332/414/332
f 318/387/318 317/386/317 332/416/332 333/417/333
f 319/389/319 318/387/318 333/417/333 334/419/334
f 320/395/320 319/421/319 334/422/334 335/423/335
f 321/396/321 320/395/320 335/423/335 336/404/336
f 333/425/333 332/414/332 347/426/347 348/427/348
f 334/430/334 333/425/333 348/427/348 349/431/349
f 335/436/335 334/430/334 349/431/349 350/437/350
f 336/404/336 335/423/335 350/440/350 351/441/351
f 337/405/337 336/404/336 351/441/351 352/444/352
f 338/407/338 337/405/337 352/444/352 353/446/353
f 8/1/8 338/407/338 353/446/353
f 332/414/332 331/411/331 346/447/346 347/426/347
f 352/444/352 351/441/351 366/449/366 367/450/367
f 353/446/353 352/444/352 367/450/367 368/453/368
f 8/1/8 353/446/353 368/453/368
f 347/426/347 346/447/346 361/454/361 362/456/362
f 348/427/348 347/426/347 362/456/362 363/458/363
f 349/431/349 348/427/348 363/458/363 364/460/364
f 350/437/350 349/431/349 364/460/364 365/463/365
f 351/441/351 350/440/350 365/465/365 366/449/366
f 364/460/364 363/458/363 378/466/378 379/467/379
f 365/463/365 364/460/364 379/467/379 380/470/380
f 366/449/366 365/465/365 380/472/380 381/473/381
f 367/450/367 366/449/366 381/473/381 382/475/382
f 368/453/368 367/450/367 382/475/382 383/477/383
f 8/1/8 368/453/368 383/477/383
f 362/456/362 361/454/361 376/478/376 377/480/377
f 363/458/363 362/456/362 377/480/377 378/466/378
f 383/477/383 382/475/382 397/483/397 398/484/398
f 8/1/8 383/477/383 398/484/398
f 377/480/377 376/478/376 391/486/391 392/488/392
f 378/466/378 377/480/377 392/488/392 393/490/393
f 379/467/379 378/466/378 393/490/393 394/492/394
f 380/470/380 379/467/379 394/492/394 395/495/395
f 381/473/381 380/472/380 395/497/395 396/498/396
f 382/475/382 381/473/381 396/498/396 397/483/397
f 395/495/395 394/492/394 409/502/409 410/503/410
f 396/498/396 395/497/395 410/505/410 411/506/411
f 397/483/397 396/498/396 411/506/411 412/508/412
f 398/484/398 397/483/397 412/508/412 413/510/413
f 8/1/8 398/484/398 413/510/413
f 392/488/392 391/486/391 406/511/406 407/513/407
f 393/490/393 392/488/392 407/513/407 408/515/408
f 394/492/394 393/490/393 408/515/408 409/502/409
f 8/1/8 413/510/413 428/520/428
f 407/513/407 406/511/406 421/518/421 422/521/422
f 408/515/408 407/513/407 422/521/422 423/523/423
f 409/502/409 408/515/408 423/523/423 424/525/424
f 410/503/410 409/502/409 424/525/424 425/528/425
f 411/506/411 410/505/410 425/530/425 426/531/426
f 412/508/412 411/506/411 426/531/426 427/533/427
f 413/510/413 412/508/412 427/533/427 428/520/428
f 425/528/425 424/525/424 439/534/439 440/535/440
f 426/531/426 425/530/425 440/538/440 441/539/441
f 427/533/427 426/531/426 441/539/441 442/541/442
f 428/520/428 427/533/427 442/541/442 443/543/443
f 8/1/8 428/520/428 443/543/443
f 422/521/422 421/518/421 436/544/436 437/546/437
f 423/523/423 422/521/422 437/546/437 438/548/438
f 424/525/424 423/523/423 438/548/438 439/534/439
f 8/1/8 443/543/443 458/553/458
f 437/554/437 436/555/436 451/556/451 452/557/452
f 438/559/438 437/554/437 452/557/452 453/560/453
f 439/562/439 438/559/438 453/560/453 454/563/454
f 440/565/440 439/562/439 454/563/454 455/566/455
f 441/539/441 440/538/440 455/569/455 456/570/456
f 442/541/442 441/539/441 456/570/456 457/572/457
f 443/543/443 442/541/442 457/572/457 458/553/458
f 456/570/456 455/569/455 470/579/470 471/580/471
f 457/572/457 456/570/456 471/580/471 472/583/472
f 458/553/458 457/572/457 472/583/472 473/586/473
f 8/1/8 458/553/458 473/586/473
f 452/557/452 451/556/451 466/587/466 467/589/467
f 453/560/453 452/557/452 467/589/467 468/591/468
f 454/563/454 453/560/453 468/591/468 469/593/469
f 455/566/455 454/563/454 469/593/469 470/595/470
f 467/589/467 466/587/466 5/5/5 6/4/6
f 468/591/468 467/589/467 6/4/6 478/12/478
f 469/593/469 468/591/468 478/12/478 7/16/7
f 470/595/470 469/593/469 7/16/7 479/20/479
f 471/596/471 470/595/470 479/20/479 480/26/480
f 472/583/472 471/580/471 480/31/480 481/30/481
f 473/586/473 472/583/472 481/30/481 482/2/482
f 8/1/8 473/586/473 482/2/482
