# Blender 5.1.2
# www.blender.org
o Banana
v -0.085072 -0.248682 -0.673046
v -0.057488 -0.119463 0.797595
v -0.164414 -0.201290 -0.665472
v -0.127657 -0.035399 0.800046
v -0.057944 -0.192325 -0.741503
v 0.023522 -0.052758 0.828964
v -0.137285 -0.144933 -0.733929
v -0.046646 0.031306 0.831415
v -0.124743 -0.224986 -0.669259
v -0.092572 -0.077431 0.798820
v -0.097614 -0.168629 -0.737716
v -0.011562 -0.010726 0.830190
v 0.056033 -0.094606 0.000000
v -0.174045 0.135471 0.000000
v 0.056033 0.365548 0.000000
v 0.286110 0.135471 0.000000
v 0.171071 0.250510 0.000000
v -0.059006 0.020432 0.000000
v -0.150850 -0.173112 -0.699701
v -0.087151 -0.002047 0.815731
v -0.071508 -0.220504 -0.707274
v -0.016983 -0.086110 0.813280
v -0.059009 -0.050814 0.846754
v -0.111179 -0.196808 -0.703488
v 0.171071 0.020432 0.000000
v -0.059006 0.250510 0.000000
v -0.048095 -0.110350 0.753957
v -0.118263 -0.026286 0.756408
v -0.037253 0.040419 0.787777
v 0.032916 -0.043645 0.785326
v -0.002169 -0.001613 0.786552
v -0.083179 -0.068318 0.755183
v -0.007590 -0.076997 0.769642
v -0.077758 0.007066 0.772093
v -0.179293 -0.011734 -0.368907
v -0.048144 0.156035 -0.537190
v 0.179293 0.011734 -0.503798
v 0.065575 0.083884 -0.520494
v -0.065575 -0.083884 -0.352212
v 0.048144 -0.156035 -0.335516
v -0.113719 0.072150 -0.453049
v 0.113719 -0.072150 -0.419657
v -0.125373 0.077016 0.352703
v 0.075249 0.246750 0.420575
v 0.251486 0.040396 0.415690
v 0.163367 0.143573 0.418133
v -0.037254 -0.026161 0.350261
v 0.151175 -0.044471 0.381755
v -0.025062 0.161883 0.386639
v 0.050864 -0.129339 0.347819
vn -0.7396 -0.6090 -0.2864
vn -0.6406 0.7675 0.0224
vn 0.7396 0.6090 0.2864
vn 0.6406 -0.7675 -0.0224
vn -0.4270 -0.6078 -0.6696
vn -0.2170 -0.5715 0.7914
vn -0.5782 -0.1388 0.8040
vn -0.6297 -0.7521 0.1945
vn 0.6042 0.7054 -0.3706
vn 0.7529 -0.6546 0.0685
vn 0.6120 0.7185 -0.3305
vn -0.7605 0.6367 -0.1273
vn -0.6219 -0.7362 0.2670
vn -0.7654 0.6155 -0.1879
vn 0.7451 -0.6665 0.0237
vn -0.1612 0.2046 0.9655
vn 0.2000 -0.2281 0.9529
vn -0.6701 0.7161 0.1955
vn 0.5958 -0.7836 0.1762
vn -0.7554 -0.6371 -0.1531
vn 0.6614 0.5482 0.5119
vn 0.5946 -0.7837 0.1796
vn 0.6605 0.5475 0.5138
vn -0.6701 0.7158 0.1964
vn -0.7557 -0.6373 -0.1509
vn 0.7320 -0.6665 -0.1416
vn -0.8960 0.3639 -0.2546
vn -0.5026 -0.7454 0.4379
vn -0.8922 0.3904 -0.2269
vn 0.3651 0.4766 -0.7997
vn 0.7432 -0.6572 -0.1253
vn 0.3517 0.4525 -0.8195
vn -0.5064 -0.7541 0.4181
vn -0.7318 -0.6810 -0.0285
vn -0.6818 0.6965 0.2239
vn 0.7185 0.6667 0.1980
vn 0.6848 -0.7249 -0.0755
vn 0.7221 0.6704 0.1705
vn -0.7309 -0.6797 -0.0618
vn 0.6853 -0.7216 -0.0979
vn -0.6824 0.6986 0.2152
vt 0.015011 0.714065
vt 0.000214 0.715199
vt 0.000214 0.651714
vt 0.015011 0.650580
vt 0.024091 0.711487
vt 0.015440 0.726231
vt 0.015440 0.665324
vt 0.024091 0.650580
vt 0.654047 0.142177
vt 0.654364 0.126920
vt 0.717426 0.121273
vt 0.717108 0.136529
vt 0.024520 0.711271
vt 0.032982 0.726113
vt 0.032982 0.786804
vt 0.024520 0.771962
vt 0.323745 0.603153
vt 0.311740 0.569207
vt 0.363694 0.556156
vt 0.375699 0.590102
vt 0.648552 0.055116
vt 0.642270 0.005862
vt 0.705332 0.000214
vt 0.711379 0.060744
vt 0.585256 0.072039
vt 0.579209 0.011509
vt 0.271792 0.616205
vt 0.259787 0.582258
vt 0.590985 0.147824
vt 0.591303 0.132568
vt 0.015011 0.777551
vt 0.000214 0.778685
vt 0.602228 0.492939
vt 0.658420 0.532487
vt 0.658420 0.720679
vt 0.568179 0.645204
vt 0.086233 0.261185
vt 0.000214 0.000214
vt 0.188860 0.000242
vt 0.238643 0.227030
vt 0.850660 0.318130
vt 0.913922 0.187651
vt 0.935069 0.375087
vt 0.878375 0.438067
vt 0.377507 0.000270
vt 0.391052 0.192875
vt 0.828105 0.999786
vt 0.822946 0.807643
vt 0.883049 0.629613
vt 0.883049 0.890694
vt 0.658420 0.908870
vt 0.534129 0.797470
vt 0.116368 0.504832
vt 0.000214 0.377192
vt 0.000214 0.188703
vt 0.101300 0.383009
vt 0.822946 0.198193
vt 0.892775 0.000214
vt 0.283796 0.650151
vt 0.335750 0.637099
vt 0.387704 0.624048
vt 0.024520 0.650580
vt 0.032982 0.665423
vt 0.024091 0.772394
vt 0.015440 0.787138
vt 0.483524 0.106333
vt 0.578892 0.026766
vt 0.584938 0.087295
vt 0.496581 0.258102
vt 0.822517 0.385418
vt 0.711061 0.076000
vt 0.809460 0.233649
vt 0.747359 0.894721
vt 0.658848 0.799552
vt 0.660212 0.736169
vt 0.750350 0.737550
vt 0.509638 0.409872
vt 0.666077 0.397645
vt 0.705014 0.015471
vt 0.796403 0.081880
vt 0.661575 0.672786
vt 0.753342 0.580380
vt 0.822946 0.562739
vt 0.832053 0.595961
vt 0.404585 0.582278
vt 0.391481 0.634071
vt 0.841161 0.629184
vt 0.417690 0.530485
vt 0.816677 0.681472
vt 0.816677 0.492939
vt 0.391481 0.303596
vt 0.391481 0.492233
vt 0.579673 0.492372
vt 0.767864 0.492510
vt 0.987337 0.248695
vt 0.999187 0.400336
vt 0.816677 0.870006
vt 0.975487 0.097053
vt 0.391481 0.114960
s 0
f 32/1/1 10/2/1 4/3/1 28/4/1
f 34/5/2 20/6/2 8/7/2 29/8/2
f 31/9/3 12/10/3 6/11/3 30/12/3
f 33/13/4 22/14/4 2/15/4 27/16/4
f 24/17/5 11/18/5 5/19/5 21/20/5
f 23/21/6 10/22/6 2/23/6 22/24/6
f 20/25/7 4/26/7 10/22/7 23/21/7
f 19/27/5 7/28/5 11/18/5 24/17/5
f 29/29/3 8/30/3 12/10/3 31/9/3
f 27/31/1 2/32/1 10/2/1 32/1/1
f 40/33/8 13/34/8 18/35/8 39/36/8
f 36/37/9 15/38/9 17/39/9 38/40/9
f 42/41/10 25/42/10 13/43/10 40/44/10
f 38/40/11 17/39/11 16/45/11 37/46/11
f 41/47/12 26/48/12 15/49/12 36/50/12
f 39/36/13 18/35/13 14/51/13 35/52/13
f 35/53/14 14/54/14 26/55/14 41/56/14
f 37/57/15 16/58/15 25/42/15 42/41/15
f 3/59/5 19/27/5 24/17/5 9/60/5
f 8/30/16 20/25/16 23/21/16 12/10/16
f 12/10/17 23/21/17 22/24/17 6/11/17
f 9/60/5 24/17/5 21/20/5 1/61/5
f 30/62/4 6/63/4 22/14/4 33/13/4
f 28/64/2 4/65/2 20/6/2 34/5/2
f 43/66/18 28/67/18 34/68/18 49/69/18
f 45/70/19 30/12/19 33/71/19 48/72/19
f 50/73/20 27/74/20 32/75/20 47/76/20
f 44/77/21 29/29/21 31/9/21 46/78/21
f 48/72/22 33/71/22 27/79/22 50/80/22
f 46/78/23 31/9/23 30/12/23 45/70/23
f 49/69/24 34/68/24 29/29/24 44/77/24
f 47/76/25 32/75/25 28/81/25 43/82/25
f 5/83/26 37/57/26 42/41/26 21/84/26
f 3/59/27 35/53/27 41/56/27 19/27/27
f 9/85/28 39/36/28 35/52/28 3/86/28
f 19/27/29 41/56/29 36/37/29 7/28/29
f 11/18/30 38/40/30 37/46/30 5/19/30
f 21/84/31 42/41/31 40/44/31 1/87/31
f 7/28/32 36/37/32 38/40/32 11/18/32
f 1/88/33 40/33/33 39/36/33 9/85/33
f 18/89/34 47/76/34 43/82/34 14/90/34
f 26/91/35 49/69/35 44/77/35 15/92/35
f 17/93/36 46/78/36 45/70/36 16/94/36
f 25/42/37 48/95/37 50/96/37 13/43/37
f 15/92/38 44/77/38 46/78/38 17/93/38
f 13/97/39 50/73/39 47/76/39 18/89/39
f 16/58/40 45/98/40 48/95/40 25/42/40
f 14/99/41 43/66/41 49/69/41 26/91/41
