# Blender 5.1.2
# www.blender.org
o Hole
v 1.000000 1.000000 0.300000
v 1.000000 1.000000 -0.300000
v 1.000000 -1.000000 0.300000
v 1.000000 -1.000000 -0.300000
v -1.000000 1.000000 0.300000
v -1.000000 1.000000 -0.300000
v -1.000000 -1.000000 0.300000
v -1.000000 -1.000000 -0.300000
v -1.000000 0.000000 0.300000
v -0.980785 0.195090 0.300000
v -0.980785 -0.195090 0.300000
v -0.831470 -0.555570 0.300000
v -0.831470 0.555570 0.300000
v -0.707107 -0.707107 0.300000
v -0.923880 -0.382683 0.300000
v -0.923880 0.382683 0.300000
v -0.555570 0.831470 0.300000
v -0.195090 0.980785 0.300000
v -0.382683 0.923880 0.300000
v 0.195090 0.980785 0.300000
v 0.707107 0.707107 0.300000
v 0.555570 0.831470 0.300000
v 0.382683 0.923880 0.300000
v 0.000000 1.000000 0.300000
v -0.707107 0.707107 0.300000
v -0.555570 -0.831470 0.300000
v -0.195090 -0.980785 0.300000
v -0.382683 -0.923880 0.300000
v 0.195090 -0.980785 0.300000
v 0.555570 -0.831470 0.300000
v 0.382683 -0.923880 0.300000
v 0.000000 -1.000000 0.300000
v 0.831470 -0.555570 0.300000
v 0.831470 0.555570 0.300000
v 1.000000 0.000000 0.300000
v 0.980785 -0.195090 0.300000
v 0.980785 0.195090 0.300000
v 0.923880 -0.382683 0.300000
v 0.923880 0.382683 0.300000
v 0.707107 -0.707107 0.300000
v 0.000000 -1.000000 -0.300000
v -1.000000 0.000000 -0.300000
v -0.707107 0.707107 -0.300000
v -0.555570 0.831470 -0.300000
v -0.195090 0.980785 -0.300000
v -0.382683 0.923880 -0.300000
v 0.195090 0.980785 -0.300000
v 0.555570 0.831470 -0.300000
v 0.382683 0.923880 -0.300000
v 0.707107 -0.707107 -0.300000
v 0.000000 1.000000 -0.300000
v 0.831470 -0.555570 -0.300000
v 0.831470 0.555570 -0.300000
v 1.000000 0.000000 -0.300000
v 0.980785 -0.195090 -0.300000
v 0.980785 0.195090 -0.300000
v 0.923880 -0.382683 -0.300000
v 0.923880 0.382683 -0.300000
v 0.707107 0.707107 -0.300000
v -0.980785 -0.195090 -0.300000
v -0.980785 0.195090 -0.300000
v -0.831470 -0.555570 -0.300000
v -0.831470 0.555570 -0.300000
v -0.707107 -0.707107 -0.300000
v -0.923880 -0.382683 -0.300000
v -0.923880 0.382683 -0.300000
v -0.555570 -0.831470 -0.300000
v -0.195090 -0.980785 -0.300000
v -0.382683 -0.923880 -0.300000
v 0.195090 -0.980785 -0.300000
v 0.555570 -0.831470 -0.300000
v 0.382683 -0.923880 -0.300000
vn -0.0000 -0.0000 1.0000
vn -0.0000 -1.0000 -0.0000
vn -1.0000 -0.0000 -0.0000
vn -0.0000 -0.0000 -1.0000
vn 1.0000 -0.0000 -0.0000
vn -0.0000 1.0000 -0.0000
vn -0.0980 -0.9952 -0.0000
vn -0.1951 -0.9808 -0.0000
vn -0.3827 -0.9239 -0.0000
vn -0.5556 -0.8315 -0.0000
vn -0.7071 -0.7071 -0.0000
vn -0.8315 -0.5556 -0.0000
vn -0.9239 -0.3827 -0.0000
vn -0.9808 -0.1951 -0.0000
vn -0.9952 -0.0980 -0.0000
vn -0.9952 0.0980 -0.0000
vn -0.9808 0.1951 -0.0000
vn -0.9239 0.3827 -0.0000
vn -0.8315 0.5556 -0.0000
vn -0.7071 0.7071 -0.0000
vn -0.5556 0.8315 -0.0000
vn -0.3827 0.9239 -0.0000
vn -0.1951 0.9808 -0.0000
vn -0.0980 0.9952 -0.0000
vn 0.1951 0.9808 -0.0000
vn 0.0980 0.9952 -0.0000
vn 0.3827 0.9239 -0.0000
vn 0.5556 0.8315 -0.0000
vn 0.7071 0.7071 -0.0000
vn 0.8315 0.5556 -0.0000
vn 0.9239 0.3827 -0.0000
vn 0.9808 0.1951 -0.0000
vn 0.9952 0.0980 -0.0000
vn 0.9808 -0.1951 -0.0000
vn 0.9952 -0.0980 -0.0000
vn 0.9239 -0.3827 -0.0000
vn 0.8315 -0.5556 -0.0000
vn 0.7071 -0.7071 -0.0000
vn 0.5556 -0.8315 -0.0000
vn 0.3827 -0.9239 -0.0000
vn 0.1951 -0.9808 -0.0000
vn 0.0980 -0.9952 -0.0000
vt 0.875000 0.625000
vt 0.875000 0.750000
vt 0.750000 0.750000
vt 0.774386 0.747598
vt 0.797835 0.740485
vt 0.819446 0.728934
vt 0.838388 0.713388
vt 0.853934 0.694446
vt 0.865485 0.672835
vt 0.872598 0.649386
vt 0.750000 0.500000
vt 0.875000 0.500000
vt 0.872598 0.600614
vt 0.865485 0.577165
vt 0.853934 0.555554
vt 0.838388 0.536612
vt 0.819446 0.521066
vt 0.797835 0.509515
vt 0.774386 0.502402
vt 0.625000 0.625000
vt 0.625000 0.500000
vt 0.725614 0.502402
vt 0.702165 0.509515
vt 0.680554 0.521066
vt 0.661612 0.536612
vt 0.646066 0.555554
vt 0.634515 0.577165
vt 0.627402 0.600614
vt 0.625000 0.750000
vt 0.627402 0.649386
vt 0.634515 0.672835
vt 0.646066 0.694446
vt 0.661612 0.713388
vt 0.680554 0.728934
vt 0.702165 0.740485
vt 0.725614 0.747598
vt 0.625000 1.000000
vt 0.375000 1.000000
vt 0.375000 0.875000
vt 0.625000 0.875000
vt 0.375000 0.750000
vt 0.625000 0.125000
vt 0.625000 0.250000
vt 0.375000 0.250000
vt 0.375000 0.125000
vt 0.375000 0.000000
vt 0.625000 0.000000
vt 0.250000 0.750000
vt 0.274386 0.747598
vt 0.297835 0.740485
vt 0.319446 0.728934
vt 0.338388 0.713388
vt 0.353934 0.694446
vt 0.365485 0.672835
vt 0.372598 0.649386
vt 0.375000 0.625000
vt 0.250000 0.500000
vt 0.375000 0.500000
vt 0.372598 0.600614
vt 0.365485 0.577165
vt 0.353934 0.555554
vt 0.338388 0.536612
vt 0.319446 0.521066
vt 0.297835 0.509515
vt 0.274386 0.502402
vt 0.125000 0.625000
vt 0.125000 0.500000
vt 0.225614 0.502402
vt 0.202165 0.509515
vt 0.180554 0.521066
vt 0.161612 0.536612
vt 0.146066 0.555554
vt 0.134515 0.577165
vt 0.127402 0.600614
vt 0.125000 0.750000
vt 0.127402 0.649386
vt 0.134515 0.672835
vt 0.146066 0.694446
vt 0.161612 0.713388
vt 0.180554 0.728934
vt 0.202165 0.740485
vt 0.225614 0.747598
vt 0.625000 0.375000
vt 0.375000 0.375000
vt 1.000000 0.675000
vt 0.968750 0.675000
vt 0.968750 0.825000
vt 1.000000 0.825000
vt 0.937500 0.675000
vt 0.937500 0.825000
vt 0.968750 0.675000
vt 0.906250 0.675000
vt 0.906250 0.825000
vt 0.937500 0.675000
vt 0.875000 0.675000
vt 0.875000 0.825000
vt 0.906250 0.825000
vt 0.906250 0.675000
vt 0.843750 0.825000
vt 0.875000 0.825000
vt 0.875000 0.675000
vt 0.843750 0.675000
vt 0.812500 0.825000
vt 0.843750 0.825000
vt 0.843750 0.675000
vt 0.812500 0.675000
vt 0.781250 0.825000
vt 0.812500 0.675000
vt 0.781250 0.675000
vt 0.750000 0.825000
vt 0.781250 0.675000
vt 0.750000 0.675000
vt 0.750000 0.675000
vt 0.718750 0.675000
vt 0.718750 0.825000
vt 0.687500 0.825000
vt 0.718750 0.675000
vt 0.687500 0.675000
vt 0.656250 0.825000
vt 0.687500 0.675000
vt 0.656250 0.675000
vt 0.625000 0.825000
vt 0.656250 0.675000
vt 0.625000 0.675000
vt 0.593750 0.825000
vt 0.625000 0.825000
vt 0.625000 0.675000
vt 0.593750 0.675000
vt 0.562500 0.825000
vt 0.593750 0.825000
vt 0.593750 0.675000
vt 0.562500 0.675000
vt 0.531250 0.825000
vt 0.562500 0.675000
vt 0.531250 0.675000
vt 0.500000 0.825000
vt 0.531250 0.675000
vt 0.500000 0.675000
vt 0.468750 0.825000
vt 0.500000 0.675000
vt 0.468750 0.675000
vt 0.437500 0.825000
vt 0.468750 0.675000
vt 0.437500 0.675000
vt 0.406250 0.825000
vt 0.437500 0.675000
vt 0.406250 0.675000
vt 0.375000 0.825000
vt 0.406250 0.675000
vt 0.375000 0.675000
vt 0.343750 0.675000
vt 0.343750 0.825000
vt 0.375000 0.825000
vt 0.375000 0.675000
vt 0.312500 0.675000
vt 0.312500 0.825000
vt 0.343750 0.825000
vt 0.343750 0.675000
vt 0.281250 0.675000
vt 0.281250 0.825000
vt 0.312500 0.675000
vt 0.250000 0.825000
vt 0.281250 0.675000
vt 0.250000 0.675000
vt 0.218750 0.675000
vt 0.218750 0.825000
vt 0.250000 0.675000
vt 0.187500 0.675000
vt 0.187500 0.825000
vt 0.218750 0.675000
vt 0.156250 0.675000
vt 0.156250 0.825000
vt 0.187500 0.675000
vt 0.125000 0.675000
vt 0.125000 0.825000
vt 0.156250 0.675000
vt 0.093750 0.675000
vt 0.093750 0.825000
vt 0.125000 0.825000
vt 0.125000 0.675000
vt 0.062500 0.675000
vt 0.062500 0.825000
vt 0.093750 0.825000
vt 0.093750 0.675000
vt 0.031250 0.675000
vt 0.031250 0.825000
vt 0.062500 0.675000
vt 0.000000 0.825000
vt 0.031250 0.675000
vt 0.000000 0.675000
s 0
f 9/1/1 7/2/1 32/3/1 27/4/1 28/5/1 26/6/1 14/7/1 12/8/1 15/9/1 11/10/1
f 24/11/1 5/12/1 9/1/1 10/13/1 16/14/1 13/15/1 25/16/1 17/17/1 19/18/1 18/19/1
f 35/20/1 1/21/1 24/11/1 20/22/1 23/23/1 22/24/1 21/25/1 34/26/1 39/27/1 37/28/1
f 32/3/1 3/29/1 35/20/1 36/30/1 38/31/1 33/32/1 40/33/1 30/34/1 31/35/1 29/36/1
f 7/37/2 8/38/2 41/39/2 32/40/2
f 41/39/2 4/41/2 3/29/2 32/40/2
f 9/42/3 5/43/3 6/44/3 42/45/3
f 8/46/3 7/47/3 9/42/3 42/45/3
f 4/41/4 41/48/4 70/49/4 72/50/4 71/51/4 50/52/4 52/53/4 57/54/4 55/55/4 54/56/4
f 51/57/4 2/58/4 54/56/4 56/59/4 58/60/4 53/61/4 59/62/4 48/63/4 49/64/4 47/65/4
f 42/66/4 6/67/4 51/57/4 45/68/4 46/69/4 44/70/4 43/71/4 63/72/4 66/73/4 61/74/4
f 41/48/4 8/75/4 42/66/4 60/76/4 65/77/4 62/78/4 64/79/4 67/80/4 69/81/4 68/82/4
f 3/29/5 4/41/5 54/56/5 35/20/5
f 54/56/5 2/58/5 1/21/5 35/20/5
f 24/83/6 1/21/6 2/58/6 51/84/6
f 6/44/6 5/43/6 24/83/6 51/84/6
s 17
f 51/85/7 47/86/8 20/87/8 24/88/7
f 49/89/9 23/90/9 20/87/8 47/91/8
f 48/92/10 22/93/10 23/90/9 49/94/9
f 59/95/11 21/96/11 22/97/10 48/98/10
f 34/99/12 21/100/11 59/101/11 53/102/12
f 39/103/13 34/104/12 53/105/12 58/106/13
f 37/107/14 39/103/13 58/108/13 56/109/14
f 35/110/15 37/107/14 56/111/14 54/112/15
s 18
f 54/113/16 55/114/17 36/115/17 35/110/16
f 38/116/18 36/115/17 55/117/17 57/118/18
f 33/119/19 38/116/18 57/120/18 52/121/19
f 40/122/20 33/119/19 52/123/19 50/124/20
f 30/125/21 40/126/20 50/127/20 71/128/21
f 31/129/22 30/130/21 71/131/21 72/132/22
f 29/133/23 31/129/22 72/134/22 70/135/23
f 32/136/24 29/133/23 70/137/23 41/138/24
s 19
f 27/139/25 32/136/26 41/140/26 68/141/25
f 28/142/27 27/139/25 68/143/25 69/144/27
f 26/145/28 28/142/27 69/146/27 67/147/28
f 14/148/29 26/145/28 67/149/28 64/150/29
f 62/151/30 12/152/30 14/153/29 64/154/29
f 65/155/31 15/156/31 12/157/30 62/158/30
f 60/159/32 11/160/32 15/156/31 65/161/31
f 9/162/33 11/160/32 60/163/32 42/164/33
s 20
f 61/165/34 10/166/34 9/162/35 42/167/35
f 66/168/36 16/169/36 10/166/34 61/170/34
f 63/171/37 13/172/37 16/169/36 66/173/36
f 43/174/38 25/175/38 13/172/37 63/176/37
f 44/177/39 17/178/39 25/179/38 43/180/38
f 46/181/40 19/182/40 17/183/39 44/184/39
f 45/185/41 18/186/41 19/182/40 46/187/40
f 24/188/42 18/186/41 45/189/41 51/190/42
