# Blender 5.1.2
# www.blender.org
o Text
v 0.047967 0.033052 -0.100990
v -0.042205 0.033052 -0.100990
v -0.042205 0.033052 -0.196566
v 0.047967 0.033052 -0.196566
v -0.042205 0.033052 -0.061138
v 0.047967 0.033052 -0.061138
v 0.047967 0.033052 -0.009129
v 0.047894 0.033052 -0.003625
v 0.047676 0.033052 0.001744
v 0.047313 0.033052 0.006976
v 0.046804 0.033052 0.012073
v 0.046150 0.033052 0.017033
v 0.045350 0.033052 0.021857
v 0.044405 0.033052 0.026545
v 0.043314 0.033052 0.031098
v 0.042078 0.033052 0.035514
v 0.040697 0.033052 0.039794
v 0.039170 0.033052 0.043938
v 0.037498 0.033052 0.047946
v 0.035638 0.033052 0.051905
v 0.033548 0.033052 0.055902
v 0.031229 0.033052 0.059936
v 0.028679 0.033052 0.064007
v 0.025900 0.033052 0.068116
v 0.022891 0.033052 0.072262
v 0.019652 0.033052 0.076446
v 0.016184 0.033052 0.080668
v 0.012485 0.033052 0.084927
v 0.008557 0.033052 0.089224
v 0.004398 0.033052 0.093558
v 0.000010 0.033052 0.097929
v -0.030385 0.033052 0.127987
v -0.033836 0.033052 0.131371
v -0.037097 0.033052 0.134657
v -0.040168 0.033052 0.137844
v -0.043049 0.033052 0.140933
v -0.045741 0.033052 0.143923
v -0.048242 0.033052 0.146815
v -0.050553 0.033052 0.149608
v -0.052674 0.033052 0.152303
v -0.054606 0.033052 0.154899
v -0.056347 0.033052 0.157397
v -0.057899 0.033052 0.159796
v -0.059260 0.033052 0.162097
v -0.060474 0.033052 0.164355
v -0.061582 0.033052 0.166628
v -0.062585 0.033052 0.168915
v -0.063482 0.033052 0.171216
v -0.064273 0.033052 0.173530
v -0.064959 0.033052 0.175859
v -0.065540 0.033052 0.178202
v -0.066015 0.033052 0.180559
v -0.066384 0.033052 0.182930
v -0.066648 0.033052 0.185315
v -0.066806 0.033052 0.187715
v -0.066859 0.033052 0.190128
v -0.066751 0.033052 0.193822
v -0.066427 0.033052 0.197361
v -0.065888 0.033052 0.200745
v -0.065133 0.033052 0.203975
v -0.064162 0.033052 0.207049
v -0.062975 0.033052 0.209969
v -0.061573 0.033052 0.212734
v -0.059954 0.033052 0.215345
v -0.058120 0.033052 0.217800
v -0.056070 0.033052 0.220101
v -0.053805 0.033052 0.222247
v -0.051324 0.033052 0.224238
v -0.048626 0.033052 0.226072
v -0.045714 0.033052 0.227747
v -0.042585 0.033052 0.229262
v -0.039241 0.033052 0.230617
v -0.035680 0.033052 0.231813
v -0.031904 0.033052 0.232850
v -0.027913 0.033052 0.233727
v -0.023705 0.033052 0.234445
v -0.019282 0.033052 0.235003
v -0.014643 0.033052 0.235402
v -0.009788 0.033052 0.235641
v -0.004718 0.033052 0.235721
v 0.000028 0.033052 0.235637
v 0.004809 0.033052 0.235388
v 0.009625 0.033052 0.234971
v 0.014476 0.033052 0.234389
v 0.019363 0.033052 0.233639
v 0.024284 0.033052 0.232723
v 0.029241 0.033052 0.231641
v 0.034233 0.033052 0.230392
v 0.039260 0.033052 0.228977
v 0.044323 0.033052 0.227395
v 0.049420 0.033052 0.225646
v 0.054553 0.033052 0.223732
v 0.059714 0.033052 0.221652
v 0.064896 0.033052 0.219412
v 0.070099 0.033052 0.217009
v 0.075323 0.033052 0.214444
v 0.080568 0.033052 0.211718
v 0.085834 0.033052 0.208830
v 0.091122 0.033052 0.205779
v 0.096431 0.033052 0.202568
v 0.101760 0.033052 0.199194
v 0.107111 0.033052 0.195658
v 0.112483 0.033052 0.191961
v 0.117876 0.033052 0.188102
v 0.117876 0.033052 0.278612
v 0.112354 0.033052 0.281699
v 0.106820 0.033052 0.284658
v 0.101275 0.033052 0.287487
v 0.095718 0.033052 0.290188
v 0.090149 0.033052 0.292760
v 0.084568 0.033052 0.295202
v 0.078976 0.033052 0.297516
v 0.073372 0.033052 0.299701
v 0.067756 0.033052 0.301756
v 0.062128 0.033052 0.303683
v 0.056489 0.033052 0.305481
v 0.050838 0.033052 0.307149
v 0.045180 0.033052 0.308687
v 0.039519 0.033052 0.310090
v 0.033857 0.033052 0.311360
v 0.028192 0.033052 0.312497
v 0.022524 0.033052 0.313499
v 0.016854 0.033052 0.314368
v 0.011182 0.033052 0.315103
v 0.005508 0.033052 0.315705
v -0.000169 0.033052 0.316173
v -0.005848 0.033052 0.316507
v -0.011530 0.033052 0.316708
v -0.017213 0.033052 0.316774
v -0.028379 0.033052 0.316554
v -0.039137 0.033052 0.315893
v -0.049487 0.033052 0.314790
v -0.059429 0.033052 0.313247
v -0.068963 0.033052 0.311263
v -0.078088 0.033052 0.308838
v -0.086806 0.033052 0.305972
v -0.095115 0.033052 0.302665
v -0.103016 0.033052 0.298917
v -0.110510 0.033052 0.294729
v -0.117595 0.033052 0.290099
v -0.124272 0.033052 0.285028
v -0.130475 0.033052 0.279571
v -0.136139 0.033052 0.273780
v -0.141264 0.033052 0.267657
v -0.145849 0.033052 0.261200
v -0.149894 0.033052 0.254410
v -0.153401 0.033052 0.247288
v -0.156367 0.033052 0.239832
v -0.158795 0.033052 0.232043
v -0.160683 0.033052 0.223922
v -0.162031 0.033052 0.215467
v -0.162840 0.033052 0.206679
v -0.163110 0.033052 0.197558
v -0.163030 0.033052 0.193305
v -0.162791 0.033052 0.189101
v -0.162392 0.033052 0.184946
v -0.161834 0.033052 0.180841
v -0.161117 0.033052 0.176784
v -0.160239 0.033052 0.172777
v -0.159203 0.033052 0.168820
v -0.158007 0.033052 0.164911
v -0.156651 0.033052 0.161052
v -0.155136 0.033052 0.157242
v -0.153462 0.033052 0.153481
v -0.151628 0.033052 0.149770
v -0.149573 0.033052 0.146021
v -0.147237 0.033052 0.142148
v -0.144620 0.033052 0.138150
v -0.141721 0.033052 0.134028
v -0.138541 0.033052 0.129782
v -0.135079 0.033052 0.125412
v -0.131336 0.033052 0.120917
v -0.127311 0.033052 0.116298
v -0.123005 0.033052 0.111555
v -0.118418 0.033052 0.106687
v -0.113549 0.033052 0.101695
v -0.108399 0.033052 0.096579
v -0.078679 0.033052 0.067534
v -0.074967 0.033052 0.063876
v -0.071484 0.033052 0.060330
v -0.068231 0.033052 0.056896
v -0.065208 0.033052 0.053575
v -0.062415 0.033052 0.050367
v -0.059851 0.033052 0.047271
v -0.057518 0.033052 0.044288
v -0.055414 0.033052 0.041417
v -0.053540 0.033052 0.038659
v -0.051896 0.033052 0.036013
v -0.050482 0.033052 0.033481
v -0.049297 0.033052 0.031060
v -0.048272 0.033052 0.028652
v -0.047337 0.033052 0.026154
v -0.046490 0.033052 0.023567
v -0.045732 0.033052 0.020891
v -0.045064 0.033052 0.018126
v -0.044485 0.033052 0.015272
v -0.043995 0.033052 0.012328
v -0.043593 0.033052 0.009296
v -0.043282 0.033052 0.006174
v -0.043059 0.033052 0.002963
v -0.042925 0.033052 -0.000336
v -0.042880 0.033052 -0.003725
v -0.042879 0.033052 -0.004239
v -0.042876 0.033052 -0.004767
v -0.042870 0.033052 -0.005308
v -0.042862 0.033052 -0.005864
v -0.042851 0.033052 -0.006434
v -0.042838 0.033052 -0.007018
v -0.042823 0.033052 -0.007616
v -0.042805 0.033052 -0.008228
v -0.042786 0.033052 -0.008855
v -0.042763 0.033052 -0.009495
v -0.042739 0.033052 -0.010149
v -0.042712 0.033052 -0.010818
v -0.042682 0.033052 -0.011498
v -0.042651 0.033052 -0.012187
v -0.042617 0.033052 -0.012886
v -0.042580 0.033052 -0.013594
v -0.042542 0.033052 -0.014312
v -0.042501 0.033052 -0.015039
v -0.042457 0.033052 -0.015776
v -0.042411 0.033052 -0.016521
v -0.042363 0.033052 -0.017277
v -0.042313 0.033052 -0.018041
v -0.042260 0.033052 -0.018815
v -0.042205 0.033052 -0.019598
v 0.047967 -0.029712 -0.100990
v -0.042205 -0.029712 -0.100990
v -0.042205 -0.029712 -0.196566
v 0.047967 -0.029712 -0.196566
v -0.042205 -0.029712 -0.061138
v 0.047967 -0.029712 -0.061138
v 0.047967 -0.029712 -0.009129
v 0.047894 -0.029712 -0.003625
v 0.047676 -0.029712 0.001744
v 0.047313 -0.029712 0.006976
v 0.046804 -0.029712 0.012073
v 0.046150 -0.029712 0.017033
v 0.045350 -0.029712 0.021857
v 0.044405 -0.029712 0.026545
v 0.043314 -0.029712 0.031098
v 0.042078 -0.029712 0.035514
v 0.040697 -0.029712 0.039794
v 0.039170 -0.029712 0.043938
v 0.037498 -0.029712 0.047946
v 0.035638 -0.029712 0.051905
v 0.033548 -0.029712 0.055902
v 0.031229 -0.029712 0.059936
v 0.028679 -0.029712 0.064007
v 0.025900 -0.029712 0.068116
v 0.022891 -0.029712 0.072262
v 0.019652 -0.029712 0.076446
v 0.016184 -0.029712 0.080668
v 0.012485 -0.029712 0.084927
v 0.008557 -0.029712 0.089224
v 0.004398 -0.029712 0.093558
v 0.000010 -0.029712 0.097929
v -0.030385 -0.029712 0.127987
v -0.033836 -0.029712 0.131371
v -0.037097 -0.029712 0.134657
v -0.040168 -0.029712 0.137844
v -0.043049 -0.029712 0.140933
v -0.045741 -0.029712 0.143923
v -0.048242 -0.029712 0.146815
v -0.050553 -0.029712 0.149608
v -0.052674 -0.029712 0.152303
v -0.054606 -0.029712 0.154899
v -0.056347 -0.029712 0.157397
v -0.057899 -0.029712 0.159796
v -0.059260 -0.029712 0.162097
v -0.060474 -0.029712 0.164355
v -0.061582 -0.029712 0.166628
v -0.062585 -0.029712 0.168915
v -0.063482 -0.029712 0.171216
v -0.064273 -0.029712 0.173530
v -0.064959 -0.029712 0.175859
v -0.065540 -0.029712 0.178202
v -0.066015 -0.029712 0.180559
v -0.066384 -0.029712 0.182930
v -0.066648 -0.029712 0.185315
v -0.066806 -0.029712 0.187715
v -0.066859 -0.029712 0.190128
v -0.066751 -0.029712 0.193822
v -0.066427 -0.029712 0.197361
v -0.065888 -0.029712 0.200745
v -0.065133 -0.029712 0.203975
v -0.064162 -0.029712 0.207049
v -0.062975 -0.029712 0.209969
v -0.061573 -0.029712 0.212734
v -0.059954 -0.029712 0.215345
v -0.058120 -0.029712 0.217800
v -0.056070 -0.029712 0.220101
v -0.053805 -0.029712 0.222247
v -0.051324 -0.029712 0.224238
v -0.048626 -0.029712 0.226072
v -0.045714 -0.029712 0.227747
v -0.042585 -0.029712 0.229262
v -0.039241 -0.029712 0.230617
v -0.035680 -0.029712 0.231813
v -0.031904 -0.029712 0.232850
v -0.027913 -0.029712 0.233727
v -0.023705 -0.029712 0.234445
v -0.019282 -0.029712 0.235003
v -0.014643 -0.029712 0.235402
v -0.009788 -0.029712 0.235641
v -0.004718 -0.029712 0.235721
v 0.000028 -0.029712 0.235637
v 0.004809 -0.029712 0.235388
v 0.009625 -0.029712 0.234971
v 0.014476 -0.029712 0.234389
v 0.019363 -0.029712 0.233639
v 0.024284 -0.029712 0.232723
v 0.029241 -0.029712 0.231641
v 0.034233 -0.029712 0.230392
v 0.039260 -0.029712 0.228977
v 0.044323 -0.029712 0.227395
v 0.049420 -0.029712 0.225646
v 0.054553 -0.029712 0.223732
v 0.059714 -0.029712 0.221652
v 0.064896 -0.029712 0.219412
v 0.070099 -0.029712 0.217009
v 0.075323 -0.029712 0.214444
v 0.080568 -0.029712 0.211718
v 0.085834 -0.029712 0.208830
v 0.091122 -0.029712 0.205779
v 0.096431 -0.029712 0.202568
v 0.101760 -0.029712 0.199194
v 0.107111 -0.029712 0.195658
v 0.112483 -0.029712 0.191961
v 0.117876 -0.029712 0.188102
v 0.117876 -0.029712 0.278612
v 0.112354 -0.029712 0.281699
v 0.106820 -0.029712 0.284658
v 0.101275 -0.029712 0.287487
v 0.095718 -0.029712 0.290188
v 0.090149 -0.029712 0.292760
v 0.084568 -0.029712 0.295202
v 0.078976 -0.029712 0.297516
v 0.073372 -0.029712 0.299701
v 0.067756 -0.029712 0.301756
v 0.062128 -0.029712 0.303683
v 0.056489 -0.029712 0.305481
v 0.050838 -0.029712 0.307149
v 0.045180 -0.029712 0.308687
v 0.039519 -0.029712 0.310090
v 0.033857 -0.029712 0.311360
v 0.028192 -0.029712 0.312497
v 0.022524 -0.029712 0.313499
v 0.016854 -0.029712 0.314368
v 0.011182 -0.029712 0.315103
v 0.005508 -0.029712 0.315705
v -0.000169 -0.029712 0.316173
v -0.005848 -0.029712 0.316507
v -0.011530 -0.029712 0.316708
v -0.017213 -0.029712 0.316774
v -0.028379 -0.029712 0.316554
v -0.039137 -0.029712 0.315893
v -0.049487 -0.029712 0.314790
v -0.059429 -0.029712 0.313247
v -0.068963 -0.029712 0.311263
v -0.078088 -0.029712 0.308838
v -0.086806 -0.029712 0.305972
v -0.095115 -0.029712 0.302665
v -0.103017 -0.029712 0.298917
v -0.110510 -0.029712 0.294729
v -0.117595 -0.029712 0.290099
v -0.124272 -0.029712 0.285028
v -0.130475 -0.029712 0.279571
v -0.136139 -0.029712 0.273780
v -0.141264 -0.029712 0.267657
v -0.145849 -0.029712 0.261200
v -0.149894 -0.029712 0.254410
v -0.153401 -0.029712 0.247288
v -0.156367 -0.029712 0.239832
v -0.158795 -0.029712 0.232043
v -0.160683 -0.029712 0.223922
v -0.162031 -0.029712 0.215467
v -0.162840 -0.029712 0.206679
v -0.163110 -0.029712 0.197558
v -0.163030 -0.029712 0.193305
v -0.162791 -0.029712 0.189101
v -0.162392 -0.029712 0.184946
v -0.161834 -0.029712 0.180841
v -0.161117 -0.029712 0.176784
v -0.160240 -0.029712 0.172777
v -0.159203 -0.029712 0.168820
v -0.158007 -0.029712 0.164911
v -0.156651 -0.029712 0.161052
v -0.155136 -0.029712 0.157242
v -0.153462 -0.029712 0.153481
v -0.151628 -0.029712 0.149770
v -0.149573 -0.029712 0.146021
v -0.147237 -0.029712 0.142148
v -0.144620 -0.029712 0.138150
v -0.141721 -0.029712 0.134028
v -0.138541 -0.029712 0.129782
v -0.135079 -0.029712 0.125412
v -0.131336 -0.029712 0.120917
v -0.127311 -0.029712 0.116298
v -0.123006 -0.029712 0.111555
v -0.118418 -0.029712 0.106687
v -0.113549 -0.029712 0.101695
v -0.108399 -0.029712 0.096579
v -0.078679 -0.029712 0.067534
v -0.074967 -0.029712 0.063876
v -0.071484 -0.029712 0.060330
v -0.068231 -0.029712 0.056896
v -0.065208 -0.029712 0.053575
v -0.062415 -0.029712 0.050367
v -0.059851 -0.029712 0.047271
v -0.057518 -0.029712 0.044288
v -0.055414 -0.029712 0.041417
v -0.053540 -0.029712 0.038659
v -0.051896 -0.029712 0.036013
v -0.050482 -0.029712 0.033481
v -0.049297 -0.029712 0.031060
v -0.048272 -0.029712 0.028652
v -0.047337 -0.029712 0.026154
v -0.046490 -0.029712 0.023567
v -0.045732 -0.029712 0.020891
v -0.045064 -0.029712 0.018126
v -0.044485 -0.029712 0.015272
v -0.043995 -0.029712 0.012328
v -0.043593 -0.029712 0.009296
v -0.043282 -0.029712 0.006174
v -0.043059 -0.029712 0.002963
v -0.042925 -0.029712 -0.000336
v -0.042880 -0.029712 -0.003725
v -0.042879 -0.029712 -0.004239
v -0.042876 -0.029712 -0.004767
v -0.042870 -0.029712 -0.005308
v -0.042862 -0.029712 -0.005864
v -0.042851 -0.029712 -0.006434
v -0.042838 -0.029712 -0.007018
v -0.042823 -0.029712 -0.007616
v -0.042805 -0.029712 -0.008228
v -0.042785 -0.029712 -0.008855
v -0.042763 -0.029712 -0.009495
v -0.042739 -0.029712 -0.010149
v -0.042712 -0.029712 -0.010818
v -0.042682 -0.029712 -0.011498
v -0.042651 -0.029712 -0.012187
v -0.042617 -0.029712 -0.012886
v -0.042580 -0.029712 -0.013594
v -0.042542 -0.029712 -0.014312
v -0.042501 -0.029712 -0.015039
v -0.042457 -0.029712 -0.015776
v -0.042411 -0.029712 -0.016521
v -0.042363 -0.029712 -0.017277
v -0.042313 -0.029712 -0.018041
v -0.042260 -0.029712 -0.018815
v -0.042205 -0.029712 -0.019598
vn -0.0000 1.0000 -0.0000
vn -0.0000 -1.0000 -0.0000
vn 0.7031 -0.0000 0.7110
vn 0.7433 -0.0000 0.6690
vn -0.0000 -0.0000 -1.0000
vn 1.0000 -0.0000 -0.0000
vn -0.7134 -0.0000 -0.7007
vn -0.9998 -0.0000 -0.0221
vn -1.0000 -0.0000 -0.0000
vn -0.5819 -0.0000 -0.8132
vn -0.7019 -0.0000 -0.7123
vn -0.9998 -0.0000 -0.0185
vn 0.7563 -0.0000 0.6542
vn -0.5670 -0.0000 -0.8237
vn -0.5513 -0.0000 -0.8343
vn -0.9999 -0.0000 -0.0148
vn 0.7704 -0.0000 0.6375
vn -0.9975 -0.0000 -0.0702
vn 0.7002 -0.0000 0.7140
vn -0.9999 -0.0000 -0.0108
vn 0.7857 -0.0000 0.6185
vn -0.9977 -0.0000 -0.0680
vn -0.5349 -0.0000 -0.8449
vn 0.7098 -0.0000 0.7044
vn -0.7048 -0.0000 -0.7094
vn -0.5177 -0.0000 -0.8556
vn -1.0000 -0.0000 -0.0067
vn -0.9978 -0.0000 -0.0658
vn 0.7201 -0.0000 0.6939
vn -0.4997 -0.0000 -0.8662
vn -0.6989 -0.0000 -0.7152
vn -1.0000 -0.0000 -0.0023
vn 0.8023 -0.0000 0.5969
vn -0.9980 -0.0000 -0.0636
vn -0.7159 -0.0000 -0.6982
vn 0.7313 -0.0000 0.6821
vn -0.9981 -0.0000 -0.0612
vn -0.3496 -0.0000 -0.9369
vn 0.4358 -0.0000 -0.9000
vn 0.9992 -0.0000 0.0406
vn -0.9999 -0.0000 -0.0132
vn 0.8203 -0.0000 0.5719
vn -0.9983 -0.0000 -0.0588
vn -0.2568 -0.0000 0.9665
vn 0.3632 -0.0000 0.9317
vn 0.8397 -0.0000 0.5430
vn -0.9984 -0.0000 -0.0564
vn 0.9976 -0.0000 0.0693
vn -0.7277 -0.0000 -0.6858
vn -0.4809 -0.0000 -0.8768
vn 0.3756 -0.0000 -0.9268
vn -0.9992 -0.0000 -0.0405
vn -0.9985 -0.0000 -0.0539
vn -0.2038 -0.0000 0.9790
vn 0.4880 -0.0000 0.8728
vn 0.8606 -0.0000 0.5093
vn -0.9987 -0.0000 -0.0512
vn -0.4612 -0.0000 -0.8873
vn 0.9951 -0.0000 0.0994
vn -0.7404 -0.0000 -0.6721
vn 0.3185 -0.0000 -0.9479
vn -0.9976 -0.0000 -0.0692
vn -0.9988 -0.0000 -0.0486
vn -0.1534 -0.0000 0.9882
vn 0.4715 -0.0000 0.8819
vn 0.8809 -0.0000 0.4734
vn -0.9989 -0.0000 -0.0459
vn -0.4407 -0.0000 -0.8977
vn 0.9914 -0.0000 0.1308
vn -0.7540 -0.0000 -0.6569
vn 0.2647 -0.0000 -0.9643
vn -0.9991 -0.0000 -0.0430
vn -0.1059 -0.0000 0.9944
vn 0.9865 -0.0000 0.1635
vn 0.4545 -0.0000 0.8907
vn -0.9950 -0.0000 -0.0994
vn 0.8988 -0.0000 0.4383
vn -0.9992 -0.0000 -0.0403
vn -0.4193 -0.0000 -0.9079
vn -0.7684 -0.0000 -0.6399
vn -0.9993 -0.0000 -0.0376
vn 0.9803 -0.0000 0.1976
vn 0.4371 -0.0000 0.8994
vn -0.9914 -0.0000 -0.1311
vn 0.9158 -0.0000 0.4016
vn -0.9994 -0.0000 -0.0348
vn -0.3969 -0.0000 -0.9179
vn -0.7839 -0.0000 -0.6209
vn -0.9995 -0.0000 -0.0318
vn 0.9725 -0.0000 0.2330
vn 0.4192 -0.0000 0.9079
vn -0.9864 -0.0000 -0.1643
vn 0.9317 -0.0000 0.3633
vn -0.8004 -0.0000 -0.5995
vn 0.9999 -0.0000 0.0132
vn 0.4010 -0.0000 0.9161
vn -0.3737 -0.0000 -0.9276
vn 0.9630 -0.0000 0.2695
vn -0.2133 -0.0000 -0.9770
vn 0.9462 -0.0000 0.3236
vn 0.3823 -0.0000 0.9240
vn 0.9517 -0.0000 0.3071
vn -0.8180 -0.0000 -0.5753
vn 0.2407 -0.0000 0.9706
vn -0.9800 -0.0000 -0.1989
vn -0.1829 -0.0000 -0.9831
vn -0.3244 -0.0000 -0.9459
vn 0.9593 -0.0000 0.2826
vn 0.3437 -0.0000 0.9391
vn 0.9383 -0.0000 0.3457
vn -0.8366 -0.0000 -0.5478
vn 0.2188 -0.0000 0.9758
vn -0.2983 -0.0000 -0.9545
vn 0.9229 -0.0000 0.3850
vn 0.9707 -0.0000 0.2405
vn 0.1967 -0.0000 0.9805
vn -0.9720 -0.0000 -0.2350
vn 0.9737 -0.0000 -0.2277
vn -0.1516 -0.0000 -0.9884
vn 0.3239 -0.0000 0.9461
vn -0.9740 -0.0000 0.2264
vn 0.1742 -0.0000 0.9847
vn 0.3037 -0.0000 0.9528
vn 0.9051 -0.0000 0.4252
vn -0.2710 -0.0000 -0.9626
vn -0.8563 -0.0000 -0.5164
vn 0.8862 -0.0000 0.4634
vn 0.9536 -0.0000 -0.3011
vn -0.9622 -0.0000 -0.2724
vn -0.9547 -0.0000 0.2975
vn -0.8770 -0.0000 -0.4806
vn 0.2832 -0.0000 0.9591
vn -0.2427 -0.0000 -0.9701
vn -0.9291 -0.0000 0.3697
vn 0.8669 -0.0000 0.4985
vn 0.9803 -0.0000 0.1975
vn -0.9504 -0.0000 -0.3111
vn -0.8965 -0.0000 -0.4430
vn 0.2622 -0.0000 0.9650
vn 0.9264 -0.0000 -0.3765
vn -0.8972 -0.0000 0.4417
vn -0.9135 -0.0000 -0.4068
vn -0.1193 -0.0000 -0.9929
vn 0.8476 -0.0000 0.5307
vn -0.8591 -0.0000 0.5119
vn 0.8283 -0.0000 0.5603
vn 0.9881 -0.0000 0.1540
vn 0.1515 -0.0000 0.9885
vn -0.9364 -0.0000 -0.3508
vn -0.9292 -0.0000 -0.3695
vn -0.0861 -0.0000 -0.9963
vn 0.8918 -0.0000 -0.4523
vn -0.8153 -0.0000 0.5790
vn -0.9435 -0.0000 -0.3314
vn 0.8093 -0.0000 0.5873
vn 0.1286 -0.0000 0.9917
vn -0.9202 -0.0000 -0.3915
vn 0.0157 -0.0000 -0.9999
vn 0.8499 -0.0000 -0.5269
vn 0.9939 -0.0000 0.1099
vn -0.7669 -0.0000 0.6418
vn -0.9562 -0.0000 -0.2926
vn 0.7908 -0.0000 0.6121
vn 0.0587 -0.0000 0.9983
vn -0.8982 -0.0000 -0.4395
vn -0.7149 -0.0000 0.6992
vn -0.9674 -0.0000 -0.2534
vn -0.0175 -0.0000 -0.9998
vn 0.7726 -0.0000 0.6348
vn 0.8012 -0.0000 -0.5984
vn 0.9978 -0.0000 0.0658
vn 0.0118 -0.0000 0.9999
vn -0.8731 -0.0000 -0.4875
vn -0.6605 -0.0000 0.7508
vn -0.9769 -0.0000 -0.2138
vn -0.6048 -0.0000 0.7964
vn -0.9847 -0.0000 -0.1742
vn 0.7550 -0.0000 0.6557
vn 0.1252 -0.0000 -0.9921
vn -0.8493 -0.0000 -0.5278
vn 0.7467 -0.0000 -0.6652
vn 0.9998 -0.0000 0.0219
vn -0.5470 -0.0000 0.8371
vn -0.9909 -0.0000 -0.1347
vn 0.0856 -0.0000 -0.9963
vn 0.7380 -0.0000 0.6748
vn -0.0197 -0.0000 0.9998
vn -0.8271 -0.0000 -0.5620
vn -0.9954 -0.0000 -0.0955
vn 0.0492 -0.0000 -0.9988
vn 0.6877 -0.0000 -0.7260
vn -0.4879 -0.0000 0.8729
vn 0.0353 -0.0000 0.9994
vn 0.7216 -0.0000 0.6923
vn 0.9996 -0.0000 -0.0292
vn -0.8066 -0.0000 -0.5911
vn -0.9984 -0.0000 -0.0568
vn -0.0522 -0.0000 -0.9986
vn 0.6259 -0.0000 -0.7799
vn -0.4286 -0.0000 0.9035
vn -0.9998 -0.0000 -0.0188
vn 0.1054 -0.0000 0.9944
vn 0.7058 -0.0000 0.7084
vn 0.0821 -0.0000 0.9966
vn -0.7876 -0.0000 -0.6161
vn 0.2146 -0.0000 -0.9767
vn 0.5623 -0.0000 -0.8269
vn 0.9958 -0.0000 -0.0911
vn -0.7702 -0.0000 -0.6378
vn -0.3698 -0.0000 0.9291
vn -0.9996 -0.0000 0.0296
vn -0.7542 -0.0000 -0.6566
vn -0.9958 -0.0000 0.0917
vn 0.1681 -0.0000 -0.9858
vn 0.4984 -0.0000 -0.8669
vn -0.0614 -0.0000 0.9981
vn -0.7395 -0.0000 -0.6732
vn -0.3123 -0.0000 0.9500
vn 0.9875 -0.0000 -0.1574
vn -0.7259 -0.0000 -0.6878
vn -0.9875 -0.0000 0.1575
vn -0.9996 -0.0000 -0.0287
vn -0.9997 -0.0000 -0.0255
vn -0.0000 -0.0000 1.0000
vt 0.462222 0.000000
vt 0.457778 0.000000
vt 0.453333 0.000000
vt 0.448889 0.000000
vt 0.444444 0.000000
vt 0.440000 0.000000
vt 0.435556 0.000000
vt 0.431111 0.000000
vt 0.404444 0.000000
vt 0.400000 0.000000
vt 0.493333 0.000000
vt 0.497778 0.000000
vt 0.426667 0.000000
vt 0.466667 0.000000
vt 0.422222 0.000000
vt 0.471111 0.000000
vt 0.417778 0.000000
vt 0.475556 0.000000
vt 0.413333 0.000000
vt 0.480000 0.000000
vt 0.408889 0.000000
vt 0.484444 0.000000
vt 0.488889 0.000000
vt 0.395556 0.000000
vt 0.502222 0.000000
vt 0.391111 0.000000
vt 0.506667 0.000000
vt 0.511111 0.000000
vt 0.386667 0.000000
vt 0.515556 0.000000
vt 0.382222 0.000000
vt 0.520000 0.000000
vt 0.368889 0.000000
vt 0.364444 0.000000
vt 0.537778 0.000000
vt 0.542222 0.000000
vt 0.360000 0.000000
vt 0.546667 0.000000
vt 0.346667 0.000000
vt 0.560000 0.000000
vt 0.351111 0.000000
vt 0.555556 0.000000
vt 0.355556 0.000000
vt 0.564444 0.000000
vt 0.342222 0.000000
vt 0.568889 0.000000
vt 0.337778 0.000000
vt 0.333333 0.000000
vt 0.573333 0.000000
vt 0.551111 0.000000
vt 0.324444 0.000000
vt 0.577778 0.000000
vt 0.328889 0.000000
vt 0.000000 0.000000
vt 0.013333 0.000000
vt 0.008889 0.000000
vt 0.004444 0.000000
vt 0.017778 0.000000
vt 1.000000 0.000000
vt 0.022222 0.000000
vt 0.026667 0.000000
vt 0.995556 0.000000
vt 0.991111 0.000000
vt 0.986667 0.000000
vt 0.982222 0.000000
vt 0.977778 0.000000
vt 0.973333 0.000000
vt 0.968889 0.000000
vt 0.964444 0.000000
vt 0.960000 0.000000
vt 0.955556 0.000000
vt 0.951111 0.000000
vt 0.946667 0.000000
vt 0.942222 0.000000
vt 0.937778 0.000000
vt 0.933333 0.000000
vt 0.928889 0.000000
vt 0.031111 0.000000
vt 0.377778 0.000000
vt 0.524444 0.000000
vt 0.373333 0.000000
vt 0.528889 0.000000
vt 0.533333 0.000000
vt 0.737778 0.000000
vt 0.733333 0.000000
vt 0.222222 0.000000
vt 0.728889 0.000000
vt 0.226667 0.000000
vt 0.724444 0.000000
vt 0.720000 0.000000
vt 0.231111 0.000000
vt 0.715556 0.000000
vt 0.711111 0.000000
vt 0.235556 0.000000
vt 0.706667 0.000000
vt 0.702222 0.000000
vt 0.240000 0.000000
vt 0.697778 0.000000
vt 0.693333 0.000000
vt 0.244444 0.000000
vt 0.688889 0.000000
vt 0.684444 0.000000
vt 0.248889 0.000000
vt 0.680000 0.000000
vt 0.675556 0.000000
vt 0.253333 0.000000
vt 0.671111 0.000000
vt 0.666667 0.000000
vt 0.257778 0.000000
vt 0.662222 0.000000
vt 0.160000 0.000000
vt 0.155556 0.000000
vt 0.782222 0.000000
vt 0.164444 0.000000
vt 0.168889 0.000000
vt 0.173333 0.000000
vt 0.777778 0.000000
vt 0.177778 0.000000
vt 0.773333 0.000000
vt 0.182222 0.000000
vt 0.186667 0.000000
vt 0.768889 0.000000
vt 0.191111 0.000000
vt 0.764444 0.000000
vt 0.195556 0.000000
vt 0.760000 0.000000
vt 0.200000 0.000000
vt 0.755556 0.000000
vt 0.204444 0.000000
vt 0.751111 0.000000
vt 0.208889 0.000000
vt 0.746667 0.000000
vt 0.213333 0.000000
vt 0.742222 0.000000
vt 0.217778 0.000000
vt 0.262222 0.000000
vt 0.657778 0.000000
vt 0.266667 0.000000
vt 0.653333 0.000000
vt 0.648889 0.000000
vt 0.271111 0.000000
vt 0.644444 0.000000
vt 0.640000 0.000000
vt 0.275556 0.000000
vt 0.635556 0.000000
vt 0.280000 0.000000
vt 0.631111 0.000000
vt 0.626667 0.000000
vt 0.284444 0.000000
vt 0.622222 0.000000
vt 0.617778 0.000000
vt 0.288889 0.000000
vt 0.613333 0.000000
vt 0.293333 0.000000
vt 0.608889 0.000000
vt 0.297778 0.000000
vt 0.604444 0.000000
vt 0.302222 0.000000
vt 0.600000 0.000000
vt 0.306667 0.000000
vt 0.595556 0.000000
vt 0.924444 0.000000
vt 0.920000 0.000000
vt 0.915556 0.000000
vt 0.911111 0.000000
vt 0.906667 0.000000
vt 0.902222 0.000000
vt 0.897778 0.000000
vt 0.893333 0.000000
vt 0.035556 0.000000
vt 0.888889 0.000000
vt 0.040000 0.000000
vt 0.884444 0.000000
vt 0.044444 0.000000
vt 0.880000 0.000000
vt 0.048889 0.000000
vt 0.053333 0.000000
vt 0.875556 0.000000
vt 0.057778 0.000000
vt 0.871111 0.000000
vt 0.062222 0.000000
vt 0.866667 0.000000
vt 0.066667 0.000000
vt 0.071111 0.000000
vt 0.862222 0.000000
vt 0.075556 0.000000
vt 0.080000 0.000000
vt 0.857778 0.000000
vt 0.084444 0.000000
vt 0.088889 0.000000
vt 0.853333 0.000000
vt 0.093333 0.000000
vt 0.848889 0.000000
vt 0.097778 0.000000
vt 0.102222 0.000000
vt 0.844444 0.000000
vt 0.106667 0.000000
vt 0.840000 0.000000
vt 0.111111 0.000000
vt 0.835556 0.000000
vt 0.115556 0.000000
vt 0.831111 0.000000
vt 0.120000 0.000000
vt 0.826667 0.000000
vt 0.124444 0.000000
vt 0.822222 0.000000
vt 0.128889 0.000000
vt 0.817778 0.000000
vt 0.133333 0.000000
vt 0.813333 0.000000
vt 0.808889 0.000000
vt 0.804444 0.000000
vt 0.800000 0.000000
vt 0.795556 0.000000
vt 0.137778 0.000000
vt 0.791111 0.000000
vt 0.786667 0.000000
vt 0.142222 0.000000
vt 0.146667 0.000000
vt 0.151111 0.000000
vt 0.311111 0.000000
vt 0.591111 0.000000
vt 0.315556 0.000000
vt 0.586667 0.000000
vt 0.320000 0.000000
vt 0.582222 0.000000
s 0
f 105/1/1 104/2/1 103/3/1
f 105/1/1 103/3/1 102/4/1
f 102/4/1 101/5/1 105/1/1
f 105/1/1 101/5/1 100/6/1
f 100/6/1 99/7/1 105/1/1
f 99/7/1 98/8/1 105/1/1
f 92/9/1 91/10/1 112/11/1
f 113/12/1 112/11/1 91/10/1
f 105/1/1 98/8/1 97/13/1
f 106/14/1 105/1/1 97/13/1
f 97/13/1 96/15/1 106/14/1
f 107/16/1 106/14/1 96/15/1
f 96/15/1 95/17/1 107/16/1
f 108/18/1 107/16/1 95/17/1
f 95/17/1 94/19/1 108/18/1
f 109/20/1 108/18/1 94/19/1
f 94/19/1 93/21/1 109/20/1
f 110/22/1 109/20/1 93/21/1
f 111/23/1 110/22/1 93/21/1
f 93/21/1 92/9/1 111/23/1
f 92/9/1 112/11/1 111/23/1
f 113/12/1 91/10/1 90/24/1
f 114/25/1 113/12/1 90/24/1
f 90/24/1 89/26/1 114/25/1
f 115/27/1 114/25/1 89/26/1
f 116/28/1 115/27/1 89/26/1
f 89/26/1 88/29/1 116/28/1
f 117/30/1 116/28/1 88/29/1
f 88/29/1 87/31/1 117/30/1
f 87/31/1 118/32/1 117/30/1
f 84/33/1 83/34/1 122/35/1
f 123/36/1 122/35/1 83/34/1
f 83/34/1 82/37/1 123/36/1
f 82/37/1 124/38/1 123/36/1
f 79/39/1 127/40/1 80/41/1
f 126/42/1 80/41/1 127/40/1
f 80/41/1 126/42/1 81/43/1
f 128/44/1 78/45/1 129/46/1
f 77/47/1 76/48/1 130/49/1
f 129/46/1 78/45/1 77/47/1
f 77/47/1 130/49/1 129/46/1
f 78/45/1 128/44/1 79/39/1
f 127/40/1 79/39/1 128/44/1
f 124/38/1 82/37/1 81/43/1
f 125/50/1 124/38/1 81/43/1
f 81/43/1 126/42/1 125/50/1
f 74/51/1 131/52/1 75/53/1
f 76/48/1 75/53/1 131/52/1
f 130/49/1 76/48/1 131/52/1
f 1/54/1 4/55/1 3/56/1
f 3/56/1 2/57/1 1/54/1
f 5/58/1 226/59/1 6/60/1
f 7/61/1 6/60/1 226/59/1
f 226/59/1 225/62/1 7/61/1
f 225/62/1 224/63/1 7/61/1
f 224/63/1 223/64/1 7/61/1
f 223/64/1 222/65/1 7/61/1
f 222/65/1 221/66/1 7/61/1
f 221/66/1 220/67/1 7/61/1
f 220/67/1 219/68/1 7/61/1
f 219/68/1 218/69/1 7/61/1
f 218/69/1 217/70/1 7/61/1
f 217/70/1 216/71/1 7/61/1
f 216/71/1 215/72/1 7/61/1
f 215/72/1 214/73/1 7/61/1
f 214/73/1 213/74/1 7/61/1
f 213/74/1 212/75/1 7/61/1
f 212/75/1 211/76/1 7/61/1
f 211/76/1 210/77/1 7/61/1
f 8/78/1 7/61/1 210/77/1
f 118/32/1 87/31/1 86/79/1
f 119/80/1 118/32/1 86/79/1
f 86/79/1 85/81/1 119/80/1
f 120/82/1 119/80/1 85/81/1
f 121/83/1 120/82/1 85/81/1
f 85/81/1 84/33/1 121/83/1
f 84/33/1 122/35/1 121/83/1
f 167/84/1 166/85/1 51/86/1
f 166/85/1 165/87/1 51/86/1
f 52/88/1 51/86/1 165/87/1
f 165/87/1 164/89/1 52/88/1
f 164/89/1 163/90/1 52/88/1
f 53/91/1 52/88/1 163/90/1
f 163/90/1 162/92/1 53/91/1
f 162/92/1 161/93/1 53/91/1
f 54/94/1 53/91/1 161/93/1
f 161/93/1 160/95/1 54/94/1
f 160/95/1 159/96/1 54/94/1
f 55/97/1 54/94/1 159/96/1
f 159/96/1 158/98/1 55/97/1
f 158/98/1 157/99/1 55/97/1
f 56/100/1 55/97/1 157/99/1
f 157/99/1 156/101/1 56/100/1
f 156/101/1 155/102/1 56/100/1
f 57/103/1 56/100/1 155/102/1
f 155/102/1 154/104/1 57/103/1
f 154/104/1 153/105/1 57/103/1
f 58/106/1 57/103/1 153/105/1
f 153/105/1 152/107/1 58/106/1
f 152/107/1 151/108/1 58/106/1
f 59/109/1 58/106/1 151/108/1
f 151/108/1 150/110/1 59/109/1
f 37/111/1 36/112/1 177/113/1
f 38/114/1 37/111/1 177/113/1
f 39/115/1 38/114/1 177/113/1
f 40/116/1 39/115/1 177/113/1
f 177/113/1 176/117/1 40/116/1
f 41/118/1 40/116/1 176/117/1
f 176/117/1 175/119/1 41/118/1
f 42/120/1 41/118/1 175/119/1
f 43/121/1 42/120/1 175/119/1
f 175/119/1 174/122/1 43/121/1
f 44/123/1 43/121/1 174/122/1
f 174/122/1 173/124/1 44/123/1
f 45/125/1 44/123/1 173/124/1
f 173/124/1 172/126/1 45/125/1
f 46/127/1 45/125/1 172/126/1
f 172/126/1 171/128/1 46/127/1
f 47/129/1 46/127/1 171/128/1
f 171/128/1 170/130/1 47/129/1
f 48/131/1 47/129/1 170/130/1
f 170/130/1 169/132/1 48/131/1
f 49/133/1 48/131/1 169/132/1
f 169/132/1 168/134/1 49/133/1
f 50/135/1 49/133/1 168/134/1
f 168/134/1 167/84/1 50/135/1
f 167/84/1 51/86/1 50/135/1
f 59/109/1 150/110/1 60/136/1
f 150/110/1 149/137/1 60/136/1
f 61/138/1 60/136/1 149/137/1
f 149/137/1 148/139/1 61/138/1
f 148/139/1 147/140/1 61/138/1
f 62/141/1 61/138/1 147/140/1
f 147/140/1 146/142/1 62/141/1
f 146/142/1 145/143/1 62/141/1
f 63/144/1 62/141/1 145/143/1
f 145/143/1 144/145/1 63/144/1
f 64/146/1 63/144/1 144/145/1
f 144/145/1 143/147/1 64/146/1
f 143/147/1 142/148/1 64/146/1
f 65/149/1 64/146/1 142/148/1
f 142/148/1 141/150/1 65/149/1
f 141/150/1 140/151/1 65/149/1
f 66/152/1 65/149/1 140/151/1
f 140/151/1 139/153/1 66/152/1
f 67/154/1 66/152/1 139/153/1
f 139/153/1 138/155/1 67/154/1
f 68/156/1 67/154/1 138/155/1
f 138/155/1 137/157/1 68/156/1
f 69/158/1 68/156/1 137/157/1
f 137/157/1 136/159/1 69/158/1
f 70/160/1 69/158/1 136/159/1
f 136/159/1 135/161/1 70/160/1
f 8/78/1 210/77/1 209/162/1
f 209/162/1 208/163/1 8/78/1
f 208/163/1 207/164/1 8/78/1
f 207/164/1 206/165/1 8/78/1
f 206/165/1 205/166/1 8/78/1
f 205/166/1 204/167/1 8/78/1
f 204/167/1 203/168/1 8/78/1
f 203/168/1 202/169/1 8/78/1
f 9/170/1 8/78/1 202/169/1
f 202/169/1 201/171/1 9/170/1
f 10/172/1 9/170/1 201/171/1
f 201/171/1 200/173/1 10/172/1
f 11/174/1 10/172/1 200/173/1
f 200/173/1 199/175/1 11/174/1
f 12/176/1 11/174/1 199/175/1
f 13/177/1 12/176/1 199/175/1
f 199/175/1 198/178/1 13/177/1
f 14/179/1 13/177/1 198/178/1
f 198/178/1 197/180/1 14/179/1
f 15/181/1 14/179/1 197/180/1
f 197/180/1 196/182/1 15/181/1
f 16/183/1 15/181/1 196/182/1
f 17/184/1 16/183/1 196/182/1
f 196/182/1 195/185/1 17/184/1
f 18/186/1 17/184/1 195/185/1
f 19/187/1 18/186/1 195/185/1
f 195/185/1 194/188/1 19/187/1
f 20/189/1 19/187/1 194/188/1
f 21/190/1 20/189/1 194/188/1
f 194/188/1 193/191/1 21/190/1
f 22/192/1 21/190/1 193/191/1
f 193/191/1 192/193/1 22/192/1
f 23/194/1 22/192/1 192/193/1
f 24/195/1 23/194/1 192/193/1
f 192/193/1 191/196/1 24/195/1
f 25/197/1 24/195/1 191/196/1
f 191/196/1 190/198/1 25/197/1
f 26/199/1 25/197/1 190/198/1
f 190/198/1 189/200/1 26/199/1
f 27/201/1 26/199/1 189/200/1
f 189/200/1 188/202/1 27/201/1
f 28/203/1 27/201/1 188/202/1
f 188/202/1 187/204/1 28/203/1
f 29/205/1 28/203/1 187/204/1
f 187/204/1 186/206/1 29/205/1
f 30/207/1 29/205/1 186/206/1
f 186/206/1 185/208/1 30/207/1
f 31/209/1 30/207/1 185/208/1
f 185/208/1 184/210/1 31/209/1
f 184/210/1 183/211/1 31/209/1
f 183/211/1 182/212/1 31/209/1
f 182/212/1 181/213/1 31/209/1
f 181/213/1 180/214/1 31/209/1
f 32/215/1 31/209/1 180/214/1
f 180/214/1 179/216/1 32/215/1
f 179/216/1 178/217/1 32/215/1
f 33/218/1 32/215/1 178/217/1
f 34/219/1 33/218/1 178/217/1
f 35/220/1 34/219/1 178/217/1
f 178/217/1 177/113/1 35/220/1
f 177/113/1 36/112/1 35/220/1
f 70/160/1 135/161/1 71/221/1
f 135/161/1 134/222/1 71/221/1
f 72/223/1 71/221/1 134/222/1
f 134/222/1 133/224/1 72/223/1
f 73/225/1 72/223/1 133/224/1
f 133/224/1 132/226/1 73/225/1
f 74/51/1 73/225/1 132/226/1
f 131/52/1 74/51/1 132/226/1
f 331/1/2 329/3/2 330/2/2
f 331/1/2 328/4/2 329/3/2
f 328/4/2 331/1/2 327/5/2
f 331/1/2 326/6/2 327/5/2
f 326/6/2 331/1/2 325/7/2
f 325/7/2 331/1/2 324/8/2
f 318/9/2 338/11/2 317/10/2
f 339/12/2 317/10/2 338/11/2
f 331/1/2 323/13/2 324/8/2
f 332/14/2 323/13/2 331/1/2
f 323/13/2 332/14/2 322/15/2
f 333/16/2 322/15/2 332/14/2
f 322/15/2 333/16/2 321/17/2
f 334/18/2 321/17/2 333/16/2
f 321/17/2 334/18/2 320/19/2
f 335/20/2 320/19/2 334/18/2
f 320/19/2 335/20/2 319/21/2
f 336/22/2 319/21/2 335/20/2
f 337/23/2 319/21/2 336/22/2
f 319/21/2 337/23/2 318/9/2
f 318/9/2 337/23/2 338/11/2
f 339/12/2 316/24/2 317/10/2
f 340/25/2 316/24/2 339/12/2
f 316/24/2 340/25/2 315/26/2
f 341/27/2 315/26/2 340/25/2
f 342/28/2 315/26/2 341/27/2
f 315/26/2 342/28/2 314/29/2
f 343/30/2 314/29/2 342/28/2
f 314/29/2 343/30/2 313/31/2
f 313/31/2 343/30/2 344/32/2
f 310/33/2 348/35/2 309/34/2
f 349/36/2 309/34/2 348/35/2
f 309/34/2 349/36/2 308/37/2
f 308/37/2 349/36/2 350/38/2
f 305/39/2 306/41/2 353/40/2
f 352/42/2 353/40/2 306/41/2
f 306/41/2 307/43/2 352/42/2
f 354/44/2 355/46/2 304/45/2
f 303/47/2 356/49/2 302/48/2
f 355/46/2 303/47/2 304/45/2
f 303/47/2 355/46/2 356/49/2
f 304/45/2 305/39/2 354/44/2
f 353/40/2 354/44/2 305/39/2
f 350/38/2 307/43/2 308/37/2
f 351/50/2 307/43/2 350/38/2
f 307/43/2 351/50/2 352/42/2
f 300/51/2 301/53/2 357/52/2
f 302/48/2 357/52/2 301/53/2
f 356/49/2 357/52/2 302/48/2
f 227/54/2 229/56/2 230/55/2
f 229/56/2 227/54/2 228/57/2
f 231/58/2 232/60/2 452/59/2
f 233/61/2 452/59/2 232/60/2
f 452/59/2 233/61/2 451/62/2
f 451/62/2 233/61/2 450/63/2
f 450/63/2 233/61/2 449/64/2
f 449/64/2 233/61/2 448/65/2
f 448/65/2 233/61/2 447/66/2
f 447/66/2 233/61/2 446/67/2
f 446/67/2 233/61/2 445/68/2
f 445/68/2 233/61/2 444/69/2
f 444/69/2 233/61/2 443/70/2
f 443/70/2 233/61/2 442/71/2
f 442/71/2 233/61/2 441/72/2
f 441/72/2 233/61/2 440/73/2
f 440/73/2 233/61/2 439/74/2
f 439/74/2 233/61/2 438/75/2
f 438/75/2 233/61/2 437/76/2
f 437/76/2 233/61/2 436/77/2
f 234/78/2 436/77/2 233/61/2
f 344/32/2 312/79/2 313/31/2
f 345/80/2 312/79/2 344/32/2
f 312/79/2 345/80/2 311/81/2
f 346/82/2 311/81/2 345/80/2
f 347/83/2 311/81/2 346/82/2
f 311/81/2 347/83/2 310/33/2
f 310/33/2 347/83/2 348/35/2
f 393/84/2 277/86/2 392/85/2
f 392/85/2 277/86/2 391/87/2
f 278/88/2 391/87/2 277/86/2
f 391/87/2 278/88/2 390/89/2
f 390/89/2 278/88/2 389/90/2
f 279/91/2 389/90/2 278/88/2
f 389/90/2 279/91/2 388/92/2
f 388/92/2 279/91/2 387/93/2
f 280/94/2 387/93/2 279/91/2
f 387/93/2 280/94/2 386/95/2
f 386/95/2 280/94/2 385/96/2
f 281/97/2 385/96/2 280/94/2
f 385/96/2 281/97/2 384/98/2
f 384/98/2 281/97/2 383/99/2
f 282/100/2 383/99/2 281/97/2
f 383/99/2 282/100/2 382/101/2
f 382/101/2 282/100/2 381/102/2
f 283/103/2 381/102/2 282/100/2
f 381/102/2 283/103/2 380/104/2
f 380/104/2 283/103/2 379/105/2
f 284/106/2 379/105/2 283/103/2
f 379/105/2 284/106/2 378/107/2
f 378/107/2 284/106/2 377/108/2
f 285/109/2 377/108/2 284/106/2
f 377/108/2 285/109/2 376/110/2
f 263/111/2 403/113/2 262/112/2
f 264/114/2 403/113/2 263/111/2
f 265/115/2 403/113/2 264/114/2
f 266/116/2 403/113/2 265/115/2
f 403/113/2 266/116/2 402/117/2
f 267/118/2 402/117/2 266/116/2
f 402/117/2 267/118/2 401/119/2
f 268/120/2 401/119/2 267/118/2
f 269/121/2 401/119/2 268/120/2
f 401/119/2 269/121/2 400/122/2
f 270/123/2 400/122/2 269/121/2
f 400/122/2 270/123/2 399/124/2
f 271/125/2 399/124/2 270/123/2
f 399/124/2 271/125/2 398/126/2
f 272/127/2 398/126/2 271/125/2
f 398/126/2 272/127/2 397/128/2
f 273/129/2 397/128/2 272/127/2
f 397/128/2 273/129/2 396/130/2
f 274/131/2 396/130/2 273/129/2
f 396/130/2 274/131/2 395/132/2
f 275/133/2 395/132/2 274/131/2
f 395/132/2 275/133/2 394/134/2
f 276/135/2 394/134/2 275/133/2
f 394/134/2 276/135/2 393/84/2
f 393/84/2 276/135/2 277/86/2
f 285/109/2 286/136/2 376/110/2
f 376/110/2 286/136/2 375/137/2
f 287/138/2 375/137/2 286/136/2
f 375/137/2 287/138/2 374/139/2
f 374/139/2 287/138/2 373/140/2
f 288/141/2 373/140/2 287/138/2
f 373/140/2 288/141/2 372/142/2
f 372/142/2 288/141/2 371/143/2
f 289/144/2 371/143/2 288/141/2
f 371/143/2 289/144/2 370/145/2
f 290/146/2 370/145/2 289/144/2
f 370/145/2 290/146/2 369/147/2
f 369/147/2 290/146/2 368/148/2
f 291/149/2 368/148/2 290/146/2
f 368/148/2 291/149/2 367/150/2
f 367/150/2 291/149/2 366/151/2
f 292/152/2 366/151/2 291/149/2
f 366/151/2 292/152/2 365/153/2
f 293/154/2 365/153/2 292/152/2
f 365/153/2 293/154/2 364/155/2
f 294/156/2 364/155/2 293/154/2
f 364/155/2 294/156/2 363/157/2
f 295/158/2 363/157/2 294/156/2
f 363/157/2 295/158/2 362/159/2
f 296/160/2 362/159/2 295/158/2
f 362/159/2 296/160/2 361/161/2
f 234/78/2 435/162/2 436/77/2
f 435/162/2 234/78/2 434/163/2
f 434/163/2 234/78/2 433/164/2
f 433/164/2 234/78/2 432/165/2
f 432/165/2 234/78/2 431/166/2
f 431/166/2 234/78/2 430/167/2
f 430/167/2 234/78/2 429/168/2
f 429/168/2 234/78/2 428/169/2
f 235/170/2 428/169/2 234/78/2
f 428/169/2 235/170/2 427/171/2
f 236/172/2 427/171/2 235/170/2
f 427/171/2 236/172/2 426/173/2
f 237/174/2 426/173/2 236/172/2
f 426/173/2 237/174/2 425/175/2
f 238/176/2 425/175/2 237/174/2
f 239/177/2 425/175/2 238/176/2
f 425/175/2 239/177/2 424/178/2
f 240/179/2 424/178/2 239/177/2
f 424/178/2 240/179/2 423/180/2
f 241/181/2 423/180/2 240/179/2
f 423/180/2 241/181/2 422/182/2
f 242/183/2 422/182/2 241/181/2
f 243/184/2 422/182/2 242/183/2
f 422/182/2 243/184/2 421/185/2
f 244/186/2 421/185/2 243/184/2
f 245/187/2 421/185/2 244/186/2
f 421/185/2 245/187/2 420/188/2
f 246/189/2 420/188/2 245/187/2
f 247/190/2 420/188/2 246/189/2
f 420/188/2 247/190/2 419/191/2
f 248/192/2 419/191/2 247/190/2
f 419/191/2 248/192/2 418/193/2
f 249/194/2 418/193/2 248/192/2
f 250/195/2 418/193/2 249/194/2
f 418/193/2 250/195/2 417/196/2
f 251/197/2 417/196/2 250/195/2
f 417/196/2 251/197/2 416/198/2
f 252/199/2 416/198/2 251/197/2
f 416/198/2 252/199/2 415/200/2
f 253/201/2 415/200/2 252/199/2
f 415/200/2 253/201/2 414/202/2
f 254/203/2 414/202/2 253/201/2
f 414/202/2 254/203/2 413/204/2
f 255/205/2 413/204/2 254/203/2
f 413/204/2 255/205/2 412/206/2
f 256/207/2 412/206/2 255/205/2
f 412/206/2 256/207/2 411/208/2
f 257/209/2 411/208/2 256/207/2
f 411/208/2 257/209/2 410/210/2
f 410/210/2 257/209/2 409/211/2
f 409/211/2 257/209/2 408/212/2
f 408/212/2 257/209/2 407/213/2
f 407/213/2 257/209/2 406/214/2
f 258/215/2 406/214/2 257/209/2
f 406/214/2 258/215/2 405/216/2
f 405/216/2 258/215/2 404/217/2
f 259/218/2 404/217/2 258/215/2
f 260/219/2 404/217/2 259/218/2
f 261/220/2 404/217/2 260/219/2
f 404/217/2 261/220/2 403/113/2
f 403/113/2 261/220/2 262/112/2
f 296/160/2 297/221/2 361/161/2
f 361/161/2 297/221/2 360/222/2
f 298/223/2 360/222/2 297/221/2
f 360/222/2 298/223/2 359/224/2
f 299/225/2 359/224/2 298/223/2
f 359/224/2 299/225/2 358/226/2
f 300/51/2 358/226/2 299/225/2
f 357/52/2 358/226/2 300/51/2
f 32/215/3 258/215/3 257/209/3 31/209/3
f 37/111/4 263/111/4 262/112/4 36/112/4
f 6/60/5 232/60/5 231/58/5 5/58/5
f 105/1/6 331/1/6 330/2/6 104/2/6
f 180/214/7 406/214/7 405/216/7 179/216/7
f 208/163/8 434/163/8 433/164/8 207/164/8
f 5/58/9 231/58/9 452/59/9 226/59/9
f 104/2/10 330/2/10 329/3/10 103/3/10
f 179/216/11 405/216/11 404/217/11 178/217/11
f 207/164/12 433/164/12 432/165/12 206/165/12
f 38/114/13 264/114/13 263/111/13 37/111/13
f 103/3/14 329/3/14 328/4/14 102/4/14
f 7/61/6 233/61/6 232/60/6 6/60/6
f 102/4/15 328/4/15 327/5/15 101/5/15
f 206/165/16 432/165/16 431/166/16 205/166/16
f 39/115/17 265/115/17 264/114/17 38/114/17
f 226/59/18 452/59/18 451/62/18 225/62/18
f 33/218/19 259/218/19 258/215/19 32/215/19
f 205/166/20 431/166/20 430/167/20 204/167/20
f 40/116/21 266/116/21 265/115/21 39/115/21
f 225/62/22 451/62/22 450/63/22 224/63/22
f 101/5/23 327/5/23 326/6/23 100/6/23
f 34/219/24 260/219/24 259/218/24 33/218/24
f 177/113/25 403/113/25 402/117/25 176/117/25
f 100/6/26 326/6/26 325/7/26 99/7/26
f 204/167/27 430/167/27 429/168/27 203/168/27
f 224/63/28 450/63/28 449/64/28 223/64/28
f 35/220/29 261/220/29 260/219/29 34/219/29
f 99/7/30 325/7/30 324/8/30 98/8/30
f 178/217/31 404/217/31 403/113/31 177/113/31
f 203/168/32 429/168/32 428/169/32 202/169/32
f 41/118/33 267/118/33 266/116/33 40/116/33
f 223/64/34 449/64/34 448/65/34 222/65/34
f 176/117/35 402/117/35 401/119/35 175/119/35
f 36/112/36 262/112/36 261/220/36 35/220/36
f 222/65/37 448/65/37 447/66/37 221/66/37
f 92/9/38 318/9/38 317/10/38 91/10/38
f 71/221/39 297/221/39 296/160/39 70/160/39
f 9/170/40 235/170/40 234/78/40 8/78/40
f 202/169/41 428/169/41 427/171/41 201/171/41
f 42/120/42 268/120/42 267/118/42 41/118/42
f 221/66/43 447/66/43 446/67/43 220/67/43
f 135/161/44 361/161/44 360/222/44 134/222/44
f 113/12/45 339/12/45 338/11/45 112/11/45
f 43/121/46 269/121/46 268/120/46 42/120/46
f 220/67/47 446/67/47 445/68/47 219/68/47
f 10/172/48 236/172/48 235/170/48 9/170/48
f 175/119/49 401/119/49 400/122/49 174/122/49
f 98/8/50 324/8/50 323/13/50 97/13/50
f 72/223/51 298/223/51 297/221/51 71/221/51
f 201/171/52 427/171/52 426/173/52 200/173/52
f 219/68/53 445/68/53 444/69/53 218/69/53
f 134/222/54 360/222/54 359/224/54 133/224/54
f 106/14/55 332/14/55 331/1/55 105/1/55
f 44/123/56 270/123/56 269/121/56 43/121/56
f 218/69/57 444/69/57 443/70/57 217/70/57
f 97/13/58 323/13/58 322/15/58 96/15/58
f 11/174/59 237/174/59 236/172/59 10/172/59
f 174/122/60 400/122/60 399/124/60 173/124/60
f 73/225/61 299/225/61 298/223/61 72/223/61
f 200/173/62 426/173/62 425/175/62 199/175/62
f 217/70/63 443/70/63 442/71/63 216/71/63
f 133/224/64 359/224/64 358/226/64 132/226/64
f 107/16/65 333/16/65 332/14/65 106/14/65
f 45/125/66 271/125/66 270/123/66 44/123/66
f 216/71/67 442/71/67 441/72/67 215/72/67
f 96/15/68 322/15/68 321/17/68 95/17/68
f 12/176/69 238/176/69 237/174/69 11/174/69
f 173/124/70 399/124/70 398/126/70 172/126/70
f 74/51/71 300/51/71 299/225/71 73/225/71
f 215/72/72 441/72/72 440/73/72 214/73/72
f 132/226/73 358/226/73 357/52/73 131/52/73
f 13/177/74 239/177/74 238/176/74 12/176/74
f 108/18/75 334/18/75 333/16/75 107/16/75
f 199/175/76 425/175/76 424/178/76 198/178/76
f 46/127/77 272/127/77 271/125/77 45/125/77
f 214/73/78 440/73/78 439/74/78 213/74/78
f 95/17/79 321/17/79 320/19/79 94/19/79
f 172/126/80 398/126/80 397/128/80 171/128/80
f 213/74/81 439/74/81 438/75/81 212/75/81
f 14/179/82 240/179/82 239/177/82 13/177/82
f 109/20/83 335/20/83 334/18/83 108/18/83
f 198/178/84 424/178/84 423/180/84 197/180/84
f 47/129/85 273/129/85 272/127/85 46/127/85
f 212/75/86 438/75/86 437/76/86 211/76/86
f 94/19/87 320/19/87 319/21/87 93/21/87
f 171/128/88 397/128/88 396/130/88 170/130/88
f 211/76/89 437/76/89 436/77/89 210/77/89
f 15/181/90 241/181/90 240/179/90 14/179/90
f 110/22/91 336/22/91 335/20/91 109/20/91
f 197/180/92 423/180/92 422/182/92 196/182/92
f 48/131/93 274/131/93 273/129/93 47/129/93
f 170/130/94 396/130/94 395/132/94 169/132/94
f 8/78/95 234/78/95 233/61/95 7/61/95
f 111/23/96 337/23/96 336/22/96 110/22/96
f 93/21/97 319/21/97 318/9/97 92/9/97
f 16/183/98 242/183/98 241/181/98 15/181/98
f 87/31/99 313/31/99 312/79/99 86/79/99
f 49/133/100 275/133/100 274/131/100 48/131/100
f 112/11/101 338/11/101 337/23/101 111/23/101
f 17/184/102 243/184/102 242/183/102 16/183/102
f 169/132/103 395/132/103 394/134/103 168/134/103
f 119/80/104 345/80/104 344/32/104 118/32/104
f 196/182/105 422/182/105 421/185/105 195/185/105
f 86/79/106 312/79/106 311/81/106 85/81/106
f 91/10/107 317/10/107 316/24/107 90/24/107
f 50/135/108 276/135/108 275/133/108 49/133/108
f 114/25/109 340/25/109 339/12/109 113/12/109
f 18/186/110 244/186/110 243/184/110 17/184/110
f 168/134/111 394/134/111 393/84/111 167/84/111
f 120/82/112 346/82/112 345/80/112 119/80/112
f 90/24/113 316/24/113 315/26/113 89/26/113
f 19/187/114 245/187/114 244/186/114 18/186/114
f 51/86/115 277/86/115 276/135/115 50/135/115
f 121/83/116 347/83/116 346/82/116 120/82/116
f 195/185/117 421/185/117 420/188/117 194/188/117
f 60/136/118 286/136/118 285/109/118 59/109/118
f 85/81/119 311/81/119 310/33/119 84/33/119
f 115/27/120 341/27/120 340/25/120 114/25/120
f 150/110/121 376/110/121 375/137/121 149/137/121
f 122/35/122 348/35/122 347/83/122 121/83/122
f 116/28/123 342/28/123 341/27/123 115/27/123
f 20/189/124 246/189/124 245/187/124 19/187/124
f 89/26/125 315/26/125 314/29/125 88/29/125
f 167/84/126 393/84/126 392/85/126 166/85/126
f 21/190/127 247/190/127 246/189/127 20/189/127
f 61/138/128 287/138/128 286/136/128 60/136/128
f 194/188/129 420/188/129 419/191/129 193/191/129
f 149/137/130 375/137/130 374/139/130 148/139/130
f 166/85/131 392/85/131 391/87/131 165/87/131
f 117/30/132 343/30/132 342/28/132 116/28/132
f 88/29/133 314/29/133 313/31/133 87/31/133
f 148/139/134 374/139/134 373/140/134 147/140/134
f 22/192/135 248/192/135 247/190/135 21/190/135
f 52/88/136 278/88/136 277/86/136 51/86/136
f 193/191/137 419/191/137 418/193/137 192/193/137
f 165/87/138 391/87/138 390/89/138 164/89/138
f 118/32/139 344/32/139 343/30/139 117/30/139
f 62/141/140 288/141/140 287/138/140 61/138/140
f 147/140/141 373/140/141 372/142/141 146/142/141
f 164/89/142 390/89/142 389/90/142 163/90/142
f 84/33/143 310/33/143 309/34/143 83/34/143
f 23/194/144 249/194/144 248/192/144 22/192/144
f 146/142/145 372/142/145 371/143/145 145/143/145
f 24/195/146 250/195/146 249/194/146 23/194/146
f 53/91/147 279/91/147 278/88/147 52/88/147
f 123/36/148 349/36/148 348/35/148 122/35/148
f 192/193/149 418/193/149 417/196/149 191/196/149
f 163/90/150 389/90/150 388/92/150 162/92/150
f 83/34/151 309/34/151 308/37/151 82/37/151
f 63/144/152 289/144/152 288/141/152 62/141/152
f 145/143/153 371/143/153 370/145/153 144/145/153
f 162/92/154 388/92/154 387/93/154 161/93/154
f 25/197/155 251/197/155 250/195/155 24/195/155
f 124/38/156 350/38/156 349/36/156 123/36/156
f 191/196/157 417/196/157 416/198/157 190/198/157
f 80/41/158 306/41/158 305/39/158 79/39/158
f 64/146/159 290/146/159 289/144/159 63/144/159
f 54/94/160 280/94/160 279/91/160 53/91/160
f 144/145/161 370/145/161 369/147/161 143/147/161
f 161/93/162 387/93/162 386/95/162 160/95/162
f 26/199/163 252/199/163 251/197/163 25/197/163
f 127/40/164 353/40/164 352/42/164 126/42/164
f 190/198/165 416/198/165 415/200/165 189/200/165
f 143/147/166 369/147/166 368/148/166 142/148/166
f 160/95/167 386/95/167 385/96/167 159/96/167
f 81/43/168 307/43/168 306/41/168 80/41/168
f 27/201/169 253/201/169 252/199/169 26/199/169
f 65/149/170 291/149/170 290/146/170 64/146/170
f 55/97/171 281/97/171 280/94/171 54/94/171
f 129/46/172 355/46/172 354/44/172 128/44/172
f 189/200/173 415/200/173 414/202/173 188/202/173
f 142/148/174 368/148/174 367/150/174 141/150/174
f 159/96/175 385/96/175 384/98/175 158/98/175
f 141/150/176 367/150/176 366/151/176 140/151/176
f 158/98/177 384/98/177 383/99/177 157/99/177
f 28/203/178 254/203/178 253/201/178 27/201/178
f 77/47/179 303/47/179 302/48/179 76/48/179
f 188/202/180 414/202/180 413/204/180 187/204/180
f 66/152/181 292/152/181 291/149/181 65/149/181
f 56/100/182 282/100/182 281/97/182 55/97/182
f 140/151/183 366/151/183 365/153/183 139/153/183
f 157/99/184 383/99/184 382/101/184 156/101/184
f 78/45/185 304/45/185 303/47/185 77/47/185
f 29/205/186 255/205/186 254/203/186 28/203/186
f 130/49/187 356/49/187 355/46/187 129/46/187
f 187/204/188 413/204/188 412/206/188 186/206/188
f 156/101/189 382/101/189 381/102/189 155/102/189
f 79/39/190 305/39/190 304/45/190 78/45/190
f 67/154/191 293/154/191 292/152/191 66/152/191
f 139/153/192 365/153/192 364/155/192 138/155/192
f 128/44/193 354/44/193 353/40/193 127/40/193
f 30/207/194 256/207/194 255/205/194 29/205/194
f 57/103/195 283/103/195 282/100/195 56/100/195
f 186/206/196 412/206/196 411/208/196 185/208/196
f 155/102/197 381/102/197 380/104/197 154/104/197
f 82/37/198 308/37/198 307/43/198 81/43/198
f 68/156/199 294/156/199 293/154/199 67/154/199
f 138/155/200 364/155/200 363/157/200 137/157/200
f 154/104/201 380/104/201 379/105/201 153/105/201
f 125/50/202 351/50/202 350/38/202 124/38/202
f 31/209/203 257/209/203 256/207/203 30/207/203
f 126/42/204 352/42/204 351/50/204 125/50/204
f 185/208/205 411/208/205 410/210/205 184/210/205
f 75/53/206 301/53/206 300/51/206 74/51/206
f 69/158/207 295/158/207 294/156/207 68/156/207
f 58/106/208 284/106/208 283/103/208 57/103/208
f 184/210/209 410/210/209 409/211/209 183/211/209
f 137/157/210 363/157/210 362/159/210 136/159/210
f 153/105/211 379/105/211 378/107/211 152/107/211
f 183/211/212 409/211/212 408/212/212 182/212/212
f 152/107/213 378/107/213 377/108/213 151/108/213
f 76/48/214 302/48/214 301/53/214 75/53/214
f 70/160/215 296/160/215 295/158/215 69/158/215
f 131/52/216 357/52/216 356/49/216 130/49/216
f 182/212/217 408/212/217 407/213/217 181/213/217
f 136/159/218 362/159/218 361/161/218 135/161/218
f 59/109/219 285/109/219 284/106/219 58/106/219
f 1/54/6 227/54/6 230/55/6 4/55/6
f 181/213/220 407/213/220 406/214/220 180/214/220
f 151/108/221 377/108/221 376/110/221 150/110/221
f 4/55/5 230/55/5 229/56/5 3/56/5
f 210/77/222 436/77/222 435/162/222 209/162/222
f 3/56/9 229/56/9 228/57/9 2/57/9
f 209/162/223 435/162/223 434/163/223 208/163/223
f 2/57/224 228/57/224 227/54/224 1/54/224
