# Blender 5.1.2
# www.blender.org
o Cylinder
v 0.000000 0.450000 -0.124092
v 0.000000 0.450000 -0.015000
v 0.087791 0.441353 -0.124092
v 0.087791 0.441353 -0.015000
v 0.172208 0.415746 -0.124092
v 0.172208 0.415746 -0.015000
v 0.250007 0.374161 -0.124092
v 0.250007 0.374161 -0.015000
v 0.318198 0.318198 -0.124092
v 0.318198 0.318198 -0.015000
v 0.374161 0.250007 -0.124092
v 0.374161 0.250007 -0.015000
v 0.415746 0.172208 -0.124092
v 0.415746 0.172208 -0.015000
v 0.441353 0.087791 -0.124092
v 0.441353 0.087791 -0.015000
v 0.450000 0.000000 -0.124092
v 0.450000 0.000000 -0.015000
v 0.441353 -0.087791 -0.124092
v 0.441353 -0.087791 -0.015000
v 0.415746 -0.172208 -0.124092
v 0.415746 -0.172208 -0.015000
v 0.374161 -0.250007 -0.124092
v 0.374161 -0.250007 -0.015000
v 0.318198 -0.318198 -0.124092
v 0.318198 -0.318198 -0.015000
v 0.250007 -0.374161 -0.124092
v 0.250007 -0.374161 -0.015000
v 0.172208 -0.415746 -0.124092
v 0.172208 -0.415746 -0.015000
v 0.087791 -0.441353 -0.124092
v 0.087791 -0.441353 -0.015000
v 0.000000 -0.450000 -0.124092
v 0.000000 -0.450000 -0.015000
v -0.087791 -0.441353 -0.124092
v -0.087791 -0.441353 -0.015000
v -0.172208 -0.415746 -0.124092
v -0.172208 -0.415746 -0.015000
v -0.250007 -0.374161 -0.124092
v -0.250007 -0.374161 -0.015000
v -0.318198 -0.318198 -0.124092
v -0.318198 -0.318198 -0.015000
v -0.374161 -0.250007 -0.124092
v -0.374161 -0.250007 -0.015000
v -0.415746 -0.172208 -0.124092
v -0.415746 -0.172208 -0.015000
v -0.441353 -0.087791 -0.124092
v -0.441353 -0.087791 -0.015000
v -0.450000 0.000000 -0.124092
v -0.450000 0.000000 -0.015000
v -0.441353 0.087791 -0.124092
v -0.441353 0.087791 -0.015000
v -0.415746 0.172208 -0.124092
v -0.415746 0.172208 -0.015000
v -0.374161 0.250007 -0.124092
v -0.374161 0.250007 -0.015000
v -0.318198 0.318198 -0.124092
v -0.318198 0.318198 -0.015000
v -0.250007 0.374161 -0.124092
v -0.250007 0.374161 -0.015000
v -0.172208 0.415746 -0.124092
v -0.172208 0.415746 -0.015000
v -0.087791 0.441353 -0.124092
v -0.087791 0.441353 -0.015000
vn -0.0000 1.0000 -0.0000
vn 0.1951 0.9808 -0.0000
vn 0.3827 0.9239 -0.0000
vn 0.5556 0.8315 -0.0000
vn 0.7071 0.7071 -0.0000
vn 0.8315 0.5556 -0.0000
vn 0.9239 0.3827 -0.0000
vn 0.9808 0.1951 -0.0000
vn 1.0000 -0.0000 -0.0000
vn 0.9808 -0.1951 -0.0000
vn 0.9239 -0.3827 -0.0000
vn 0.8315 -0.5556 -0.0000
vn 0.7071 -0.7071 -0.0000
vn 0.5556 -0.8315 -0.0000
vn 0.3827 -0.9239 -0.0000
vn 0.1951 -0.9808 -0.0000
vn -0.0000 -1.0000 -0.0000
vn -0.1951 -0.9808 -0.0000
vn -0.3827 -0.9239 -0.0000
vn -0.5556 -0.8315 -0.0000
vn -0.7071 -0.7071 -0.0000
vn -0.8315 -0.5556 -0.0000
vn -0.9239 -0.3827 -0.0000
vn -0.9808 -0.1951 -0.0000
vn -1.0000 -0.0000 -0.0000
vn -0.9808 0.1951 -0.0000
vn -0.9239 0.3827 -0.0000
vn -0.8315 0.5556 -0.0000
vn -0.7071 0.7071 -0.0000
vn -0.5556 0.8315 -0.0000
vn -0.3827 0.9239 -0.0000
vn -0.1951 0.9808 -0.0000
vt 0.040749 0.500000
vt 0.040749 0.000000
vt 0.086027 0.000000
vt 0.086027 0.500000
vt 0.134094 0.000000
vt 0.134094 0.500000
vt 0.183103 0.000000
vt 0.183103 0.500000
vt 0.231169 0.000000
vt 0.231169 0.500000
vt 0.276447 0.000000
vt 0.276447 0.500000
vt 0.317197 0.000000
vt 0.317197 0.500000
vt 0.351851 0.000000
vt 0.351851 0.500000
vt 0.392600 0.000000
vt 0.392600 0.500000
vt 0.437878 0.000000
vt 0.437878 0.500000
vt 0.485945 0.000000
vt 0.485945 0.500000
vt 0.534953 0.000000
vt 0.534953 0.500000
vt 0.583020 0.000000
vt 0.583020 0.500000
vt 0.628298 0.000000
vt 0.628298 0.500000
vt 0.669047 0.000000
vt 0.669047 0.500000
vt 0.703702 0.000000
vt 0.703702 0.500000
vt 0.000000 1.000000
vt 0.000000 0.500000
vt 0.040749 1.000000
vt 0.086027 1.000000
vt 0.134094 1.000000
vt 0.183103 1.000000
vt 0.231169 1.000000
vt 0.276447 1.000000
vt 0.317197 1.000000
vt 0.351851 1.000000
vt 0.392600 1.000000
vt 0.437878 1.000000
vt 0.485945 1.000000
vt 0.534953 1.000000
vt 0.583020 1.000000
vt 0.628298 1.000000
vt 0.669047 1.000000
vt 0.703702 1.000000
vt 0.000000 0.000000
s 1
f 1/1/1 2/2/1 4/3/2 3/4/2
f 3/4/2 4/3/2 6/5/3 5/6/3
f 5/6/3 6/5/3 8/7/4 7/8/4
f 7/8/4 8/7/4 10/9/5 9/10/5
f 9/10/5 10/9/5 12/11/6 11/12/6
f 11/12/6 12/11/6 14/13/7 13/14/7
f 13/14/7 14/13/7 16/15/8 15/16/8
f 15/16/8 16/15/8 18/17/9 17/18/9
f 17/18/9 18/17/9 20/19/10 19/20/10
f 19/20/10 20/19/10 22/21/11 21/22/11
f 21/22/11 22/21/11 24/23/12 23/24/12
f 23/24/12 24/23/12 26/25/13 25/26/13
f 25/26/13 26/25/13 28/27/14 27/28/14
f 27/28/14 28/27/14 30/29/15 29/30/15
f 29/30/15 30/29/15 32/31/16 31/32/16
f 31/33/16 32/34/16 34/1/17 33/35/17
f 33/35/17 34/1/17 36/4/18 35/36/18
f 35/36/18 36/4/18 38/6/19 37/37/19
f 37/37/19 38/6/19 40/8/20 39/38/20
f 39/38/20 40/8/20 42/10/21 41/39/21
f 41/39/21 42/10/21 44/12/22 43/40/22
f 43/40/22 44/12/22 46/14/23 45/41/23
f 45/41/23 46/14/23 48/16/24 47/42/24
f 47/42/24 48/16/24 50/18/25 49/43/25
f 49/43/25 50/18/25 52/20/26 51/44/26
f 51/44/26 52/20/26 54/22/27 53/45/27
f 53/45/27 54/22/27 56/24/28 55/46/28
f 55/46/28 56/24/28 58/26/29 57/47/29
f 57/47/29 58/26/29 60/28/30 59/48/30
f 59/48/30 60/28/30 62/30/31 61/49/31
f 61/49/31 62/30/31 64/32/32 63/50/32
f 63/34/32 64/51/32 2/2/1 1/1/1
