# Blender 5.1.2
# www.blender.org
o Cube
v 0.500000 0.500000 0.000000
v 0.500000 0.500000 -0.300000
v 0.500000 -0.500000 0.000000
v 0.500000 -0.500000 -0.300000
v -0.500000 0.500000 0.000000
v -0.500000 0.500000 -0.300000
v -0.500000 -0.500000 0.000000
v -0.500000 -0.500000 -0.300000
v -0.500000 0.000000 0.000000
v -0.490393 0.097545 0.000000
v -0.490393 -0.097545 0.000000
v -0.415735 -0.277785 0.000000
v -0.415735 0.277785 0.000000
v -0.353553 -0.353553 0.000000
v -0.461940 -0.191342 0.000000
v -0.461940 0.191342 0.000000
v -0.277785 0.415735 0.000000
v -0.097545 0.490393 0.000000
v -0.191342 0.461940 0.000000
v 0.097545 0.490393 0.000000
v 0.353553 0.353553 0.000000
v 0.277785 0.415735 0.000000
v 0.191342 0.461940 0.000000
v 0.000000 0.500000 0.000000
v -0.353553 0.353553 0.000000
v -0.277785 -0.415735 0.000000
v -0.097545 -0.490393 0.000000
v -0.191342 -0.461940 0.000000
v 0.097545 -0.490393 0.000000
v 0.277785 -0.415735 0.000000
v 0.191342 -0.461940 0.000000
v 0.000000 -0.500000 0.000000
v 0.415735 -0.277785 0.000000
v 0.415735 0.277785 0.000000
v 0.500000 0.000000 0.000000
v 0.490393 -0.097545 0.000000
v 0.490393 0.097545 0.000000
v 0.461940 -0.191342 0.000000
v 0.461940 0.191342 0.000000
v 0.353553 -0.353553 0.000000
v 0.000000 -0.500000 -0.300000
v -0.500000 0.000000 -0.300000
v -0.353553 0.353553 -0.300000
v -0.277785 0.415735 -0.300000
v -0.097545 0.490393 -0.300000
v -0.191342 0.461940 -0.300000
v 0.097545 0.490393 -0.300000
v 0.277785 0.415735 -0.300000
v 0.191342 0.461940 -0.300000
v 0.353553 -0.353553 -0.300000
v 0.000000 0.500000 -0.300000
v 0.415735 -0.277785 -0.300000
v 0.415735 0.277785 -0.300000
v 0.500000 0.000000 -0.300000
v 0.490393 -0.097545 -0.300000
v 0.490393 0.097545 -0.300000
v 0.461940 -0.191342 -0.300000
v 0.461940 0.191342 -0.300000
v 0.353553 0.353553 -0.300000
v -0.490393 -0.097545 -0.300000
v -0.490393 0.097545 -0.300000
v -0.415735 -0.277785 -0.300000
v -0.415735 0.277785 -0.300000
v -0.353553 -0.353553 -0.300000
v -0.461940 -0.191342 -0.300000
v -0.461940 0.191342 -0.300000
v -0.277785 -0.415735 -0.300000
v -0.097545 -0.490393 -0.300000
v -0.191342 -0.461940 -0.300000
v 0.097545 -0.490393 -0.300000
v 0.277785 -0.415735 -0.300000
v 0.191342 -0.461940 -0.300000
vn -0.0000 -0.0000 1.0000
vn -0.0000 -1.0000 -0.0000
vn -1.0000 -0.0000 -0.0000
vn -0.0000 -0.0000 -1.0000
vn 1.0000 -0.0000 -0.0000
vn -0.0000 1.0000 -0.0000
vn -0.0980 -0.9952 -0.0000
vn -0.2903 -0.9569 -0.0000
vn -0.4714 -0.8819 -0.0000
vn -0.6344 -0.7730 -0.0000
vn -0.7730 -0.6344 -0.0000
vn -0.8819 -0.4714 -0.0000
vn -0.9569 -0.2903 -0.0000
vn -0.9952 -0.0980 -0.0000
vn -0.9952 0.0980 -0.0000
vn -0.9569 0.2903 -0.0000
vn -0.8819 0.4714 -0.0000
vn -0.7730 0.6344 -0.0000
vn -0.6344 0.7730 -0.0000
vn -0.4714 0.8819 -0.0000
vn -0.2903 0.9569 -0.0000
vn -0.0980 0.9952 -0.0000
vn 0.0980 0.9952 -0.0000
vn 0.2903 0.9569 -0.0000
vn 0.4714 0.8819 -0.0000
vn 0.6344 0.7730 -0.0000
vn 0.7730 0.6344 -0.0000
vn 0.8819 0.4714 -0.0000
vn 0.9569 0.2903 -0.0000
vn 0.9952 0.0980 -0.0000
vn 0.9952 -0.0980 -0.0000
vn 0.9569 -0.2903 -0.0000
vn 0.8819 -0.4714 -0.0000
vn 0.7730 -0.6344 -0.0000
vn 0.6344 -0.7730 -0.0000
vn 0.4714 -0.8819 -0.0000
vn 0.2903 -0.9569 -0.0000
vn 0.0980 -0.9952 -0.0000
vt 0.130602 1.000000
vt 0.000000 0.869398
vt 0.130602 0.738796
vt 0.107632 0.766785
vt 0.090564 0.798717
vt 0.080054 0.833365
vt 0.076505 0.869398
vt 0.080054 0.905431
vt 0.090564 0.940079
vt 0.107632 0.972011
vt 0.261204 1.000000
vt 0.130602 0.869398
vt 0.261204 0.738796
vt 0.238234 0.766785
vt 0.221166 0.798717
vt 0.210656 0.833365
vt 0.207107 0.869398
vt 0.210656 0.905431
vt 0.221166 0.940079
vt 0.238234 0.972011
vt 0.261204 0.738796
vt 0.391806 0.869398
vt 0.261204 1.000000
vt 0.284174 0.972011
vt 0.301242 0.940079
vt 0.311752 0.905431
vt 0.315301 0.869398
vt 0.311752 0.833365
vt 0.301242 0.798717
vt 0.284174 0.766785
vt 0.391806 0.738796
vt 0.522408 0.869398
vt 0.391806 1.000000
vt 0.414775 0.972011
vt 0.431843 0.940079
vt 0.442354 0.905431
vt 0.445903 0.869398
vt 0.442354 0.833365
vt 0.431843 0.798717
vt 0.414775 0.766785
vt 0.000000 0.000000
vt 0.369398 0.000000
vt 0.369398 0.184699
vt 0.000000 0.184699
vt 0.369398 0.369398
vt 0.000000 0.369398
vt 0.000000 0.554097
vt 0.000000 0.369398
vt 0.369398 0.369398
vt 0.369398 0.554097
vt 0.369398 0.738796
vt 0.000000 0.738796
vt 0.522408 0.869398
vt 0.653010 0.738796
vt 0.630040 0.766785
vt 0.612972 0.798717
vt 0.602461 0.833365
vt 0.598913 0.869398
vt 0.602461 0.905431
vt 0.612972 0.940079
vt 0.630040 0.972011
vt 0.653010 1.000000
vt 0.869398 0.261204
vt 0.738796 0.130602
vt 0.869398 -0.000000
vt 0.846428 0.027989
vt 0.829360 0.059921
vt 0.818850 0.094569
vt 0.815301 0.130602
vt 0.818850 0.166635
vt 0.829360 0.201283
vt 0.846428 0.233215
vt 0.738796 0.261204
vt 0.869398 0.391806
vt 0.738796 0.522408
vt 0.761766 0.494419
vt 0.778834 0.462487
vt 0.789344 0.427839
vt 0.792893 0.391806
vt 0.789344 0.355773
vt 0.778834 0.321125
vt 0.761766 0.289192
vt 0.869398 0.653010
vt 0.738796 0.783612
vt 0.761766 0.755623
vt 0.778834 0.723691
vt 0.789344 0.689043
vt 0.792893 0.653010
vt 0.789344 0.616977
vt 0.778834 0.582328
vt 0.761766 0.550396
vt 0.369398 0.000000
vt 0.738796 0.000000
vt 0.738796 0.184699
vt 0.369398 0.184699
vt 0.738796 0.369398
vt 0.369398 0.369398
vt 0.369398 0.554097
vt 0.369398 0.369398
vt 0.738796 0.369398
vt 0.738796 0.554097
vt 0.738796 0.738796
vt 0.369398 0.738796
vt 0.738796 0.590130
vt 0.369398 0.590130
vt 0.738796 0.624778
vt 0.369398 0.624778
vt 0.738796 0.656710
vt 0.369398 0.656710
vt 0.738796 0.684699
vt 0.369398 0.684699
vt 0.369398 0.082086
vt 0.369398 0.054097
vt 0.738796 0.054097
vt 0.738796 0.082086
vt 0.369398 0.114018
vt 0.738796 0.114018
vt 0.369398 0.148666
vt 0.738796 0.148666
vt 0.738796 0.220732
vt 0.369398 0.220732
vt 0.369398 0.255380
vt 0.738796 0.255380
vt 0.369398 0.287312
vt 0.738796 0.287312
vt 0.369398 0.315301
vt 0.738796 0.315301
vt 0.000000 0.082086
vt 0.000000 0.054097
vt 0.369398 0.054097
vt 0.369398 0.082086
vt 0.000000 0.114018
vt 0.369398 0.114018
vt 0.000000 0.148666
vt 0.369398 0.148666
vt 0.000000 0.220732
vt 0.369398 0.220732
vt 0.000000 0.255380
vt 0.369398 0.255380
vt 0.000000 0.287312
vt 0.369398 0.287312
vt 0.000000 0.315301
vt 0.369398 0.315301
vt 0.369398 0.451484
vt 0.000000 0.451484
vt 0.000000 0.423495
vt 0.369398 0.423495
vt 0.369398 0.483416
vt 0.000000 0.483416
vt 0.369398 0.518064
vt 0.000000 0.518064
vt 0.369398 0.590130
vt 0.000000 0.590130
vt 0.369398 0.624778
vt 0.000000 0.624778
vt 0.369398 0.656710
vt 0.000000 0.656710
vt 0.369398 0.684699
vt 0.000000 0.684699
vt 0.738796 0.451484
vt 0.369398 0.451484
vt 0.369398 0.423495
vt 0.738796 0.423495
vt 0.738796 0.483416
vt 0.369398 0.483416
vt 0.738796 0.518064
vt 0.369398 0.518064
s 0
f 9/1/1 7/2/1 32/3/1 27/4/1 28/5/1 26/6/1 14/7/1 12/8/1 15/9/1 11/10/1
f 24/11/1 5/12/1 9/13/1 10/14/1 16/15/1 13/16/1 25/17/1 17/18/1 19/19/1 18/20/1
f 35/21/1 1/22/1 24/23/1 20/24/1 23/25/1 22/26/1 21/27/1 34/28/1 39/29/1 37/30/1
f 32/31/1 3/32/1 35/33/1 36/34/1 38/35/1 33/36/1 40/37/1 30/38/1 31/39/1 29/40/1
f 7/41/2 8/42/2 41/43/2 32/44/2
f 41/43/2 4/45/2 3/46/2 32/44/2
f 9/47/3 5/48/3 6/49/3 42/50/3
f 8/51/3 7/52/3 9/47/3 42/50/3
f 4/53/4 41/54/4 70/55/4 72/56/4 71/57/4 50/58/4 52/59/4 57/60/4 55/61/4 54/62/4
f 51/63/4 2/64/4 54/65/4 56/66/4 58/67/4 53/68/4 59/69/4 48/70/4 49/71/4 47/72/4
f 42/73/4 6/74/4 51/75/4 45/76/4 46/77/4 44/78/4 43/79/4 63/80/4 66/81/4 61/82/4
f 41/75/4 8/83/4 42/84/4 60/85/4 65/86/4 62/87/4 64/88/4 67/89/4 69/90/4 68/91/4
f 3/92/5 4/93/5 54/94/5 35/95/5
f 54/94/5 2/96/5 1/97/5 35/95/5
f 24/98/6 1/99/6 2/100/6 51/101/6
f 6/102/6 5/103/6 24/98/6 51/101/6
f 51/101/7 47/104/7 20/105/7 24/98/7
f 49/106/8 23/107/8 20/105/8 47/104/8
f 48/108/9 22/109/9 23/107/9 49/106/9
f 59/110/10 21/111/10 22/109/10 48/108/10
f 34/112/11 21/113/11 59/114/11 53/115/11
f 39/116/12 34/112/12 53/115/12 58/117/12
f 37/118/13 39/116/13 58/117/13 56/119/13
f 35/95/14 37/118/14 56/119/14 54/94/14
f 54/94/15 55/120/15 36/121/15 35/95/15
f 38/122/16 36/121/16 55/120/16 57/123/16
f 33/124/17 38/122/17 57/123/17 52/125/17
f 40/126/18 33/124/18 52/125/18 50/127/18
f 30/128/19 40/129/19 50/130/19 71/131/19
f 31/132/20 30/128/20 71/131/20 72/133/20
f 29/134/21 31/132/21 72/133/21 70/135/21
f 32/44/22 29/134/22 70/135/22 41/43/22
f 27/136/23 32/44/23 41/43/23 68/137/23
f 28/138/24 27/136/24 68/137/24 69/139/24
f 26/140/25 28/138/25 69/139/25 67/141/25
f 14/142/26 26/140/26 67/141/26 64/143/26
f 62/144/27 12/145/27 14/146/27 64/147/27
f 65/148/28 15/149/28 12/145/28 62/144/28
f 60/150/29 11/151/29 15/149/29 65/148/29
f 9/47/30 11/151/30 60/150/30 42/50/30
f 61/152/31 10/153/31 9/47/31 42/50/31
f 66/154/32 16/155/32 10/153/32 61/152/32
f 63/156/33 13/157/33 16/155/33 66/154/33
f 43/158/34 25/159/34 13/157/34 63/156/34
f 44/160/35 17/161/35 25/162/35 43/163/35
f 46/164/36 19/165/36 17/161/36 44/160/36
f 45/166/37 18/167/37 19/165/37 46/164/37
f 24/98/38 18/167/38 45/166/38 51/101/38
